SplineFontDB: 3.0
FontName: Pe-icon-7-stroke
FullName: Pe-icon-7-stroke
FamilyName: Pe-icon-7-stroke
Weight: Book
Copyright: 
Version: 1.0
ItalicAngle: 0
UnderlinePosition: 0
UnderlineWidth: 0
Ascent: 1536
Descent: 256
sfntRevision: 0x00010000
LayerCount: 2
Layer: 0 1 "Back"  1
Layer: 1 1 "Fore"  0
XUID: [1021 60 1363599177 16444763]
FSType: 0
OS2Version: 3
OS2_WeightWidthSlopeOnly: 0
OS2_UseTypoMetrics: 1
CreationTime: 1416410110
ModificationTime: 1464090520
PfmFamily: 81
TTFWeight: 400
TTFWidth: 5
LineGap: 0
VLineGap: 0
Panose: 0 0 0 0 0 0 0 0 0 0
OS2TypoAscent: 1680
OS2TypoAOffset: 0
OS2TypoDescent: -112
OS2TypoDOffset: 0
OS2TypoLinegap: -112
OS2WinAscent: 1680
OS2WinAOffset: 0
OS2WinDescent: 112
OS2WinDOffset: 0
HheadAscent: 1680
HheadAOffset: 0
HheadDescent: -112
HheadDOffset: 0
OS2SubXSize: 1162
OS2SubYSize: 1253
OS2SubXOff: 0
OS2SubYOff: 248
OS2SupXSize: 1162
OS2SupYSize: 1253
OS2SupXOff: 0
OS2SupYOff: 858
OS2StrikeYSize: 88
OS2StrikeYPos: 462
OS2CodePages: 00000001.00000000
OS2UnicodeRanges: 00000001.10000000.00000000.00000000
MarkAttachClasses: 1
DEI: 91125
ShortTable: maxp 16
  1
  0
  206
  452
  25
  0
  0
  2
  0
  0
  0
  0
  0
  0
  0
  0
EndShort
LangName: 1033 "" "" "Regular" "Pe-icon-7-stroke" "" "Version 1.0" "" "" "" "" "Font generated by IcoMoon." 
GaspTable: 1 65535 15 1
Encoding: UnicodeBmp
UnicodeInterp: none
NameList: Adobe Glyph List
DisplaySize: -48
AntiAlias: 1
FitToEm: 1
WinInfo: 58825 25 14
BeginPrivate: 0
EndPrivate
TeXData: 1 0 0 346030 173015 115343 0 1048576 115343 783286 444596 497025 792723 393216 433062 380633 303038 157286 324010 404750 52429 2506097 1059062 262144
BeginChars: 65536 206

StartChar: glyph1
Encoding: 0 -1 1
AltUni2: 000000.ffffffff.0
Width: 0
Flags: W
LayerCount: 2
Fore
SplineSet
0 0 m 1,0,-1
 0 0 l 1,1,-1
 0 0 l 1,2,-1
 0 0 l 1,0,-1
EndSplineSet
EndChar

StartChar: uni0001
Encoding: 1 1 2
Width: 0
Flags: W
LayerCount: 2
Fore
SplineSet
0 0 m 1,0,-1
 0 0 l 1,1,-1
 0 0 l 1,2,-1
 0 0 l 1,0,-1
EndSplineSet
EndChar

StartChar: space
Encoding: 32 32 3
Width: 896
Flags: W
LayerCount: 2
Fore
SplineSet
0 0 m 1,0,-1
 0 0 l 1,1,-1
 0 0 l 1,2,-1
 0 0 l 1,0,-1
EndSplineSet
EndChar

StartChar: uniE600
Encoding: 58880 58880 4
Width: 1792
Flags: W
LayerCount: 2
Fore
SplineSet
1568 1200 m 1,0,-1
 1372 1200 l 1,1,-1
 1372 1365 l 2,2,3
 1372 1393 1372 1393 1361.5 1417.5 c 0,4,5
 1352 1442 1352 1442 1334 1460 c 0,6,7
 1316 1481 1316 1481 1291.5 1491.5 c 128,-1,8
 1267 1502 1267 1502 1239 1502 c 2,9,-1
 315 1502 l 2,10,11
 287 1502 287 1502 262.5 1491 c 128,-1,12
 238 1480 238 1480 220 1460 c 1,13,14
 199 1442 199 1442 188.5 1417.5 c 128,-1,15
 178 1393 178 1393 178 1365 c 2,16,-1
 178 112 l 2,17,18
 178 94 178 94 192 80 c 128,-1,19
 206 66 206 66 224 66 c 2,20,-1
 1568 66 l 2,21,22
 1586 66 1586 66 1600 80 c 128,-1,23
 1614 94 1614 94 1614 112 c 2,24,-1
 1614 1158 l 2,25,26
 1614 1176 1614 1176 1600 1188 c 128,-1,27
 1586 1200 1586 1200 1568 1200 c 1,28,-1
 1568 1200 l 1,0,-1
315 1442 m 1,29,-1
 1239 1442 l 2,30,31
 1253 1442 1253 1442 1267 1435 c 0,32,33
 1282 1428 1282 1428 1292 1418 c 256,34,35
 1302 1408 1302 1408 1307 1395 c 128,-1,36
 1312 1382 1312 1382 1312 1365 c 2,37,-1
 1312 1200 l 1,38,-1
 238 1200 l 1,39,-1
 238 1365 l 2,40,41
 238 1383 238 1383 245 1395 c 0,42,43
 252 1408 252 1408 262 1418 c 256,44,45
 272 1428 272 1428 285 1435 c 128,-1,46
 298 1442 298 1442 315 1442 c 1,47,-1
 315 1442 l 1,29,-1
1554 126 m 1,48,-1
 238 126 l 1,49,-1
 238 1141 l 1,50,-1
 1554 1141 l 1,51,-1
 1554 126 l 1,52,-1
 1554 126 l 1,48,-1
1134 634 m 1,53,54
 1134 606 1134 606 1146 578 c 128,-1,55
 1158 550 1158 550 1180 528 c 256,56,57
 1201 507 1201 507 1227 496.5 c 0,58,59
 1252 486 1252 486 1284 486 c 256,60,61
 1316 486 1316 486 1342 497 c 128,-1,62
 1368 508 1368 508 1390 528 c 256,63,64
 1411 549 1411 549 1423 577.5 c 128,-1,65
 1435 606 1435 606 1435 634 c 0,66,67
 1435 666 1435 666 1422.5 693.5 c 0,68,69
 1410 720 1410 720 1390 738 c 0,70,71
 1369 759 1369 759 1342.5 771.5 c 128,-1,72
 1316 784 1316 784 1284 784 c 256,73,74
 1252 784 1252 784 1226 772 c 128,-1,75
 1200 760 1200 760 1180 742 c 0,76,77
 1159 721 1159 721 1146.5 693 c 0,78,79
 1134 666 1134 666 1134 634 c 1,80,-1
 1134 634 l 1,53,54
1372 634 m 1,81,82
 1372 616 1372 616 1365 600 c 128,-1,83
 1358 584 1358 584 1348 570 c 0,84,85
 1338 560 1338 560 1320 553 c 128,-1,86
 1302 546 1302 546 1284 546 c 256,87,88
 1266 546 1266 546 1249 553 c 128,-1,89
 1232 560 1232 560 1222 570 c 0,90,91
 1208 584 1208 584 1201 600 c 128,-1,92
 1194 616 1194 616 1194 634 c 0,93,94
 1194 655 1194 655 1201 670.5 c 128,-1,95
 1208 686 1208 686 1222 696 c 1,96,97
 1232 710 1232 710 1249.5 717 c 0,98,99
 1266 724 1266 724 1284 724 c 256,100,101
 1302 724 1302 724 1319.5 717 c 0,102,103
 1338 710 1338 710 1348 696 c 0,104,105
 1358 686 1358 686 1365 670 c 128,-1,106
 1372 654 1372 654 1372 634 c 1,107,-1
 1372 634 l 1,81,82
EndSplineSet
EndChar

StartChar: uniE601
Encoding: 58881 58881 5
Width: 1792
Flags: W
LayerCount: 2
Fore
SplineSet
626 934 m 1,0,-1
 626 634 l 1,1,-1
 872 634 l 1,2,-1
 1074 430 l 1,3,-1
 1074 1138 l 1,4,-1
 872 934 l 1,5,-1
 626 934 l 1,6,-1
 626 934 l 1,0,-1
914 892 m 1,7,-1
 1015 990 l 1,8,-1
 1015 578 l 1,9,-1
 896 693 l 1,10,-1
 686 693 l 1,11,-1
 686 875 l 1,12,-1
 896 875 l 1,13,-1
 914 892 l 1,14,-1
 914 892 l 1,7,-1
896 1530 m 1,15,16
 742 1530 742 1530 605.5 1472 c 0,17,18
 470 1414 470 1414 368 1312 c 256,19,20
 266 1210 266 1210 208 1074 c 128,-1,21
 150 938 150 938 150 784 c 256,22,23
 150 630 150 630 208 493.5 c 0,24,25
 266 358 266 358 368 256 c 256,26,27
 470 154 470 154 606 96 c 128,-1,28
 742 38 742 38 896 38 c 256,29,30
 1050 38 1050 38 1186.5 96 c 0,31,32
 1322 154 1322 154 1424 256 c 256,33,34
 1526 358 1526 358 1584 494 c 128,-1,35
 1642 630 1642 630 1642 784 c 256,36,37
 1642 938 1642 938 1584 1074.5 c 0,38,39
 1526 1210 1526 1210 1424 1312 c 256,40,41
 1322 1414 1322 1414 1186 1472 c 128,-1,42
 1050 1530 1050 1530 896 1530 c 1,43,-1
 896 1530 l 1,15,16
896 98 m 1,44,45
 752 98 752 98 628 152 c 128,-1,46
 504 206 504 206 410 298 c 1,47,48
 319 392 319 392 264.5 516 c 128,-1,49
 210 640 210 640 210 784 c 256,50,51
 210 928 210 928 264 1052 c 128,-1,52
 318 1176 318 1176 410 1270 c 1,53,54
 504 1361 504 1361 628 1415.5 c 128,-1,55
 752 1470 752 1470 896 1470 c 256,56,57
 1040 1470 1040 1470 1164 1416 c 128,-1,58
 1288 1362 1288 1362 1382 1270 c 1,59,60
 1473 1176 1473 1176 1527.5 1052 c 128,-1,61
 1582 928 1582 928 1582 784 c 256,62,63
 1582 640 1582 640 1528 516 c 128,-1,64
 1474 392 1474 392 1382 298 c 1,65,66
 1288 207 1288 207 1164 152.5 c 128,-1,67
 1040 98 1040 98 896 98 c 1,68,-1
 896 98 l 1,44,45
EndSplineSet
EndChar

StartChar: uniE602
Encoding: 58882 58882 6
Width: 1792
Flags: W
LayerCount: 2
Fore
SplineSet
626 934 m 1,0,-1
 626 634 l 1,1,-1
 872 634 l 1,2,-1
 1074 430 l 1,3,-1
 1074 1138 l 1,4,-1
 872 934 l 1,5,-1
 626 934 l 1,6,-1
 626 934 l 1,0,-1
914 892 m 1,7,-1
 1015 990 l 1,8,-1
 1015 578 l 1,9,-1
 896 693 l 1,10,-1
 686 693 l 1,11,-1
 686 875 l 1,12,-1
 896 875 l 1,13,-1
 914 892 l 1,14,-1
 914 892 l 1,7,-1
1494 1228 m 1,15,-1
 1446 1194 l 1,16,17
 1478 1152 1478 1152 1504 1104.5 c 0,18,19
 1530 1056 1530 1056 1547 1004 c 256,20,21
 1565 952 1565 952 1573.5 896 c 128,-1,22
 1582 840 1582 840 1582 784 c 256,23,24
 1582 728 1582 728 1573 672 c 128,-1,25
 1564 616 1564 616 1547 564 c 256,26,27
 1529 512 1529 512 1503 464 c 0,28,29
 1478 416 1478 416 1446 374 c 1,30,-1
 1494 340 l 1,31,32
 1529 386 1529 386 1557.5 438 c 128,-1,33
 1586 490 1586 490 1603 546 c 0,34,35
 1624 602 1624 602 1633 661.5 c 128,-1,36
 1642 721 1642 721 1642 784 c 256,37,38
 1642 847 1642 847 1633 906.5 c 128,-1,39
 1624 966 1624 966 1603 1022 c 0,40,41
 1585 1078 1585 1078 1557.5 1130.5 c 0,42,43
 1530 1182 1530 1182 1494 1228 c 1,44,-1
 1494 1228 l 1,15,-1
1351 444 m 1,45,46
 1375 479 1375 479 1396.5 519.5 c 128,-1,47
 1418 560 1418 560 1432 602 c 0,48,49
 1450 644 1450 644 1456.5 689.5 c 128,-1,50
 1463 735 1463 735 1463 784 c 256,51,52
 1463 833 1463 833 1456 878.5 c 0,53,54
 1450 924 1450 924 1432 966 c 0,55,56
 1418 1008 1418 1008 1397 1048 c 128,-1,57
 1376 1088 1376 1088 1351 1124 c 1,58,-1
 1302 1085 l 1,59,60
 1326 1053 1326 1053 1345.5 1018.5 c 0,61,62
 1366 984 1366 984 1376 945 c 0,63,64
 1390 907 1390 907 1397 866.5 c 128,-1,65
 1404 826 1404 826 1404 784 c 256,66,67
 1404 742 1404 742 1397 702 c 128,-1,68
 1390 662 1390 662 1376 623 c 0,69,70
 1366 585 1366 585 1346 549.5 c 128,-1,71
 1326 514 1326 514 1302 483 c 1,72,-1
 1351 444 l 1,73,-1
 1351 444 l 1,45,46
1208 553 m 1,74,75
 1226 577 1226 577 1239.5 603.5 c 0,76,77
 1254 630 1254 630 1264 662 c 0,78,79
 1274 690 1274 690 1279 721 c 128,-1,80
 1284 752 1284 752 1284 784 c 256,81,82
 1284 816 1284 816 1279 847 c 128,-1,83
 1274 878 1274 878 1264 906 c 0,84,85
 1254 938 1254 938 1239.5 964 c 0,86,87
 1226 990 1226 990 1208 1015 c 1,88,-1
 1158 980 l 1,89,90
 1176 959 1176 959 1186.5 936.5 c 0,91,92
 1198 914 1198 914 1208 889 c 0,93,94
 1215 865 1215 865 1220 838.5 c 128,-1,95
 1225 812 1225 812 1225 784 c 256,96,97
 1225 756 1225 756 1219.5 730 c 128,-1,98
 1214 704 1214 704 1208 679 c 0,99,100
 1198 655 1198 655 1187 632 c 128,-1,101
 1176 609 1176 609 1158 588 c 1,102,-1
 1208 553 l 1,103,-1
 1208 553 l 1,74,75
896 98 m 1,104,105
 752 98 752 98 628 152 c 128,-1,106
 504 206 504 206 410 298 c 1,107,108
 319 392 319 392 264.5 516 c 128,-1,109
 210 640 210 640 210 784 c 256,110,111
 210 928 210 928 264 1052 c 128,-1,112
 318 1176 318 1176 410 1270 c 1,113,114
 504 1361 504 1361 628 1415.5 c 128,-1,115
 752 1470 752 1470 896 1470 c 0,116,117
 966 1470 966 1470 1032.5 1456 c 128,-1,118
 1099 1442 1099 1442 1162 1418 c 0,119,120
 1225 1390 1225 1390 1279.5 1353 c 128,-1,121
 1334 1316 1334 1316 1379 1270 c 1,122,-1
 1421 1312 l 1,123,124
 1372 1361 1372 1361 1312.5 1403.5 c 0,125,126
 1252 1446 1252 1446 1186 1474 c 256,127,128
 1120 1502 1120 1502 1046.5 1516 c 128,-1,129
 973 1530 973 1530 896 1530 c 0,130,131
 742 1530 742 1530 605.5 1472 c 0,132,133
 470 1414 470 1414 368 1312 c 256,134,135
 266 1210 266 1210 208 1074 c 128,-1,136
 150 938 150 938 150 784 c 256,137,138
 150 630 150 630 208 493.5 c 0,139,140
 266 358 266 358 368 256 c 256,141,142
 470 154 470 154 606 96 c 128,-1,143
 742 38 742 38 896 38 c 0,144,145
 973 38 973 38 1046.5 52 c 128,-1,146
 1120 66 1120 66 1186 94 c 256,147,148
 1252 122 1252 122 1312 164 c 128,-1,149
 1372 206 1372 206 1421 256 c 1,150,-1
 1379 298 l 1,151,152
 1333 252 1333 252 1279 215 c 128,-1,153
 1225 178 1225 178 1162 150 c 0,154,155
 1099 126 1099 126 1032.5 112 c 128,-1,156
 966 98 966 98 896 98 c 1,157,-1
 896 98 l 1,104,105
EndSplineSet
EndChar

StartChar: uniE603
Encoding: 58883 58883 7
Width: 1792
Flags: W
LayerCount: 2
Fore
SplineSet
1390 1186 m 1,0,1
 1306 1186 1306 1186 1232 1155 c 128,-1,2
 1158 1124 1158 1124 1102 1068 c 0,3,4
 1050 1016 1050 1016 1018.5 942 c 128,-1,5
 987 868 987 868 987 784 c 0,6,7
 987 728 987 728 1001 679 c 0,8,9
 1016 630 1016 630 1040 584 c 256,10,11
 1064 538 1064 538 1099 502 c 128,-1,12
 1134 466 1134 466 1180 441 c 1,13,-1
 612 441 l 1,14,15
 658 465 658 465 693 502 c 0,16,17
 728 538 728 538 752 584 c 256,18,19
 776 630 776 630 790.5 679 c 128,-1,20
 805 728 805 728 805 784 c 0,21,22
 805 868 805 868 773.5 941.5 c 0,23,24
 742 1016 742 1016 690 1068 c 0,25,26
 634 1124 634 1124 560 1155 c 128,-1,27
 486 1186 486 1186 402 1186 c 256,28,29
 318 1186 318 1186 245 1155 c 128,-1,30
 172 1124 172 1124 119 1068 c 1,31,32
 63 1016 63 1016 31.5 942 c 128,-1,33
 0 868 0 868 0 784 c 256,34,35
 0 700 0 700 31.5 626.5 c 0,36,37
 63 552 63 552 119 500 c 1,38,39
 171 444 171 444 244.5 413 c 128,-1,40
 318 382 318 382 402 382 c 2,41,-1
 1390 382 l 2,42,43
 1474 382 1474 382 1547 413 c 128,-1,44
 1620 444 1620 444 1673 500 c 1,45,46
 1729 552 1729 552 1760.5 626 c 128,-1,47
 1792 700 1792 700 1792 784 c 256,48,49
 1792 868 1792 868 1760.5 941.5 c 0,50,51
 1729 1016 1729 1016 1673 1068 c 1,52,53
 1621 1124 1621 1124 1547.5 1155 c 128,-1,54
 1474 1186 1474 1186 1390 1186 c 1,55,-1
 1390 1186 l 1,0,1
60 784 m 1,56,57
 60 854 60 854 88 917 c 128,-1,58
 116 980 116 980 161 1026 c 0,59,60
 207 1075 207 1075 269.5 1101 c 128,-1,61
 332 1127 332 1127 402 1127 c 0,62,63
 476 1127 476 1127 537 1100.5 c 128,-1,64
 598 1074 598 1074 648 1026 c 0,65,66
 694 980 694 980 720 917 c 128,-1,67
 746 854 746 854 746 784 c 256,68,69
 746 714 746 714 719.5 651 c 0,70,71
 694 588 694 588 648 542 c 0,72,73
 599 493 599 493 537.5 467 c 128,-1,74
 476 441 476 441 402 441 c 0,75,76
 332 441 332 441 269 467.5 c 128,-1,77
 206 494 206 494 161 542 c 0,78,79
 115 588 115 588 87.5 651 c 128,-1,80
 60 714 60 714 60 784 c 1,81,-1
 60 784 l 1,56,57
1390 441 m 1,82,83
 1316 441 1316 441 1255 467.5 c 128,-1,84
 1194 494 1194 494 1144 542 c 0,85,86
 1098 588 1098 588 1072 651 c 128,-1,87
 1046 714 1046 714 1046 784 c 256,88,89
 1046 854 1046 854 1072.5 917 c 0,90,91
 1098 980 1098 980 1144 1026 c 0,92,93
 1193 1075 1193 1075 1254.5 1101 c 128,-1,94
 1316 1127 1316 1127 1390 1127 c 0,95,96
 1460 1127 1460 1127 1523 1100.5 c 128,-1,97
 1586 1074 1586 1074 1631 1026 c 0,98,99
 1677 980 1677 980 1704.5 917 c 128,-1,100
 1732 854 1732 854 1732 784 c 256,101,102
 1732 714 1732 714 1704 651 c 128,-1,103
 1676 588 1676 588 1631 542 c 0,104,105
 1585 493 1585 493 1522.5 467 c 128,-1,106
 1460 441 1460 441 1390 441 c 1,107,-1
 1390 441 l 1,82,83
EndSplineSet
EndChar

StartChar: uniE604
Encoding: 58884 58884 8
Width: 1792
Flags: W
LayerCount: 2
Fore
SplineSet
1578 1172 m 1,0,-1
 1194 942 l 1,1,-1
 1194 1200 l 2,2,3
 1194 1221 1194 1221 1187 1237 c 128,-1,4
 1180 1253 1180 1253 1169 1267 c 1,5,6
 1155 1277 1155 1277 1139.5 1284.5 c 128,-1,7
 1124 1292 1124 1292 1106 1292 c 2,8,-1
 150 1292 l 2,9,10
 129 1292 129 1292 113.5 1285 c 128,-1,11
 98 1278 98 1278 88 1267 c 0,12,13
 74 1253 74 1253 67 1237.5 c 128,-1,14
 60 1222 60 1222 60 1200 c 2,15,-1
 60 368 l 2,16,17
 60 347 60 347 67 331 c 128,-1,18
 74 315 74 315 88 301 c 0,19,20
 98 291 98 291 114 283.5 c 128,-1,21
 130 276 130 276 150 276 c 2,22,-1
 1106 276 l 2,23,24
 1124 276 1124 276 1139.5 283 c 128,-1,25
 1155 290 1155 290 1169 301 c 1,26,27
 1179 315 1179 315 1186.5 330.5 c 128,-1,28
 1194 346 1194 346 1194 368 c 2,29,-1
 1194 630 l 1,30,-1
 1586 396 l 1,31,-1
 1732 396 l 1,32,-1
 1732 1172 l 1,33,-1
 1578 1172 l 1,34,-1
 1578 1172 l 1,0,-1
1134 368 m 1,35,36
 1134 354 1134 354 1125 345 c 128,-1,37
 1116 336 1116 336 1106 336 c 2,38,-1
 150 336 l 2,39,40
 136 336 136 336 127.5 345 c 128,-1,41
 119 354 119 354 119 368 c 2,42,-1
 119 1200 l 2,43,44
 119 1214 119 1214 127.5 1223 c 128,-1,45
 136 1232 136 1232 150 1232 c 2,46,-1
 1106 1232 l 2,47,48
 1116 1232 1116 1232 1125 1223 c 128,-1,49
 1134 1214 1134 1214 1134 1200 c 2,50,-1
 1134 368 l 1,51,-1
 1134 368 l 1,35,36
1673 455 m 1,52,-1
 1603 455 l 1,53,-1
 1194 700 l 1,54,-1
 1194 872 l 1,55,-1
 1596 1113 l 1,56,-1
 1673 1113 l 1,57,-1
 1673 455 l 1,58,-1
 1673 455 l 1,52,-1
EndSplineSet
EndChar

StartChar: uniE605
Encoding: 58885 58885 9
Width: 1792
Flags: W
LayerCount: 2
Fore
SplineSet
896 1502 m 1,0,1
 749 1502 749 1502 617.5 1446 c 128,-1,2
 486 1390 486 1390 388 1292 c 256,3,4
 290 1194 290 1194 234 1062.5 c 128,-1,5
 178 931 178 931 178 784 c 256,6,7
 178 637 178 637 234 505.5 c 128,-1,8
 290 374 290 374 388 276 c 256,9,10
 486 178 486 178 617.5 122 c 128,-1,11
 749 66 749 66 896 66 c 256,12,13
 1043 66 1043 66 1174.5 122 c 128,-1,14
 1306 178 1306 178 1404 276 c 256,15,16
 1502 374 1502 374 1558 505.5 c 128,-1,17
 1614 637 1614 637 1614 784 c 256,18,19
 1614 931 1614 931 1558 1062.5 c 128,-1,20
 1502 1194 1502 1194 1404 1292 c 256,21,22
 1306 1390 1306 1390 1174.5 1446 c 128,-1,23
 1043 1502 1043 1502 896 1502 c 1,24,-1
 896 1502 l 1,0,1
896 1442 m 1,25,26
 1032 1442 1032 1442 1151 1389.5 c 0,27,28
 1270 1338 1270 1338 1362 1250 c 1,29,30
 1450 1159 1450 1159 1502 1039.5 c 128,-1,31
 1554 920 1554 920 1554 784 c 0,32,33
 1554 724 1554 724 1543.5 666.5 c 0,34,35
 1533 608 1533 608 1512 556 c 0,36,37
 1494 504 1494 504 1464.5 455 c 128,-1,38
 1435 406 1435 406 1400 364 c 1,39,40
 1376 374 1376 374 1337 388 c 128,-1,41
 1298 402 1298 402 1253 420 c 0,42,43
 1211 434 1211 434 1165.5 448 c 128,-1,44
 1120 462 1120 462 1085 472 c 0,45,46
 1078 476 1078 476 1076 481 c 128,-1,47
 1074 486 1074 486 1074 511 c 0,48,49
 1074 532 1074 532 1081 553 c 128,-1,50
 1088 574 1088 574 1099 592 c 0,51,52
 1106 610 1106 610 1116.5 641 c 0,53,54
 1126 672 1126 672 1130 700 c 1,55,56
 1140 714 1140 714 1154.5 740 c 128,-1,57
 1169 766 1169 766 1176 812 c 1,58,59
 1186 854 1186 854 1184.5 873 c 128,-1,60
 1183 892 1183 892 1176 910 c 1,61,-1
 1174 912 l 0,62,-1
 1172 914 l 1,63,64
 1172 924 1172 924 1174 966 c 128,-1,65
 1176 1008 1176 1008 1183 1050 c 0,66,67
 1190 1074 1190 1074 1179.5 1125 c 128,-1,68
 1169 1176 1169 1176 1134 1225 c 0,69,70
 1120 1239 1120 1239 1102.5 1256.5 c 0,71,72
 1084 1274 1084 1274 1060 1284 c 0,73,74
 1036 1298 1036 1298 1004.5 1309 c 128,-1,75
 973 1320 973 1320 931 1323 c 1,76,-1
 872 1323 l 1,77,78
 830 1319 830 1319 798 1308.5 c 128,-1,79
 766 1298 766 1298 742 1284 c 0,80,81
 718 1274 718 1274 700 1256.5 c 128,-1,82
 682 1239 682 1239 672 1225 c 0,83,84
 634 1176 634 1176 625 1125 c 128,-1,85
 616 1074 616 1074 620 1050 c 0,86,87
 627 1008 627 1008 630.5 966 c 128,-1,88
 634 924 634 924 630 914 c 1,89,-1
 630 912 l 0,90,91
 630 910 630 910 626 910 c 0,92,93
 622 892 622 892 621 873 c 128,-1,94
 620 854 620 854 626 812 c 0,95,96
 636 766 636 766 649 740 c 128,-1,97
 662 714 662 714 672 700 c 1,98,99
 676 672 676 672 686 640.5 c 0,100,101
 696 610 696 610 704 592 c 0,102,103
 711 578 711 578 714.5 557 c 128,-1,104
 718 536 718 536 718 511 c 0,105,106
 718 483 718 483 716 479.5 c 128,-1,107
 714 476 714 476 710 472 c 0,108,109
 672 462 672 462 626.5 446 c 0,110,111
 582 430 582 430 536 416 c 1,112,113
 494 398 494 398 455 384.5 c 0,114,115
 416 370 416 370 396 360 c 1,116,117
 358 402 358 402 329.5 451 c 128,-1,118
 301 500 301 500 280 556 c 0,119,120
 259 608 259 608 248.5 666 c 128,-1,121
 238 724 238 724 238 784 c 0,122,123
 238 920 238 920 290.5 1039 c 0,124,125
 342 1158 342 1158 430 1250 c 1,126,127
 521 1338 521 1338 640.5 1390 c 128,-1,128
 760 1442 760 1442 896 1442 c 1,129,-1
 896 1442 l 1,25,26
438 315 m 1,130,131
 462 325 462 325 499 337.5 c 128,-1,132
 536 350 536 350 574 364 c 256,133,134
 612 378 612 378 652.5 392 c 128,-1,135
 693 406 693 406 728 416 c 0,136,137
 766 426 766 426 771.5 454.5 c 128,-1,138
 777 483 777 483 777 511 c 0,139,140
 777 532 777 532 775.5 560 c 128,-1,141
 774 588 774 588 760 616 c 0,142,143
 750 634 750 634 742.5 662 c 0,144,145
 736 690 736 690 732 718 c 0,146,147
 732 722 732 722 728 727 c 128,-1,148
 724 732 724 732 721 735 c 0,149,150
 714 742 714 742 703.5 763 c 128,-1,151
 693 784 693 784 686 826 c 0,152,153
 679 858 679 858 679 868 c 0,154,155
 678 878 678 878 682 886 c 0,156,157
 686 890 686 890 686 893 c 128,-1,158
 686 896 686 896 686 900 c 0,159,160
 693 918 693 918 689.5 970 c 128,-1,161
 686 1022 686 1022 679 1060 c 0,162,163
 675 1074 675 1074 682.5 1113 c 128,-1,164
 690 1152 690 1152 718 1190 c 0,165,166
 732 1204 732 1204 747.5 1218 c 128,-1,167
 763 1232 763 1232 784 1239 c 1,168,169
 802 1249 802 1249 824.5 1254.5 c 0,170,171
 848 1260 848 1260 872 1264 c 1,172,-1
 928 1264 l 1,173,174
 956 1260 956 1260 978.5 1255 c 128,-1,175
 1001 1250 1001 1250 1022 1239 c 0,176,177
 1040 1232 1040 1232 1057 1218 c 128,-1,178
 1074 1204 1074 1204 1085 1190 c 0,179,180
 1117 1152 1117 1152 1122 1113 c 128,-1,181
 1127 1074 1127 1074 1127 1060 c 0,182,183
 1120 1022 1120 1022 1115 969.5 c 0,184,185
 1110 918 1110 918 1116 900 c 0,186,187
 1116 896 1116 896 1118 892.5 c 0,188,189
 1120 890 1120 890 1120 886 c 0,190,191
 1124 879 1124 879 1125.5 868.5 c 128,-1,192
 1127 858 1127 858 1120 826 c 0,193,194
 1110 784 1110 784 1099 763 c 128,-1,195
 1088 742 1088 742 1082 735 c 0,196,197
 1078 731 1078 731 1074.5 726 c 0,198,199
 1071 722 1071 722 1071 718 c 0,200,201
 1071 690 1071 690 1062.5 662 c 128,-1,202
 1054 634 1054 634 1043 616 c 1,203,204
 1036 595 1036 595 1025.5 568.5 c 128,-1,205
 1015 542 1015 542 1015 511 c 0,206,207
 1015 487 1015 487 1022 458.5 c 0,208,209
 1030 430 1030 430 1068 416 c 0,210,211
 1100 406 1100 406 1140 394 c 128,-1,212
 1180 382 1180 382 1218 368 c 256,213,214
 1256 354 1256 354 1293 341.5 c 0,215,216
 1330 328 1330 328 1358 318 c 1,217,218
 1312 272 1312 272 1260 237.5 c 0,219,220
 1208 202 1208 202 1152 178 c 0,221,222
 1092 154 1092 154 1027 140 c 128,-1,223
 962 126 962 126 896 126 c 256,224,225
 830 126 830 126 767 140 c 128,-1,226
 704 154 704 154 644 178 c 256,227,228
 584 202 584 202 533.5 236 c 0,229,230
 484 270 484 270 438 315 c 1,231,-1
 438 315 l 1,130,131
EndSplineSet
EndChar

StartChar: uniE606
Encoding: 58886 58886 10
Width: 1792
Flags: W
LayerCount: 2
Fore
SplineSet
1158 630 m 1,0,-1
 1200 672 l 1,1,-1
 896 976 l 1,2,-1
 592 672 l 1,3,-1
 634 630 l 1,4,-1
 864 861 l 1,5,-1
 864 -84 l 1,6,-1
 928 -84 l 1,7,-1
 928 861 l 1,8,-1
 1158 630 l 1,0,-1
746 214 m 1,9,-1
 746 276 l 1,10,-1
 357 276 l 1,11,-1
 357 1292 l 1,12,-1
 1435 1292 l 1,13,-1
 1435 276 l 1,14,-1
 1046 276 l 1,15,-1
 1046 214 l 1,16,-1
 1494 214 l 1,17,-1
 1494 1351 l 1,18,-1
 298 1351 l 1,19,-1
 298 214 l 1,20,-1
 746 214 l 1,9,-1
EndSplineSet
EndChar

StartChar: uniE607
Encoding: 58887 58887 11
Width: 1792
Flags: W
LayerCount: 2
Fore
SplineSet
1312 816 m 1,0,-1
 567 816 l 1,1,-1
 567 1172 l 2,2,3
 567 1238 567 1238 593.5 1298 c 128,-1,4
 620 1358 620 1358 665 1404 c 0,5,6
 707 1450 707 1450 768.5 1476 c 128,-1,7
 830 1502 830 1502 896 1502 c 256,8,9
 962 1502 962 1502 1023.5 1475.5 c 0,10,11
 1085 1450 1085 1450 1127 1404 c 0,12,13
 1173 1358 1173 1358 1199 1298.5 c 0,14,15
 1225 1238 1225 1238 1225 1172 c 2,16,-1
 1225 1054 l 1,17,-1
 1284 1054 l 1,18,-1
 1284 1172 l 2,19,20
 1284 1252 1284 1252 1253 1322.5 c 0,21,22
 1222 1394 1222 1394 1169 1446 c 256,23,24
 1117 1498 1117 1498 1046.5 1529.5 c 128,-1,25
 976 1561 976 1561 896 1561 c 256,26,27
 816 1561 816 1561 746 1529.5 c 128,-1,28
 676 1498 676 1498 623 1446 c 256,29,30
 571 1394 571 1394 539.5 1323.5 c 0,31,32
 508 1252 508 1252 508 1172 c 2,33,-1
 508 816 l 1,34,-1
 298 816 l 1,35,-1
 298 7 l 1,36,-1
 1494 7 l 1,37,-1
 1494 816 l 1,38,-1
 1312 816 l 1,39,-1
 1312 816 l 1,0,-1
1435 66 m 1,40,-1
 357 66 l 1,41,-1
 357 752 l 1,42,-1
 1435 752 l 1,43,-1
 1435 66 l 1,44,-1
 1435 66 l 1,40,-1
EndSplineSet
EndChar

StartChar: uniE608
Encoding: 58888 58888 12
Width: 1792
Flags: W
LayerCount: 2
Fore
SplineSet
928 1530 m 1,0,-1
 928 1620 l 1,1,-1
 864 1620 l 1,2,-1
 864 1530 l 1,3,4
 686 1523 686 1523 528.5 1451 c 128,-1,5
 371 1379 371 1379 252 1260 c 1,6,7
 136 1138 136 1138 68 978.5 c 0,8,9
 0 818 0 818 0 640 c 0,10,11
 0 616 0 616 2 591.5 c 0,12,13
 4 566 4 566 7 542 c 1,14,-1
 66 546 l 1,15,16
 66 584 66 584 82 616 c 128,-1,17
 98 648 98 648 122 672 c 256,18,19
 146 696 146 696 180 710 c 128,-1,20
 214 724 214 724 248 724 c 0,21,22
 286 724 286 724 321.5 710 c 0,23,24
 358 696 358 696 382 668 c 0,25,26
 406 644 406 644 420 611 c 128,-1,27
 434 578 434 578 434 539 c 1,28,-1
 497 539 l 1,29,30
 497 577 497 577 511 610.5 c 0,31,32
 526 644 526 644 550 668 c 0,33,34
 574 696 574 696 609 710 c 128,-1,35
 644 724 644 724 682 724 c 0,36,37
 717 724 717 724 750.5 710 c 128,-1,38
 784 696 784 696 812 672 c 0,39,40
 836 648 836 648 850 614.5 c 0,41,42
 864 580 864 580 864 542 c 2,43,-1
 864 80 l 2,44,45
 864 52 864 52 875 28 c 128,-1,46
 886 4 886 4 906 -14 c 0,47,48
 924 -32 924 -32 947 -42 c 128,-1,49
 970 -52 970 -52 998 -52 c 256,50,51
 1026 -52 1026 -52 1050 -42 c 128,-1,52
 1074 -32 1074 -32 1092 -14 c 256,53,54
 1110 4 1110 4 1120 28 c 128,-1,55
 1130 52 1130 52 1130 80 c 1,56,-1
 1071 80 l 1,57,58
 1071 48 1071 48 1050 27.5 c 0,59,60
 1030 7 1030 7 998 7 c 0,61,62
 970 7 970 7 949 28 c 0,63,64
 928 48 928 48 928 80 c 2,65,-1
 928 539 l 1,66,-1
 928 539 l 1,67,68
 928 577 928 577 942 610.5 c 128,-1,69
 956 644 956 644 980 668 c 0,70,71
 1004 696 1004 696 1039 710 c 128,-1,72
 1074 724 1074 724 1113 724 c 256,73,74
 1151 724 1151 724 1184.5 710 c 128,-1,75
 1218 696 1218 696 1242 668 c 0,76,77
 1266 644 1266 644 1282 611 c 128,-1,78
 1298 578 1298 578 1298 539 c 1,79,-1
 1358 539 l 1,80,81
 1358 577 1358 577 1372 610.5 c 128,-1,82
 1386 644 1386 644 1410 668 c 0,83,84
 1434 696 1434 696 1469.5 710 c 0,85,86
 1506 724 1506 724 1544 724 c 0,87,88
 1579 724 1579 724 1612 710 c 0,89,90
 1646 696 1646 696 1670 672 c 256,91,92
 1694 648 1694 648 1710 616 c 128,-1,93
 1726 584 1726 584 1726 546 c 1,94,-1
 1785 546 l 1,95,96
 1789 570 1789 570 1790.5 593 c 128,-1,97
 1792 616 1792 616 1792 640 c 0,98,99
 1792 818 1792 818 1724 978 c 128,-1,100
 1656 1138 1656 1138 1540 1260 c 1,101,102
 1421 1379 1421 1379 1263.5 1450.5 c 128,-1,103
 1106 1522 1106 1522 928 1530 c 1,104,-1
 928 1530 l 1,0,-1
1544 784 m 1,105,106
 1509 784 1509 784 1475.5 775 c 128,-1,107
 1442 766 1442 766 1414 749 c 256,108,109
 1386 731 1386 731 1365 708.5 c 128,-1,110
 1344 686 1344 686 1326 654 c 1,111,112
 1312 686 1312 686 1289.5 709 c 128,-1,113
 1267 732 1267 732 1239 749 c 256,114,115
 1211 767 1211 767 1177.5 775.5 c 128,-1,116
 1144 784 1144 784 1113 784 c 0,117,118
 1078 784 1078 784 1045 775 c 128,-1,119
 1012 766 1012 766 984 749 c 256,120,121
 956 731 956 731 935 708.5 c 128,-1,122
 914 686 914 686 896 654 c 1,123,124
 882 686 882 686 859 709 c 128,-1,125
 836 732 836 732 808 749 c 256,126,127
 780 767 780 767 747 775.5 c 128,-1,128
 714 784 714 784 682 784 c 0,129,130
 647 784 647 784 614 775 c 128,-1,131
 581 766 581 766 553 749 c 256,132,133
 525 731 525 731 502.5 708.5 c 128,-1,134
 480 686 480 686 466 654 c 1,135,136
 452 686 452 686 429 709 c 128,-1,137
 406 732 406 732 378 749 c 256,138,139
 350 767 350 767 317 775.5 c 128,-1,140
 284 784 284 784 248 784 c 0,141,142
 220 784 220 784 194 777 c 128,-1,143
 168 770 168 770 144 760 c 256,144,145
 120 750 120 750 100 734 c 128,-1,146
 80 718 80 718 63 696 c 1,147,148
 73 857 73 857 143.5 999 c 128,-1,149
 214 1141 214 1141 326 1246 c 256,150,151
 438 1351 438 1351 585 1410.5 c 128,-1,152
 732 1470 732 1470 896 1470 c 256,153,154
 1060 1470 1060 1470 1207 1410.5 c 128,-1,155
 1354 1351 1354 1351 1466 1246 c 256,156,157
 1578 1141 1578 1141 1648 999.5 c 128,-1,158
 1718 858 1718 858 1729 696 c 1,159,160
 1711 717 1711 717 1692 733 c 0,161,162
 1672 750 1672 750 1648 760 c 256,163,164
 1624 770 1624 770 1598 777 c 128,-1,165
 1572 784 1572 784 1544 784 c 1,166,-1
 1544 784 l 1,105,106
EndSplineSet
EndChar

StartChar: uniE609
Encoding: 58889 58889 13
Width: 1792
Flags: W
LayerCount: 2
Fore
SplineSet
1463 1351 m 1,0,-1
 1166 1351 l 1,1,-1
 1166 1410 l 2,2,3
 1166 1434 1166 1434 1155 1457 c 128,-1,4
 1144 1480 1144 1480 1130 1494 c 0,5,6
 1112 1512 1112 1512 1091.5 1521 c 0,7,8
 1070 1530 1070 1530 1046 1530 c 2,9,-1
 746 1530 l 2,10,11
 722 1530 722 1530 700.5 1521 c 0,12,13
 680 1512 680 1512 662 1494 c 0,14,15
 648 1480 648 1480 637 1457.5 c 0,16,17
 626 1434 626 1434 626 1410 c 2,18,-1
 626 1351 l 1,19,-1
 329 1351 l 1,20,-1
 329 1292 l 1,21,-1
 392 1292 l 1,22,-1
 452 158 l 2,23,24
 452 134 452 134 460.5 111 c 0,25,26
 468 88 468 88 486 74 c 1,27,28
 500 56 500 56 523 47 c 128,-1,29
 546 38 546 38 570 38 c 2,30,-1
 1225 38 l 2,31,32
 1249 38 1249 38 1272 47 c 128,-1,33
 1295 56 1295 56 1309 74 c 1,34,35
 1327 88 1327 88 1335.5 110.5 c 0,36,37
 1344 134 1344 134 1344 158 c 2,38,-1
 1404 1292 l 1,39,-1
 1463 1292 l 1,40,-1
 1463 1351 l 1,41,-1
 1463 1351 l 1,0,-1
686 1410 m 1,42,43
 686 1434 686 1434 703.5 1452 c 0,44,45
 722 1470 722 1470 746 1470 c 2,46,-1
 1046 1470 l 2,47,48
 1070 1470 1070 1470 1088 1452.5 c 0,49,50
 1106 1434 1106 1434 1106 1410 c 2,51,-1
 1106 1351 l 1,52,-1
 686 1351 l 1,53,-1
 686 1410 l 1,54,-1
 686 1410 l 1,42,43
1284 161 m 1,55,-1
 1284 158 l 1,56,-1
 1284 158 l 1,57,58
 1284 134 1284 134 1267 116 c 128,-1,59
 1250 98 1250 98 1225 98 c 2,60,-1
 570 98 l 2,61,62
 546 98 546 98 528.5 115.5 c 0,63,64
 511 134 511 134 511 158 c 1,65,-1
 511 158 l 1,66,-1
 511 161 l 1,67,-1
 452 1292 l 1,68,-1
 1344 1292 l 1,69,-1
 1284 161 l 1,70,-1
 1284 161 l 1,55,-1
864 1172 m 1,71,-1
 928 1172 l 1,72,-1
 928 217 l 1,73,-1
 864 217 l 1,74,-1
 864 1172 l 1,75,-1
 864 1172 l 1,71,-1
749 217 m 1,76,-1
 686 1172 l 1,77,-1
 626 1169 l 1,78,-1
 690 214 l 1,79,-1
 749 217 l 1,76,-1
1166 1169 m 1,80,-1
 1106 1172 l 1,81,-1
 1046 217 l 1,82,-1
 1106 214 l 1,83,-1
 1166 1169 l 1,80,-1
EndSplineSet
EndChar

StartChar: uniE60A
Encoding: 58890 58890 14
Width: 1792
Flags: W
LayerCount: 2
Fore
SplineSet
1656 238 m 1,0,-1
 1337 553 l 1,1,-1
 1379 595 l 1,2,-1
 1337 637 l 1,3,-1
 1211 511 l 1,4,-1
 1001 724 l 1,5,-1
 1253 976 l 1,6,7
 1277 969 1277 969 1303.5 964 c 128,-1,8
 1330 959 1330 959 1358 959 c 0,9,10
 1390 959 1390 959 1419.5 964.5 c 128,-1,11
 1449 970 1449 970 1477 984 c 0,12,13
 1505 994 1505 994 1531.5 1011.5 c 128,-1,14
 1558 1029 1558 1029 1578 1050 c 0,15,16
 1613 1085 1613 1085 1636 1127 c 0,17,18
 1659 1168 1659 1168 1666 1214 c 1,19,20
 1676 1256 1676 1256 1671 1303.5 c 0,21,22
 1666 1350 1666 1350 1645 1396 c 2,23,-1
 1628 1435 l 1,24,-1
 1491 1302 l 1,25,-1
 1382 1298 l 1,26,-1
 1386 1404 l 1,27,-1
 1522 1544 l 1,28,-1
 1484 1561 l 1,29,30
 1466 1565 1466 1565 1452 1570 c 0,31,32
 1438 1574 1438 1574 1421 1578 c 0,33,34
 1407 1582 1407 1582 1391.5 1584 c 128,-1,35
 1376 1586 1376 1586 1358 1586 c 0,36,37
 1326 1586 1326 1586 1296.5 1580.5 c 128,-1,38
 1267 1575 1267 1575 1239 1561 c 0,39,40
 1211 1551 1211 1551 1184.5 1533.5 c 128,-1,41
 1158 1516 1158 1516 1138 1494 c 0,42,43
 1103 1459 1103 1459 1081.5 1420.5 c 128,-1,44
 1060 1382 1060 1382 1054 1340 c 0,45,46
 1044 1298 1044 1298 1045 1254.5 c 0,47,48
 1046 1212 1046 1212 1064 1166 c 1,49,-1
 808 914 l 1,50,-1
 452 1270 l 1,51,-1
 494 1312 l 1,52,-1
 259 1547 l 1,53,-1
 133 1421 l 1,54,-1
 368 1186 l 1,55,-1
 410 1228 l 1,56,-1
 766 872 l 1,57,-1
 514 616 l 1,58,59
 486 626 486 626 460 631.5 c 128,-1,60
 434 637 434 637 410 637 c 0,61,62
 378 637 378 637 346.5 630 c 0,63,64
 315 622 315 622 287 612 c 0,65,66
 259 598 259 598 234.5 582.5 c 0,67,68
 210 566 210 566 186 542 c 0,69,70
 151 510 151 510 129.5 468.5 c 0,71,72
 108 428 108 428 102 382 c 0,73,74
 92 336 92 336 97 289 c 128,-1,75
 102 242 102 242 119 196 c 2,76,-1
 136 158 l 1,77,-1
 276 298 l 1,78,-1
 382 298 l 1,79,-1
 382 189 l 1,80,-1
 245 52 l 1,81,-1
 284 35 l 2,82,83
 298 28 298 28 313.5 23 c 0,84,85
 328 18 328 18 346 14 c 0,86,87
 360 10 360 10 376 8.5 c 128,-1,88
 392 7 392 7 410 7 c 0,89,90
 442 7 442 7 471 14 c 0,91,92
 500 22 500 22 528 32 c 0,93,94
 556 46 556 46 582.5 61.5 c 0,95,96
 609 78 609 78 630 102 c 0,97,98
 662 134 662 134 683 172 c 128,-1,99
 704 210 704 210 714 252 c 0,100,101
 724 298 724 298 721 341.5 c 128,-1,102
 718 385 718 385 704 427 c 1,103,-1
 956 682 l 1,104,-1
 1169 469 l 1,105,-1
 1043 343 l 1,106,-1
 1085 301 l 1,107,-1
 1127 343 l 1,108,-1
 1442 28 l 2,109,110
 1452 18 1452 18 1464.5 9 c 128,-1,111
 1477 0 1477 0 1491 -7 c 0,112,113
 1505 -11 1505 -11 1519 -14.5 c 128,-1,114
 1533 -18 1533 -18 1547 -18 c 0,115,116
 1565 -18 1565 -18 1578.5 -14 c 128,-1,117
 1592 -10 1592 -10 1606 -7 c 0,118,119
 1620 0 1620 0 1632.5 9 c 0,120,121
 1646 18 1646 18 1656 28 c 0,122,123
 1677 49 1677 49 1687.5 75.5 c 128,-1,124
 1698 102 1698 102 1698 133 c 0,125,126
 1698 161 1698 161 1687 189 c 128,-1,127
 1676 217 1676 217 1656 238 c 1,128,-1
 1656 238 l 1,0,-1
217 1421 m 1,129,-1
 259 1463 l 1,130,-1
 410 1312 l 1,131,-1
 368 1270 l 1,132,-1
 217 1421 l 1,133,-1
 217 1421 l 1,129,-1
640 424 m 1,134,135
 658 386 658 386 661.5 349 c 128,-1,136
 665 312 665 312 658 273 c 0,137,138
 651 238 651 238 633.5 205 c 128,-1,139
 616 172 616 172 588 144 c 0,140,141
 570 126 570 126 549 112 c 128,-1,142
 528 98 528 98 504 88 c 0,143,144
 483 78 483 78 458.5 74 c 128,-1,145
 434 70 434 70 410 70 c 0,146,147
 396 70 396 70 380 70 c 128,-1,148
 364 70 364 70 350 74 c 1,149,-1
 438 161 l 1,150,-1
 441 357 l 1,151,-1
 252 357 l 1,152,-1
 161 266 l 1,153,154
 154 298 154 298 154 329 c 128,-1,155
 154 360 154 360 164 392 c 0,156,157
 171 420 171 420 188.5 450 c 128,-1,158
 206 480 206 480 228 500 c 0,159,160
 246 518 246 518 266.5 532 c 0,161,162
 288 546 288 546 312 556 c 0,163,164
 333 566 333 566 357.5 570 c 128,-1,165
 382 574 382 574 410 574 c 0,166,167
 434 574 434 574 460 569 c 128,-1,168
 486 564 486 564 508 556 c 2,169,-1
 528 546 l 1,170,-1
 1134 1152 l 1,171,-1
 1127 1172 l 1,172,173
 1109 1207 1109 1207 1105.5 1245.5 c 128,-1,174
 1102 1284 1102 1284 1110 1320 c 0,175,176
 1117 1358 1117 1358 1134.5 1391 c 128,-1,177
 1152 1424 1152 1424 1180 1452 c 0,178,179
 1198 1470 1198 1470 1218.5 1484 c 128,-1,180
 1239 1498 1239 1498 1260 1505 c 0,181,182
 1284 1515 1284 1515 1309 1520.5 c 128,-1,183
 1334 1526 1334 1526 1358 1526 c 0,184,185
 1372 1526 1372 1526 1386 1524 c 128,-1,186
 1400 1522 1400 1522 1414 1519 c 1,187,-1
 1326 1428 l 1,188,-1
 1323 1239 l 1,189,-1
 1519 1242 l 1,190,-1
 1606 1330 l 1,191,192
 1613 1298 1613 1298 1611.5 1265 c 128,-1,193
 1610 1232 1610 1232 1603 1204 c 0,194,195
 1593 1172 1593 1172 1577 1144 c 0,196,197
 1560 1116 1560 1116 1536 1092 c 0,198,199
 1518 1074 1518 1074 1497.5 1060 c 128,-1,200
 1477 1046 1477 1046 1456 1036 c 1,201,202
 1432 1029 1432 1029 1407 1023.5 c 128,-1,203
 1382 1018 1382 1018 1358 1018 c 256,204,205
 1334 1018 1334 1018 1307.5 1023.5 c 0,206,207
 1280 1030 1280 1030 1256 1040 c 2,208,-1
 1239 1046 l 1,209,-1
 634 441 l 1,210,-1
 640 424 l 1,211,-1
 640 424 l 1,134,135
1610 70 m 1,212,213
 1600 56 1600 56 1582 49 c 128,-1,214
 1564 42 1564 42 1547 42 c 256,215,216
 1529 42 1529 42 1513.5 49 c 128,-1,217
 1498 56 1498 56 1484 70 c 2,218,-1
 1169 385 l 1,219,-1
 1295 511 l 1,220,-1
 1610 196 l 2,221,222
 1624 182 1624 182 1631 166 c 128,-1,223
 1638 150 1638 150 1638 133 c 256,224,225
 1638 115 1638 115 1631 97.5 c 128,-1,226
 1624 80 1624 80 1610 70 c 1,227,-1
 1610 70 l 1,212,213
EndSplineSet
EndChar

StartChar: uniE60B
Encoding: 58891 58891 15
Width: 1792
Flags: W
LayerCount: 2
Fore
SplineSet
822 732 m 1,0,1
 824 730 l 0,2,-1
 826 728 l 2,3,4
 840 714 840 714 857.5 703.5 c 128,-1,5
 875 693 875 693 896 693 c 0,6,7
 914 693 914 693 931 700 c 128,-1,8
 948 707 948 707 959 721 c 1,9,10
 973 731 973 731 980 748.5 c 128,-1,11
 987 766 987 766 987 784 c 0,12,13
 987 805 987 805 978.5 820.5 c 128,-1,14
 970 836 970 836 956 850 c 1,15,16
 954 854 l 0,17,18
 952 858 952 858 948 858 c 2,19,-1
 584 1134 l 2,20,21
 577 1141 577 1141 566.5 1141 c 128,-1,22
 556 1141 556 1141 550 1134 c 0,23,24
 540 1127 540 1127 538 1114.5 c 128,-1,25
 536 1102 536 1102 542 1092 c 2,26,-1
 822 732 l 1,27,-1
 822 732 l 1,0,1
896 1530 m 1,28,29
 889 1530 889 1530 882 1530 c 128,-1,30
 875 1530 875 1530 868 1530 c 1,31,-1
 868 1498 l 1,32,-1
 864 1498 l 1,33,-1
 864 1172 l 1,34,-1
 928 1172 l 1,35,-1
 928 1470 l 1,36,37
 1064 1463 1064 1463 1183 1407 c 128,-1,38
 1302 1351 1302 1351 1390 1260 c 0,39,40
 1481 1166 1481 1166 1531.5 1043 c 128,-1,41
 1582 920 1582 920 1582 784 c 0,42,43
 1582 640 1582 640 1528 516 c 128,-1,44
 1474 392 1474 392 1382 298 c 1,45,46
 1288 207 1288 207 1164 152.5 c 128,-1,47
 1040 98 1040 98 896 98 c 256,48,49
 752 98 752 98 628 152 c 128,-1,50
 504 206 504 206 410 298 c 1,51,52
 319 392 319 392 264.5 516 c 128,-1,53
 210 640 210 640 210 784 c 0,54,55
 210 854 210 854 224 922 c 128,-1,56
 238 990 238 990 262 1050 c 0,57,58
 290 1113 290 1113 327 1167.5 c 128,-1,59
 364 1222 364 1222 410 1270 c 1,60,-1
 368 1312 l 1,61,62
 319 1260 319 1260 278.5 1200.5 c 0,63,64
 238 1140 238 1140 210 1074 c 0,65,66
 178 1008 178 1008 164 934.5 c 128,-1,67
 150 861 150 861 150 784 c 0,68,69
 150 630 150 630 208 493.5 c 0,70,71
 266 358 266 358 368 256 c 256,72,73
 470 154 470 154 606 96 c 128,-1,74
 742 38 742 38 896 38 c 256,75,76
 1050 38 1050 38 1186.5 96 c 0,77,78
 1322 154 1322 154 1424 256 c 256,79,80
 1526 358 1526 358 1584 494 c 128,-1,81
 1642 630 1642 630 1642 784 c 256,82,83
 1642 938 1642 938 1584 1074.5 c 0,84,85
 1526 1210 1526 1210 1424 1312 c 256,86,87
 1322 1414 1322 1414 1186 1472 c 128,-1,88
 1050 1530 1050 1530 896 1530 c 1,89,-1
 896 1530 l 1,28,29
EndSplineSet
EndChar

StartChar: uniE60C
Encoding: 58892 58892 16
Width: 1792
Flags: W
LayerCount: 2
Fore
SplineSet
1390 1589 m 1,0,-1
 994 1589 l 1,1,-1
 91 690 l 1,2,-1
 798 -21 l 1,3,-1
 1701 878 l 1,4,-1
 1701 1278 l 1,5,-1
 1390 1589 l 1,6,-1
 1390 1589 l 1,0,-1
1642 903 m 1,7,-1
 798 63 l 1,8,-1
 175 690 l 1,9,-1
 1018 1530 l 1,10,-1
 1362 1530 l 1,11,-1
 1642 1253 l 1,12,-1
 1642 903 l 1,13,-1
 1642 903 l 1,7,-1
1225 1232 m 1,14,15
 1225 1208 1225 1208 1233.5 1187 c 128,-1,16
 1242 1166 1242 1166 1260 1148 c 256,17,18
 1278 1130 1278 1130 1299 1121.5 c 128,-1,19
 1320 1113 1320 1113 1344 1113 c 256,20,21
 1368 1113 1368 1113 1389 1121.5 c 128,-1,22
 1410 1130 1410 1130 1428 1148 c 256,23,24
 1446 1166 1446 1166 1454.5 1187 c 128,-1,25
 1463 1208 1463 1208 1463 1232 c 256,26,27
 1463 1256 1463 1256 1454.5 1277 c 128,-1,28
 1446 1298 1446 1298 1428 1316 c 256,29,30
 1410 1334 1410 1334 1389 1342.5 c 128,-1,31
 1368 1351 1368 1351 1344 1351 c 256,32,33
 1320 1351 1320 1351 1299 1342.5 c 128,-1,34
 1278 1334 1278 1334 1260 1316 c 256,35,36
 1242 1298 1242 1298 1233.5 1277 c 128,-1,37
 1225 1256 1225 1256 1225 1232 c 1,38,-1
 1225 1232 l 1,14,15
1404 1232 m 1,39,40
 1404 1208 1404 1208 1386 1190 c 128,-1,41
 1368 1172 1368 1172 1344 1172 c 256,42,43
 1320 1172 1320 1172 1302 1190 c 128,-1,44
 1284 1208 1284 1208 1284 1232 c 256,45,46
 1284 1256 1284 1256 1302 1274 c 128,-1,47
 1320 1292 1320 1292 1344 1292 c 256,48,49
 1368 1292 1368 1292 1386 1274 c 128,-1,50
 1404 1256 1404 1256 1404 1232 c 1,51,-1
 1404 1232 l 1,39,40
EndSplineSet
EndChar

StartChar: uniE60D
Encoding: 58893 58893 17
Width: 1792
Flags: W
LayerCount: 2
Fore
SplineSet
900 1032 m 1,0,1
 851 1032 851 1032 807 1013 c 0,2,3
 764 994 764 994 732 962 c 0,4,5
 697 930 697 930 679.5 887 c 128,-1,6
 662 844 662 844 662 794 c 256,7,8
 662 745 662 745 679 701.5 c 128,-1,9
 696 658 696 658 732 623 c 0,10,11
 764 591 764 591 807 572 c 128,-1,12
 850 553 850 553 900 553 c 256,13,14
 949 553 949 553 992.5 572.5 c 128,-1,15
 1036 592 1036 592 1068 623 c 0,16,17
 1100 658 1100 658 1119 702 c 128,-1,18
 1138 746 1138 746 1138 794 c 256,19,20
 1138 843 1138 843 1118.5 887 c 0,21,22
 1100 930 1100 930 1068 962 c 256,23,24
 1036 994 1036 994 992 1013 c 128,-1,25
 948 1032 948 1032 900 1032 c 1,26,-1
 900 1032 l 1,0,1
900 612 m 1,27,28
 862 612 862 612 830 628 c 128,-1,29
 798 644 798 644 774 665 c 0,30,31
 750 689 750 689 735.5 722.5 c 128,-1,32
 721 756 721 756 721 794 c 0,33,34
 721 829 721 829 735 862.5 c 0,35,36
 750 896 750 896 774 920 c 256,37,38
 798 944 798 944 829.5 958.5 c 0,39,40
 862 973 862 973 900 973 c 0,41,42
 935 973 935 973 968 959 c 0,43,44
 1002 944 1002 944 1026 920 c 256,45,46
 1050 896 1050 896 1064 863 c 128,-1,47
 1078 830 1078 830 1078 794 c 0,48,49
 1078 756 1078 756 1064 723 c 128,-1,50
 1050 690 1050 690 1026 665 c 0,51,52
 1002 644 1002 644 968 628 c 128,-1,53
 934 612 934 612 900 612 c 1,54,-1
 900 612 l 1,27,28
900 1270 m 1,55,56
 802 1270 802 1270 714 1233.5 c 0,57,58
 626 1196 626 1196 560 1130 c 0,59,60
 497 1067 497 1067 458.5 979.5 c 128,-1,61
 420 892 420 892 420 794 c 0,62,63
 420 692 420 692 458.5 607 c 128,-1,64
 497 522 497 522 560 455 c 1,65,66
 626 392 626 392 714 353.5 c 128,-1,67
 802 315 802 315 900 315 c 256,68,69
 998 315 998 315 1085 353.5 c 128,-1,70
 1172 392 1172 392 1236 455 c 0,71,72
 1302 521 1302 521 1339 607 c 0,73,74
 1376 692 1376 692 1376 794 c 0,75,76
 1376 892 1376 892 1339 980 c 128,-1,77
 1302 1068 1302 1068 1236 1130 c 1,78,79
 1173 1196 1173 1196 1085.5 1233 c 128,-1,80
 998 1270 998 1270 900 1270 c 1,81,-1
 900 1270 l 1,55,56
900 374 m 1,82,83
 812 374 812 374 737 407.5 c 128,-1,84
 662 441 662 441 602 497 c 0,85,86
 546 553 546 553 513 630 c 0,87,88
 480 706 480 706 480 794 c 0,89,90
 480 878 480 878 513 955 c 128,-1,91
 546 1032 546 1032 602 1088 c 0,92,93
 662 1144 662 1144 737 1177.5 c 128,-1,94
 812 1211 812 1211 900 1211 c 256,95,96
 988 1211 988 1211 1063 1177.5 c 128,-1,97
 1138 1144 1138 1144 1194 1088 c 0,98,99
 1254 1032 1254 1032 1285 955 c 128,-1,100
 1316 878 1316 878 1316 794 c 0,101,102
 1316 706 1316 706 1284.5 629.5 c 0,103,104
 1254 553 1254 553 1194 497 c 0,105,106
 1138 441 1138 441 1062.5 407.5 c 0,107,108
 988 374 988 374 900 374 c 1,109,-1
 900 374 l 1,82,83
1614 794 m 1,110,111
 1614 941 1614 941 1558 1072.5 c 128,-1,112
 1502 1204 1502 1204 1404 1298 c 0,113,114
 1306 1396 1306 1396 1174.5 1452 c 128,-1,115
 1043 1508 1043 1508 896 1508 c 256,116,117
 749 1508 749 1508 617.5 1452 c 128,-1,118
 486 1396 486 1396 388 1298 c 0,119,120
 290 1204 290 1204 234 1073 c 128,-1,121
 178 942 178 942 178 794 c 0,122,123
 178 710 178 710 196 633 c 128,-1,124
 214 556 214 556 248 490 c 1,125,126
 280 420 280 420 327 359 c 128,-1,127
 374 298 374 298 430 248 c 1,128,-1
 308 94 l 1,129,-1
 354 60 l 1,130,-1
 476 210 l 1,131,132
 522 178 522 178 571 154 c 128,-1,133
 620 130 620 130 672 112 c 256,134,135
 724 94 724 94 780 85.5 c 128,-1,136
 836 77 836 77 896 77 c 256,137,138
 956 77 956 77 1012 85.5 c 128,-1,139
 1068 94 1068 94 1120 112 c 256,140,141
 1172 130 1172 130 1219.5 154 c 0,142,143
 1266 178 1266 178 1312 210 c 1,144,-1
 1435 60 l 1,145,-1
 1480 94 l 1,146,-1
 1362 248 l 1,147,148
 1418 297 1418 297 1465 356.5 c 128,-1,149
 1512 416 1512 416 1544 486 c 0,150,151
 1579 556 1579 556 1596.5 633 c 128,-1,152
 1614 710 1614 710 1614 794 c 1,153,-1
 1614 794 l 1,110,111
238 794 m 1,154,155
 238 927 238 927 290.5 1048 c 0,156,157
 342 1168 342 1168 430 1256 c 0,158,159
 521 1347 521 1347 640.5 1398 c 128,-1,160
 760 1449 760 1449 896 1449 c 256,161,162
 1032 1449 1032 1449 1151 1398.5 c 128,-1,163
 1270 1348 1270 1348 1362 1256 c 0,164,165
 1450 1168 1450 1168 1502 1048 c 128,-1,166
 1554 928 1554 928 1554 794 c 0,167,168
 1554 658 1554 658 1501.5 539 c 0,169,170
 1450 420 1450 420 1362 329 c 1,171,172
 1271 241 1271 241 1151.5 188.5 c 128,-1,173
 1032 136 1032 136 896 136 c 256,174,175
 760 136 760 136 641 189 c 128,-1,176
 522 242 522 242 430 329 c 1,177,178
 342 420 342 420 290 539 c 128,-1,179
 238 658 238 658 238 794 c 1,180,-1
 238 794 l 1,154,155
EndSplineSet
EndChar

StartChar: uniE60E
Encoding: 58894 58894 18
Width: 1792
Flags: W
LayerCount: 2
Fore
SplineSet
896 1232 m 1,0,1
 802 1232 802 1232 721 1197 c 128,-1,2
 640 1162 640 1162 581 1099 c 1,3,4
 518 1039 518 1039 483 957 c 128,-1,5
 448 875 448 875 448 784 c 0,6,7
 448 690 448 690 483 609 c 128,-1,8
 518 528 518 528 581 466 c 0,9,10
 641 406 641 406 721.5 371 c 128,-1,11
 802 336 802 336 896 336 c 0,12,13
 987 336 987 336 1069.5 371 c 128,-1,14
 1152 406 1152 406 1211 466 c 0,15,16
 1274 529 1274 529 1309 609.5 c 128,-1,17
 1344 690 1344 690 1344 784 c 0,18,19
 1344 875 1344 875 1309 957.5 c 128,-1,20
 1274 1040 1274 1040 1211 1099 c 1,21,22
 1151 1162 1151 1162 1069 1197 c 128,-1,23
 987 1232 987 1232 896 1232 c 1,24,-1
 896 1232 l 1,0,1
896 396 m 1,25,26
 816 396 816 396 746 425.5 c 128,-1,27
 676 455 676 455 623 511 c 0,28,29
 571 563 571 563 539.5 633.5 c 128,-1,30
 508 704 508 704 508 784 c 256,31,32
 508 864 508 864 539 934 c 128,-1,33
 570 1004 570 1004 623 1057 c 256,34,35
 675 1109 675 1109 745.5 1140.5 c 128,-1,36
 816 1172 816 1172 896 1172 c 256,37,38
 976 1172 976 1172 1046 1141 c 128,-1,39
 1116 1110 1116 1110 1169 1057 c 256,40,41
 1221 1005 1221 1005 1252.5 934.5 c 128,-1,42
 1284 864 1284 864 1284 784 c 256,43,44
 1284 704 1284 704 1253 634 c 128,-1,45
 1222 564 1222 564 1169 511 c 0,46,47
 1117 455 1117 455 1046.5 425.5 c 128,-1,48
 976 396 976 396 896 396 c 1,49,-1
 896 396 l 1,25,26
868 1680 m 1,50,-1
 928 1680 l 1,51,-1
 928 1320 l 1,52,-1
 868 1320 l 1,53,-1
 868 1680 l 1,54,-1
 868 1680 l 1,50,-1
868 245 m 1,55,-1
 928 245 l 1,56,-1
 928 -112 l 1,57,-1
 868 -112 l 1,58,-1
 868 245 l 1,59,-1
 868 245 l 1,55,-1
0 816 m 1,60,-1
 357 816 l 1,61,-1
 357 752 l 1,62,-1
 0 752 l 1,63,-1
 0 816 l 1,64,-1
 0 816 l 1,60,-1
1435 816 m 1,65,-1
 1792 816 l 1,66,-1
 1792 752 l 1,67,-1
 1435 752 l 1,68,-1
 1435 816 l 1,69,-1
 1435 816 l 1,65,-1
1508 1442 m 1,70,-1
 1550 1396 l 1,71,-1
 1302 1148 l 1,72,-1
 1260 1190 l 1,73,-1
 1508 1442 l 1,74,-1
 1508 1442 l 1,70,-1
284 133 m 1,75,-1
 242 175 l 1,76,-1
 490 424 l 1,77,-1
 532 382 l 1,78,-1
 284 133 l 1,79,-1
 284 133 l 1,75,-1
284 1442 m 1,80,-1
 532 1190 l 1,81,-1
 490 1148 l 1,82,-1
 242 1396 l 1,83,-1
 284 1442 l 1,84,-1
 284 1442 l 1,80,-1
1508 133 m 1,85,-1
 1260 382 l 1,86,-1
 1302 424 l 1,87,-1
 1550 175 l 1,88,-1
 1508 133 l 1,89,-1
 1508 133 l 1,85,-1
EndSplineSet
EndChar

StartChar: uniE60F
Encoding: 58895 58895 19
Width: 1792
Flags: W
LayerCount: 2
Fore
SplineSet
1764 1054 m 1,0,-1
 896 1474 l 1,1,-1
 28 1054 l 1,2,-1
 150 980 l 1,3,-1
 150 336 l 1,4,-1
 210 336 l 1,5,-1
 210 945 l 1,6,-1
 388 836 l 1,7,-1
 388 94 l 1,8,-1
 1404 94 l 1,9,-1
 1404 836 l 1,10,-1
 1764 1054 l 1,11,-1
 1764 1054 l 1,0,-1
896 1407 m 1,12,-1
 1638 1046 l 1,13,-1
 896 598 l 1,14,-1
 154 1046 l 1,15,-1
 896 1407 l 1,16,-1
 896 1407 l 1,12,-1
1344 154 m 1,17,-1
 448 154 l 1,18,-1
 448 802 l 1,19,-1
 896 528 l 1,20,-1
 1344 802 l 1,21,-1
 1344 154 l 1,22,-1
 1344 154 l 1,17,-1
EndSplineSet
EndChar

StartChar: uniE610
Encoding: 58896 58896 20
Width: 1792
Flags: W
LayerCount: 2
Fore
SplineSet
1404 1190 m 1,0,-1
 1452 1239 l 1,1,-1
 1505 1186 l 1,2,-1
 1568 1250 l 1,3,-1
 1421 1396 l 1,4,-1
 1358 1334 l 1,5,-1
 1410 1281 l 1,6,-1
 1362 1232 l 1,7,8
 1320 1270 1320 1270 1271 1300 c 128,-1,9
 1222 1330 1222 1330 1169 1354 c 256,10,11
 1117 1378 1117 1378 1059 1392.5 c 0,12,13
 1002 1406 1002 1406 942 1410 c 1,14,-1
 942 1530 l 1,15,-1
 850 1530 l 1,16,-1
 850 1410 l 1,17,18
 717 1400 717 1400 600 1344 c 0,19,20
 484 1288 484 1288 396 1194 c 0,21,22
 308 1103 308 1103 259 982 c 0,23,24
 210 860 210 860 210 724 c 0,25,26
 210 580 210 580 264 456 c 128,-1,27
 318 332 318 332 410 238 c 1,28,29
 504 147 504 147 628 92.5 c 128,-1,30
 752 38 752 38 896 38 c 256,31,32
 1040 38 1040 38 1164 92.5 c 128,-1,33
 1288 147 1288 147 1382 238 c 1,34,35
 1473 332 1473 332 1527.5 456.5 c 0,36,37
 1582 580 1582 580 1582 724 c 0,38,39
 1582 790 1582 790 1570 855 c 128,-1,40
 1558 920 1558 920 1533 976 c 1,41,42
 1512 1036 1512 1036 1479 1088.5 c 128,-1,43
 1446 1141 1446 1141 1404 1190 c 1,44,-1
 1404 1190 l 1,0,-1
896 98 m 1,45,46
 766 98 766 98 652.5 147 c 0,47,48
 540 196 540 196 452 280 c 1,49,50
 368 368 368 368 319 481.5 c 0,51,52
 270 594 270 594 270 724 c 256,53,54
 270 854 270 854 319 968 c 128,-1,55
 368 1082 368 1082 452 1169 c 1,56,57
 540 1253 540 1253 653 1302 c 128,-1,58
 766 1351 766 1351 896 1351 c 256,59,60
 1026 1351 1026 1351 1139.5 1302 c 0,61,62
 1252 1253 1252 1253 1340 1169 c 1,63,64
 1424 1081 1424 1081 1473 967.5 c 128,-1,65
 1522 854 1522 854 1522 724 c 256,66,67
 1522 594 1522 594 1473 481 c 128,-1,68
 1424 368 1424 368 1340 280 c 1,69,70
 1252 196 1252 196 1139 147 c 128,-1,71
 1026 98 1026 98 896 98 c 1,72,-1
 896 98 l 1,45,46
928 808 m 1,73,-1
 928 1200 l 1,74,-1
 864 1200 l 1,75,-1
 864 808 l 1,76,77
 840 798 840 798 822.5 775 c 128,-1,78
 805 752 805 752 805 724 c 256,79,80
 805 696 805 696 822.5 673.5 c 0,81,82
 840 650 840 650 864 640 c 1,83,-1
 864 514 l 1,84,-1
 928 514 l 1,85,-1
 928 640 l 1,86,87
 952 650 952 650 969.5 673 c 128,-1,88
 987 696 987 696 987 724 c 256,89,90
 987 752 987 752 969.5 775 c 128,-1,91
 952 798 952 798 928 808 c 1,92,-1
 928 808 l 1,73,-1
EndSplineSet
EndChar

StartChar: uniE611
Encoding: 58897 58897 21
Width: 1792
Flags: W
LayerCount: 2
Fore
SplineSet
1085 962 m 1,0,-1
 896 1547 l 1,1,-1
 707 962 l 1,2,-1
 91 962 l 1,3,-1
 588 606 l 1,4,-1
 399 21 l 1,5,-1
 896 385 l 1,6,-1
 1393 21 l 1,7,-1
 1204 606 l 1,8,-1
 1701 962 l 1,9,-1
 1085 962 l 1,10,-1
 1085 962 l 1,0,-1
1144 584 m 1,11,-1
 1281 178 l 1,12,-1
 896 458 l 1,13,-1
 511 178 l 1,14,-1
 662 626 l 1,15,-1
 623 654 l 1,16,-1
 276 903 l 1,17,-1
 749 903 l 1,18,-1
 896 1351 l 1,19,-1
 1043 903 l 1,20,-1
 1516 903 l 1,21,-1
 1130 626 l 1,22,-1
 1144 584 l 1,23,-1
 1144 584 l 1,11,-1
EndSplineSet
EndChar

StartChar: uniE612
Encoding: 58898 58898 22
Width: 1792
Flags: W
LayerCount: 2
Fore
SplineSet
0 990 m 1,0,-1
 0 574 l 1,1,-1
 178 574 l 1,2,-1
 178 214 l 1,3,-1
 238 214 l 1,4,-1
 238 574 l 1,5,-1
 696 574 l 1,6,-1
 1134 220 l 1,7,-1
 1134 1354 l 1,8,-1
 693 990 l 1,9,-1
 0 990 l 1,10,-1
 0 990 l 1,0,-1
60 634 m 1,11,-1
 60 931 l 1,12,-1
 298 931 l 1,13,-1
 298 634 l 1,14,-1
 60 634 l 1,15,-1
 60 634 l 1,11,-1
732 945 m 1,16,-1
 1074 1228 l 1,17,-1
 1074 343 l 1,18,-1
 718 634 l 1,19,-1
 357 634 l 1,20,-1
 357 931 l 1,21,-1
 714 931 l 1,22,-1
 732 945 l 1,23,-1
 732 945 l 1,16,-1
1547 1298 m 1,24,-1
 1505 1256 l 1,25,26
 1557 1214 1557 1214 1599.5 1163.5 c 0,27,28
 1642 1114 1642 1114 1670 1054 c 0,29,30
 1702 991 1702 991 1717 924.5 c 128,-1,31
 1732 858 1732 858 1732 788 c 0,32,33
 1732 714 1732 714 1715 646 c 128,-1,34
 1698 578 1698 578 1666 514 c 0,35,36
 1634 454 1634 454 1590.5 402 c 128,-1,37
 1547 350 1547 350 1491 308 c 1,38,-1
 1536 266 l 1,39,40
 1592 312 1592 312 1641 368 c 128,-1,41
 1690 424 1690 424 1722 490 c 0,42,43
 1757 556 1757 556 1774.5 631.5 c 0,44,45
 1792 708 1792 708 1792 788 c 0,46,47
 1792 865 1792 865 1774.5 938.5 c 0,48,49
 1758 1012 1758 1012 1726 1074 c 0,50,51
 1694 1140 1694 1140 1648.5 1196.5 c 0,52,53
 1603 1252 1603 1252 1547 1298 c 1,54,-1
 1547 1298 l 1,24,-1
1354 1106 m 1,55,-1
 1312 1064 l 1,56,57
 1344 1043 1344 1043 1374 1013.5 c 128,-1,58
 1404 984 1404 984 1421 948 c 0,59,60
 1442 913 1442 913 1452.5 871.5 c 128,-1,61
 1463 830 1463 830 1463 788 c 0,62,63
 1463 742 1463 742 1452.5 700 c 128,-1,64
 1442 658 1442 658 1418 620 c 0,65,66
 1397 585 1397 585 1367 553.5 c 0,67,68
 1336 522 1336 522 1298 500 c 1,69,-1
 1340 458 l 1,70,71
 1382 482 1382 482 1415.5 517.5 c 0,72,73
 1450 553 1450 553 1474 595 c 256,74,75
 1498 637 1498 637 1512 686 c 0,76,77
 1526 736 1526 736 1526 788 c 0,78,79
 1526 837 1526 837 1514 884 c 0,80,81
 1502 932 1502 932 1477 970 c 1,82,83
 1456 1012 1456 1012 1424.5 1047 c 0,84,85
 1392 1082 1392 1082 1354 1106 c 1,86,-1
 1354 1106 l 1,55,-1
EndSplineSet
EndChar

StartChar: uniE613
Encoding: 58899 58899 23
Width: 1792
Flags: W
LayerCount: 2
Fore
SplineSet
896 651 m 1,0,1
 844 651 844 651 802 631.5 c 128,-1,2
 760 612 760 612 724 581 c 1,3,4
 692 546 692 546 673 502 c 128,-1,5
 654 458 654 458 654 410 c 256,6,7
 654 361 654 361 673.5 317 c 0,8,9
 692 274 692 274 724 242 c 0,10,11
 759 210 759 210 801.5 191 c 128,-1,12
 844 172 844 172 896 172 c 0,13,14
 945 172 945 172 987 191 c 128,-1,15
 1029 210 1029 210 1064 242 c 0,16,17
 1096 274 1096 274 1115 317 c 128,-1,18
 1134 360 1134 360 1134 410 c 256,19,20
 1134 459 1134 459 1115 502.5 c 128,-1,21
 1096 546 1096 546 1064 581 c 1,22,23
 1029 613 1029 613 987 632 c 128,-1,24
 945 651 945 651 896 651 c 1,25,-1
 896 651 l 1,0,1
896 231 m 1,26,27
 858 231 858 231 824.5 245 c 0,28,29
 790 260 790 260 766 284 c 256,30,31
 742 308 742 308 728 341 c 128,-1,32
 714 374 714 374 714 410 c 0,33,34
 714 448 714 448 728 481 c 128,-1,35
 742 514 742 514 766 539 c 0,36,37
 790 560 790 560 824 576 c 128,-1,38
 858 592 858 592 896 592 c 0,39,40
 931 592 931 592 964.5 576 c 128,-1,41
 998 560 998 560 1022 539 c 0,42,43
 1046 515 1046 515 1060 481.5 c 128,-1,44
 1074 448 1074 448 1074 410 c 0,45,46
 1074 375 1074 375 1060 341.5 c 128,-1,47
 1046 308 1046 308 1022 284 c 256,48,49
 998 260 998 260 964.5 245.5 c 128,-1,50
 931 231 931 231 896 231 c 1,51,-1
 896 231 l 1,26,27
896 917 m 1,52,53
 819 917 819 917 749 896 c 0,54,55
 680 874 680 874 620 836 c 256,56,57
 560 798 560 798 514.5 745.5 c 0,58,59
 470 693 470 693 438 630 c 1,60,-1
 483 584 l 1,61,62
 507 644 507 644 549.5 695 c 128,-1,63
 592 746 592 746 644 780 c 0,64,65
 696 818 696 818 761 838 c 128,-1,66
 826 858 826 858 896 858 c 0,67,68
 962 858 962 858 1027 838.5 c 0,69,70
 1092 818 1092 818 1144 780 c 0,71,72
 1196 745 1196 745 1238.5 694.5 c 0,73,74
 1282 644 1282 644 1306 584 c 1,75,-1
 1351 630 l 1,76,77
 1319 693 1319 693 1273.5 745.5 c 128,-1,78
 1228 798 1228 798 1169 836 c 256,79,80
 1109 874 1109 874 1039.5 895.5 c 128,-1,81
 970 917 970 917 896 917 c 1,82,-1
 896 917 l 1,52,53
896 1396 m 1,83,84
 774 1396 774 1396 656.5 1366.5 c 0,85,86
 540 1337 540 1337 438 1281 c 0,87,88
 333 1225 333 1225 245.5 1148 c 0,89,90
 158 1070 158 1070 91 976 c 1,91,-1
 133 934 l 1,92,93
 196 1025 196 1025 278 1098.5 c 128,-1,94
 360 1172 360 1172 458 1225 c 256,95,96
 556 1277 556 1277 666.5 1307 c 128,-1,97
 777 1337 777 1337 896 1337 c 256,98,99
 1015 1337 1015 1337 1125.5 1307.5 c 128,-1,100
 1236 1278 1236 1278 1334 1228 c 0,101,102
 1432 1176 1432 1176 1514 1101 c 128,-1,103
 1596 1026 1596 1026 1659 934 c 1,104,-1
 1701 980 l 1,105,106
 1635 1074 1635 1074 1547.5 1151 c 128,-1,107
 1460 1228 1460 1228 1358 1281 c 0,108,109
 1253 1337 1253 1337 1137.5 1366.5 c 128,-1,110
 1022 1396 1022 1396 896 1396 c 1,111,-1
 896 1396 l 1,83,84
896 1158 m 1,112,113
 798 1158 798 1158 703.5 1132 c 0,114,115
 608 1106 608 1106 528 1060 c 256,116,117
 448 1014 448 1014 380 948 c 128,-1,118
 312 882 312 882 262 805 c 1,119,-1
 308 760 l 1,120,121
 350 837 350 837 413 898 c 0,122,123
 476 958 476 958 553 1004 c 256,124,125
 630 1050 630 1050 716 1074.5 c 128,-1,126
 802 1099 802 1099 896 1099 c 256,127,128
 990 1099 990 1099 1078 1074.5 c 128,-1,129
 1166 1050 1166 1050 1239 1004 c 1,130,131
 1316 962 1316 962 1379 901 c 128,-1,132
 1442 840 1442 840 1488 763 c 1,133,-1
 1530 808 l 1,134,135
 1481 885 1481 885 1412.5 950 c 0,136,137
 1344 1014 1344 1014 1264 1060 c 256,138,139
 1184 1106 1184 1106 1091 1132 c 128,-1,140
 998 1158 998 1158 896 1158 c 1,141,-1
 896 1158 l 1,112,113
EndSplineSet
EndChar

StartChar: uniE614
Encoding: 58900 58900 24
Width: 1792
Flags: W
LayerCount: 2
Fore
SplineSet
1334 620 m 1,0,-1
 1530 427 l 1,1,-1
 1176 427 l 1,2,-1
 448 1200 l 1,3,-1
 147 1200 l 1,4,-1
 147 1141 l 1,5,-1
 424 1141 l 1,6,-1
 1152 368 l 1,7,-1
 1530 368 l 1,8,-1
 1334 172 l 1,9,-1
 1376 130 l 1,10,-1
 1645 396 l 1,11,-1
 1376 665 l 1,12,-1
 1334 620 l 1,0,-1
424 427 m 1,13,-1
 147 427 l 1,14,-1
 147 368 l 1,15,-1
 448 368 l 1,16,-1
 738 672 l 1,17,-1
 693 714 l 1,18,-1
 424 427 l 1,13,-1
1176 1141 m 1,19,-1
 1530 1141 l 1,20,-1
 1334 948 l 1,21,-1
 1376 903 l 1,22,-1
 1645 1172 l 1,23,-1
 1376 1438 l 1,24,-1
 1334 1396 l 1,25,-1
 1530 1200 l 1,26,-1
 1152 1200 l 1,27,-1
 861 892 l 1,28,-1
 903 850 l 1,29,-1
 1176 1141 l 1,19,-1
EndSplineSet
EndChar

StartChar: uniE615
Encoding: 58901 58901 25
Width: 1792
Flags: W
LayerCount: 2
Fore
SplineSet
178 1502 m 1,0,-1
 178 66 l 1,1,-1
 1614 66 l 1,2,-1
 1614 1502 l 1,3,-1
 178 1502 l 1,4,-1
 178 1502 l 1,0,-1
1554 126 m 1,5,-1
 238 126 l 1,6,-1
 238 1442 l 1,7,-1
 1554 1442 l 1,8,-1
 1554 126 l 1,9,-1
 1554 126 l 1,5,-1
508 934 m 1,10,11
 508 854 508 854 539 782 c 128,-1,12
 570 710 570 710 623 658 c 256,13,14
 675 606 675 606 745.5 576 c 128,-1,15
 816 546 816 546 896 546 c 256,16,17
 976 546 976 546 1046 576 c 128,-1,18
 1116 606 1116 606 1169 658 c 256,19,20
 1221 710 1221 710 1252.5 782 c 128,-1,21
 1284 854 1284 854 1284 934 c 2,22,-1
 1284 1141 l 1,23,-1
 1344 1141 l 1,24,-1
 1344 1200 l 1,25,-1
 1166 1200 l 1,26,-1
 1166 1141 l 1,27,-1
 1225 1141 l 1,28,-1
 1225 934 l 2,29,30
 1225 864 1225 864 1198.5 805 c 128,-1,31
 1172 746 1172 746 1127 700 c 0,32,33
 1085 658 1085 658 1023.5 632 c 128,-1,34
 962 606 962 606 896 606 c 256,35,36
 830 606 830 606 768.5 632 c 128,-1,37
 707 658 707 658 665 700 c 0,38,39
 619 746 619 746 593 805 c 128,-1,40
 567 864 567 864 567 934 c 2,41,-1
 567 1141 l 1,42,-1
 626 1141 l 1,43,-1
 626 1200 l 1,44,-1
 448 1200 l 1,45,-1
 448 1141 l 1,46,-1
 508 1141 l 1,47,-1
 508 934 l 1,48,-1
 508 934 l 1,10,11
EndSplineSet
EndChar

StartChar: uniE616
Encoding: 58902 58902 26
Width: 1792
Flags: W
LayerCount: 2
Fore
SplineSet
1463 1561 m 1,0,1
 1414 1561 1414 1561 1370 1541.5 c 128,-1,2
 1326 1522 1326 1522 1295 1491 c 256,3,4
 1263 1459 1263 1459 1244 1415.5 c 128,-1,5
 1225 1372 1225 1372 1225 1323 c 0,6,7
 1225 1305 1225 1305 1226.5 1287.5 c 128,-1,8
 1228 1270 1228 1270 1236 1256 c 1,9,-1
 536 962 l 1,10,11
 522 990 522 990 499 1011 c 128,-1,12
 476 1032 476 1032 452 1050 c 1,13,14
 424 1064 424 1064 392 1073 c 128,-1,15
 360 1082 360 1082 329 1082 c 0,16,17
 280 1082 280 1082 236 1064 c 128,-1,18
 192 1046 192 1046 161 1012 c 1,19,20
 126 980 126 980 108.5 936 c 128,-1,21
 91 892 91 892 91 844 c 256,22,23
 91 795 91 795 108.5 751 c 0,24,25
 126 708 126 708 161 676 c 0,26,27
 193 644 193 644 236.5 625 c 128,-1,28
 280 606 280 606 329 606 c 0,29,30
 353 606 353 606 377.5 611 c 128,-1,31
 402 616 402 616 427 626 c 0,32,33
 448 636 448 636 467 650.5 c 0,34,35
 486 664 486 664 504 682 c 1,36,-1
 952 357 l 1,37,38
 948 347 948 347 943 332.5 c 128,-1,39
 938 318 938 318 934 304 c 256,40,41
 930 290 930 290 929 276 c 128,-1,42
 928 262 928 262 928 245 c 0,43,44
 928 196 928 196 945 152 c 128,-1,45
 962 108 962 108 998 77 c 0,46,47
 1030 45 1030 45 1073 26 c 128,-1,48
 1116 7 1116 7 1166 7 c 256,49,50
 1215 7 1215 7 1258.5 26.5 c 128,-1,51
 1302 46 1302 46 1334 77 c 256,52,53
 1366 109 1366 109 1385 152.5 c 128,-1,54
 1404 196 1404 196 1404 245 c 0,55,56
 1404 297 1404 297 1384.5 339.5 c 0,57,58
 1366 382 1366 382 1334 416 c 0,59,60
 1302 448 1302 448 1258 467 c 128,-1,61
 1214 486 1214 486 1166 486 c 0,62,63
 1138 486 1138 486 1113 481 c 128,-1,64
 1088 476 1088 476 1068 466 c 0,65,66
 1044 456 1044 456 1024 440 c 128,-1,67
 1004 424 1004 424 987 406 c 1,68,-1
 539 728 l 1,69,70
 546 742 546 742 551 756 c 128,-1,71
 556 770 556 770 560 784 c 256,72,73
 564 798 564 798 565.5 814 c 128,-1,74
 567 830 567 830 567 844 c 0,75,76
 567 862 567 862 565.5 877 c 128,-1,77
 564 892 564 892 560 906 c 1,78,-1
 1256 1200 l 1,79,80
 1274 1172 1274 1172 1295 1151 c 128,-1,81
 1316 1130 1316 1130 1344 1116 c 1,82,83
 1368 1098 1368 1098 1400 1090 c 128,-1,84
 1432 1082 1432 1082 1463 1082 c 0,85,86
 1512 1082 1512 1082 1556 1101 c 128,-1,87
 1600 1120 1600 1120 1631 1152 c 0,88,89
 1666 1187 1666 1187 1683.5 1228.5 c 128,-1,90
 1701 1270 1701 1270 1701 1323 c 0,91,92
 1701 1372 1701 1372 1683.5 1416 c 128,-1,93
 1666 1460 1666 1460 1631 1491 c 0,94,95
 1599 1523 1599 1523 1555.5 1542 c 128,-1,96
 1512 1561 1512 1561 1463 1561 c 1,97,-1
 1463 1561 l 1,0,1
1166 427 m 1,98,99
 1201 427 1201 427 1234 413 c 0,100,101
 1268 398 1268 398 1292 374 c 256,102,103
 1316 350 1316 350 1330 317 c 128,-1,104
 1344 284 1344 284 1344 245 c 0,105,106
 1344 210 1344 210 1330 177 c 128,-1,107
 1316 144 1316 144 1292 119 c 256,108,109
 1268 95 1268 95 1234 80.5 c 128,-1,110
 1200 66 1200 66 1166 66 c 0,111,112
 1128 66 1128 66 1096 80 c 128,-1,113
 1064 94 1064 94 1040 119 c 256,114,115
 1016 143 1016 143 1001.5 176.5 c 128,-1,116
 987 210 987 210 987 245 c 0,117,118
 987 283 987 283 1001 316.5 c 0,119,120
 1016 350 1016 350 1040 374 c 256,121,122
 1064 398 1064 398 1095.5 412.5 c 0,123,124
 1128 427 1128 427 1166 427 c 1,125,-1
 1166 427 l 1,98,99
329 665 m 1,126,127
 291 665 291 665 259.5 679 c 0,128,129
 228 694 228 694 203 718 c 256,130,131
 179 742 179 742 164.5 773.5 c 0,132,133
 150 806 150 806 150 844 c 256,134,135
 150 882 150 882 164 913.5 c 0,136,137
 178 946 178 946 203 970 c 256,138,139
 227 994 227 994 258.5 1008 c 128,-1,140
 290 1022 290 1022 329 1022 c 256,141,142
 367 1022 367 1022 398.5 1008 c 128,-1,143
 430 994 430 994 455 970 c 256,144,145
 479 946 479 946 493.5 914 c 128,-1,146
 508 882 508 882 508 844 c 256,147,148
 508 806 508 806 494 774 c 128,-1,149
 480 742 480 742 455 718 c 256,150,151
 431 694 431 694 399.5 679.5 c 128,-1,152
 368 665 368 665 329 665 c 1,153,-1
 329 665 l 1,126,127
1463 1141 m 1,154,155
 1425 1141 1425 1141 1393.5 1155 c 0,156,157
 1362 1170 1362 1170 1337 1194 c 256,158,159
 1313 1218 1313 1218 1298.5 1251 c 128,-1,160
 1284 1284 1284 1284 1284 1323 c 0,161,162
 1284 1358 1284 1358 1298 1391 c 128,-1,163
 1312 1424 1312 1424 1337 1449 c 256,164,165
 1361 1473 1361 1473 1392.5 1487.5 c 128,-1,166
 1424 1502 1424 1502 1463 1502 c 256,167,168
 1501 1502 1501 1502 1532.5 1488 c 128,-1,169
 1564 1474 1564 1474 1589 1449 c 256,170,171
 1613 1425 1613 1425 1627.5 1391.5 c 128,-1,172
 1642 1358 1642 1358 1642 1323 c 0,173,174
 1642 1285 1642 1285 1628 1251.5 c 128,-1,175
 1614 1218 1614 1218 1589 1194 c 256,176,177
 1565 1170 1565 1170 1533.5 1155.5 c 128,-1,178
 1502 1141 1502 1141 1463 1141 c 1,179,-1
 1463 1141 l 1,154,155
EndSplineSet
EndChar

StartChar: uniE617
Encoding: 58903 58903 27
Width: 1792
Flags: W
LayerCount: 2
Fore
SplineSet
896 1561 m 1,0,1
 752 1561 752 1561 628 1534.5 c 128,-1,2
 504 1508 504 1508 410 1463 c 0,3,4
 319 1421 319 1421 264.5 1359.5 c 128,-1,5
 210 1298 210 1298 210 1232 c 2,6,-1
 210 336 l 2,7,8
 210 270 210 270 264 208.5 c 128,-1,9
 318 147 318 147 410 105 c 0,10,11
 504 59 504 59 628 33 c 128,-1,12
 752 7 752 7 896 7 c 256,13,14
 1040 7 1040 7 1164 33.5 c 128,-1,15
 1288 60 1288 60 1382 105 c 0,16,17
 1473 147 1473 147 1527.5 208.5 c 128,-1,18
 1582 270 1582 270 1582 336 c 2,19,-1
 1582 1232 l 2,20,21
 1582 1298 1582 1298 1528 1359.5 c 128,-1,22
 1474 1421 1474 1421 1382 1463 c 0,23,24
 1288 1509 1288 1509 1164 1535 c 128,-1,25
 1040 1561 1040 1561 896 1561 c 1,26,-1
 896 1561 l 1,0,1
896 1502 m 1,27,28
 1036 1502 1036 1502 1150 1477 c 128,-1,29
 1264 1452 1264 1452 1348 1414 c 256,30,31
 1432 1376 1432 1376 1477 1328.5 c 128,-1,32
 1522 1281 1522 1281 1522 1232 c 256,33,34
 1522 1183 1522 1183 1477 1135.5 c 128,-1,35
 1432 1088 1432 1088 1348 1050 c 256,36,37
 1264 1012 1264 1012 1150 987 c 128,-1,38
 1036 962 1036 962 896 962 c 256,39,40
 756 962 756 962 642 987 c 128,-1,41
 528 1012 528 1012 444 1050 c 256,42,43
 360 1088 360 1088 315 1135.5 c 128,-1,44
 270 1183 270 1183 270 1232 c 256,45,46
 270 1281 270 1281 315 1328.5 c 128,-1,47
 360 1376 360 1376 444 1414 c 256,48,49
 528 1452 528 1452 642 1477 c 128,-1,50
 756 1502 756 1502 896 1502 c 1,51,-1
 896 1502 l 1,27,28
1522 396 m 1,52,-1
 1522 336 l 2,53,54
 1522 287 1522 287 1477 239.5 c 128,-1,55
 1432 192 1432 192 1348 154 c 256,56,57
 1264 116 1264 116 1150 91 c 128,-1,58
 1036 66 1036 66 896 66 c 256,59,60
 756 66 756 66 642 91 c 128,-1,61
 528 116 528 116 444 154 c 256,62,63
 360 192 360 192 315 239.5 c 128,-1,64
 270 287 270 287 270 336 c 2,65,-1
 270 500 l 1,66,67
 308 458 308 458 373 421.5 c 0,68,69
 438 384 438 384 518 360 c 256,70,71
 598 336 598 336 694.5 322 c 128,-1,72
 791 308 791 308 896 308 c 256,73,74
 1001 308 1001 308 1097.5 322 c 128,-1,75
 1194 336 1194 336 1274 360 c 256,76,77
 1354 384 1354 384 1419 421 c 128,-1,78
 1484 458 1484 458 1522 500 c 1,79,-1
 1522 396 l 1,80,-1
 1522 396 l 1,52,-1
1522 634 m 1,81,82
 1522 588 1522 588 1477 539 c 128,-1,83
 1432 490 1432 490 1348 452 c 256,84,85
 1264 414 1264 414 1150 391 c 128,-1,86
 1036 368 1036 368 896 368 c 256,87,88
 756 368 756 368 642 390.5 c 0,89,90
 528 414 528 414 444 452 c 256,91,92
 360 490 360 490 315 539 c 128,-1,93
 270 588 270 588 270 634 c 2,94,-1
 270 798 l 1,95,96
 308 756 308 756 373 721 c 128,-1,97
 438 686 438 686 518 658 c 0,98,99
 598 634 598 634 694.5 620 c 128,-1,100
 791 606 791 606 896 606 c 256,101,102
 1001 606 1001 606 1097.5 620 c 128,-1,103
 1194 634 1194 634 1274 658 c 0,104,105
 1354 686 1354 686 1419 721 c 128,-1,106
 1484 756 1484 756 1522 798 c 1,107,-1
 1522 634 l 1,108,-1
 1522 634 l 1,81,82
1522 934 m 1,109,110
 1522 885 1522 885 1477 838 c 0,111,112
 1432 790 1432 790 1348 752 c 256,113,114
 1264 714 1264 714 1150 689.5 c 128,-1,115
 1036 665 1036 665 896 665 c 256,116,117
 756 665 756 665 642 689.5 c 128,-1,118
 528 714 528 714 444 752 c 256,119,120
 360 790 360 790 315 838 c 128,-1,121
 270 886 270 886 270 934 c 2,122,-1
 270 1099 l 1,123,124
 308 1053 308 1053 373 1018.5 c 128,-1,125
 438 984 438 984 518 959 c 0,126,127
 598 931 598 931 694.5 917 c 128,-1,128
 791 903 791 903 896 903 c 256,129,130
 1001 903 1001 903 1097.5 917 c 128,-1,131
 1194 931 1194 931 1274 959 c 0,132,133
 1354 983 1354 983 1419 1018.5 c 128,-1,134
 1484 1054 1484 1054 1522 1099 c 1,135,-1
 1522 934 l 1,136,-1
 1522 934 l 1,109,110
EndSplineSet
EndChar

StartChar: uniE618
Encoding: 58904 58904 28
Width: 1792
Flags: W
LayerCount: 2
Fore
SplineSet
1600 154 m 1,0,-1
 1194 560 l 1,1,2
 1226 595 1226 595 1250 637 c 0,3,4
 1274 678 1274 678 1292 724 c 256,5,6
 1310 770 1310 770 1318 821 c 128,-1,7
 1326 872 1326 872 1326 920 c 0,8,9
 1326 1039 1326 1039 1281 1142.5 c 128,-1,10
 1236 1246 1236 1246 1158 1323 c 256,11,12
 1081 1400 1081 1400 978 1444 c 0,13,14
 876 1488 876 1488 760 1488 c 0,15,16
 641 1488 641 1488 537.5 1444 c 128,-1,17
 434 1400 434 1400 357 1323 c 256,18,19
 280 1246 280 1246 236 1143 c 128,-1,20
 192 1040 192 1040 192 920 c 0,21,22
 192 804 192 804 236 701 c 128,-1,23
 280 598 280 598 357 522 c 256,24,25
 434 445 434 445 537 399.5 c 128,-1,26
 640 354 640 354 760 354 c 0,27,28
 809 354 809 354 859.5 362.5 c 0,29,30
 910 370 910 370 956 388 c 256,31,32
 1002 406 1002 406 1043.5 430.5 c 0,33,34
 1085 454 1085 454 1120 486 c 1,35,-1
 1526 80 l 1,36,-1
 1600 154 l 1,37,-1
 1600 154 l 1,0,-1
252 920 m 1,38,39
 252 1025 252 1025 290.5 1118 c 128,-1,40
 329 1211 329 1211 399 1281 c 256,41,42
 469 1351 469 1351 561.5 1389.5 c 128,-1,43
 654 1428 654 1428 760 1428 c 256,44,45
 865 1428 865 1428 955.5 1389.5 c 128,-1,46
 1046 1351 1046 1351 1116 1281 c 256,47,48
 1186 1211 1186 1211 1226.5 1118.5 c 128,-1,49
 1267 1026 1267 1026 1267 920 c 256,50,51
 1267 815 1267 815 1226.5 724.5 c 128,-1,52
 1186 634 1186 634 1116 564 c 256,53,54
 1046 494 1046 494 955 453.5 c 128,-1,55
 864 413 864 413 760 413 c 256,56,57
 655 413 655 413 562 453.5 c 128,-1,58
 469 494 469 494 399 564 c 256,59,60
 329 634 329 634 290.5 725 c 128,-1,61
 252 816 252 816 252 920 c 1,62,-1
 252 920 l 1,38,39
EndSplineSet
EndChar

StartChar: uniE619
Encoding: 58905 58905 29
Width: 1792
Flags: W
LayerCount: 2
Fore
SplineSet
1376 784 m 1,0,1
 1432 840 1432 840 1470 896 c 128,-1,2
 1508 952 1508 952 1530 1001 c 256,3,4
 1551 1050 1551 1050 1552.5 1094 c 128,-1,5
 1554 1138 1554 1138 1533 1172 c 0,6,7
 1526 1186 1526 1186 1512 1200 c 128,-1,8
 1498 1214 1498 1214 1474 1225 c 0,9,10
 1453 1235 1453 1235 1421.5 1242.5 c 128,-1,11
 1390 1250 1390 1250 1348 1250 c 0,12,13
 1324 1250 1324 1250 1297 1248 c 128,-1,14
 1270 1246 1270 1246 1242 1242 c 0,15,16
 1214 1235 1214 1235 1186 1228.5 c 128,-1,17
 1158 1222 1158 1222 1127 1214 c 1,18,19
 1106 1284 1106 1284 1080 1344 c 128,-1,20
 1054 1404 1054 1404 1026 1446 c 1,21,22
 994 1484 994 1484 957 1507 c 128,-1,23
 920 1530 920 1530 882 1530 c 256,24,25
 844 1530 844 1530 809 1509 c 128,-1,26
 774 1488 774 1488 746 1446 c 1,27,28
 714 1408 714 1408 688 1350 c 128,-1,29
 662 1292 662 1292 640 1222 c 1,30,31
 612 1229 612 1229 588 1234 c 0,32,33
 564 1238 564 1238 539 1242 c 256,34,35
 515 1246 515 1246 492 1248 c 128,-1,36
 469 1250 469 1250 448 1250 c 0,37,38
 402 1250 402 1250 371 1243 c 128,-1,39
 340 1236 340 1236 318 1225 c 0,40,41
 294 1215 294 1215 280 1200.5 c 128,-1,42
 266 1186 266 1186 259 1172 c 0,43,44
 241 1144 241 1144 239.5 1111 c 128,-1,45
 238 1078 238 1078 248 1040 c 256,46,47
 258 1002 258 1002 281 958 c 128,-1,48
 304 914 304 914 343 868 c 0,49,50
 357 847 357 847 376.5 826 c 128,-1,51
 396 805 396 805 416 784 c 1,52,53
 360 728 360 728 322 672 c 128,-1,54
 284 616 284 616 262 567 c 256,55,56
 241 518 241 518 239.5 474 c 128,-1,57
 238 430 238 430 259 396 c 0,58,59
 266 382 266 382 280 368 c 128,-1,60
 294 354 294 354 318 343 c 0,61,62
 339 333 339 333 370.5 325.5 c 128,-1,63
 402 318 402 318 448 318 c 0,64,65
 469 318 469 318 491.5 320 c 128,-1,66
 514 322 514 322 539 326 c 256,67,68
 563 330 563 330 587.5 335 c 128,-1,69
 612 340 612 340 640 346 c 1,70,71
 661 276 661 276 687.5 218.5 c 0,72,73
 714 160 714 160 746 122 c 1,74,75
 774 80 774 80 809 59 c 128,-1,76
 844 38 844 38 882 38 c 256,77,78
 920 38 920 38 957 61 c 128,-1,79
 994 84 994 84 1026 122 c 1,80,81
 1054 164 1054 164 1080 224 c 128,-1,82
 1106 284 1106 284 1127 354 c 1,83,84
 1159 347 1159 347 1186.5 339.5 c 128,-1,85
 1214 332 1214 332 1242 326 c 0,86,87
 1270 322 1270 322 1296.5 320 c 0,88,89
 1324 318 1324 318 1348 318 c 0,90,91
 1390 318 1390 318 1421 325 c 128,-1,92
 1452 332 1452 332 1474 343 c 0,93,94
 1498 353 1498 353 1512 367.5 c 128,-1,95
 1526 382 1526 382 1533 396 c 0,96,97
 1554 431 1554 431 1552 474.5 c 128,-1,98
 1550 518 1550 518 1530 567 c 256,99,100
 1509 616 1509 616 1470.5 672 c 128,-1,101
 1432 728 1432 728 1376 784 c 1,102,-1
 1376 784 l 1,0,1
1348 1190 m 1,103,104
 1366 1190 1366 1190 1385 1188 c 128,-1,105
 1404 1186 1404 1186 1424 1183 c 1,106,107
 1442 1176 1442 1176 1458 1165.5 c 128,-1,108
 1474 1155 1474 1155 1484 1141 c 0,109,110
 1498 1117 1498 1117 1494.5 1083.5 c 128,-1,111
 1491 1050 1491 1050 1470 1012 c 1,112,113
 1452 970 1452 970 1417 922.5 c 128,-1,114
 1382 875 1382 875 1334 826 c 1,115,116
 1316 844 1316 844 1297 859.5 c 0,117,118
 1278 874 1278 874 1256 892 c 0,119,120
 1238 910 1238 910 1216 926 c 128,-1,121
 1194 942 1194 942 1172 959 c 1,122,123
 1168 983 1168 983 1167 1009.5 c 128,-1,124
 1166 1036 1166 1036 1158 1060 c 0,125,126
 1154 1084 1154 1084 1151 1109 c 128,-1,127
 1148 1134 1148 1134 1141 1155 c 1,128,129
 1169 1165 1169 1165 1197 1170.5 c 0,130,131
 1226 1176 1226 1176 1250 1183 c 1,132,133
 1278 1187 1278 1187 1300.5 1188.5 c 0,134,135
 1324 1190 1324 1190 1348 1190 c 1,136,-1
 1348 1190 l 1,103,104
1018 581 m 1,137,138
 1004 571 1004 571 988.5 562 c 128,-1,139
 973 553 973 553 959 546 c 0,140,141
 941 536 941 536 927.5 529 c 128,-1,142
 914 522 914 522 896 511 c 1,143,144
 882 521 882 521 866 528.5 c 128,-1,145
 850 536 850 536 833 546 c 0,146,147
 819 553 819 553 803.5 561.5 c 128,-1,148
 788 570 788 570 774 581 c 0,149,150
 756 591 756 591 740 601.5 c 128,-1,151
 724 612 724 612 710 620 c 0,152,153
 692 630 692 630 678.5 640.5 c 0,154,155
 665 652 665 652 651 662 c 1,156,157
 647 680 647 680 647.5 693.5 c 128,-1,158
 648 707 648 707 648 721 c 0,159,160
 648 739 648 739 646 754.5 c 128,-1,161
 644 770 644 770 644 784 c 256,162,163
 644 798 644 798 646 814 c 128,-1,164
 648 830 648 830 648 847 c 0,165,166
 648 861 648 861 648 876.5 c 128,-1,167
 648 892 648 892 651 906 c 1,168,169
 665 916 665 916 679 927 c 0,170,171
 692 938 692 938 710 945 c 1,172,173
 724 955 724 955 740 965.5 c 128,-1,174
 756 976 756 976 774 987 c 0,175,176
 788 997 788 997 803.5 1006 c 128,-1,177
 819 1015 819 1015 833 1022 c 0,178,179
 851 1032 851 1032 866.5 1039 c 128,-1,180
 882 1046 882 1046 896 1057 c 1,181,182
 914 1047 914 1047 928 1039.5 c 128,-1,183
 942 1032 942 1032 959 1022 c 0,184,185
 973 1015 973 1015 988.5 1006.5 c 128,-1,186
 1004 998 1004 998 1018 987 c 0,187,188
 1046 973 1046 973 1069 957.5 c 128,-1,189
 1092 942 1092 942 1116 924 c 1,190,191
 1116 906 1116 906 1118 889 c 128,-1,192
 1120 872 1120 872 1120 854 c 256,193,194
 1120 836 1120 836 1120 819 c 128,-1,195
 1120 802 1120 802 1120 784 c 256,196,197
 1120 766 1120 766 1120 749 c 128,-1,198
 1120 732 1120 732 1120 714 c 256,199,200
 1120 696 1120 696 1118 679 c 128,-1,201
 1116 662 1116 662 1116 644 c 1,202,203
 1092 626 1092 626 1069 610.5 c 128,-1,204
 1046 595 1046 595 1018 581 c 1,205,-1
 1018 581 l 1,137,138
1110 567 m 1,206,207
 1106 549 1106 549 1102.5 531.5 c 128,-1,208
 1099 514 1099 514 1099 497 c 0,209,210
 1095 479 1095 479 1091.5 463.5 c 128,-1,211
 1088 448 1088 448 1085 430 c 1,212,213
 1071 437 1071 437 1055.5 442.5 c 128,-1,214
 1040 448 1040 448 1026 455 c 0,215,216
 1012 459 1012 459 996 465.5 c 128,-1,217
 980 472 980 472 962 480 c 1,218,219
 986 490 986 490 1007.5 504 c 128,-1,220
 1029 518 1029 518 1050 528 c 0,221,222
 1064 538 1064 538 1080 547 c 128,-1,223
 1096 556 1096 556 1110 567 c 1,224,-1
 1110 567 l 1,206,207
830 480 m 1,225,226
 812 473 812 473 793 464 c 128,-1,227
 774 455 774 455 756 448 c 256,228,229
 738 441 738 441 719 434 c 0,230,231
 700 428 700 428 682 424 c 1,232,233
 678 442 678 442 675 461 c 128,-1,234
 672 480 672 480 668 500 c 256,235,236
 664 521 664 521 661 542.5 c 128,-1,237
 658 564 658 564 658 584 c 1,238,239
 676 570 676 570 698.5 556 c 128,-1,240
 721 542 721 542 742 528 c 0,241,242
 763 518 763 518 785.5 504 c 128,-1,243
 808 490 808 490 830 480 c 1,244,-1
 830 480 l 1,225,226
588 710 m 1,245,246
 564 728 564 728 543 747 c 128,-1,247
 522 766 522 766 500 784 c 1,248,249
 521 802 521 802 542.5 821 c 128,-1,250
 564 840 564 840 588 858 c 1,251,252
 588 840 588 840 586 821 c 128,-1,253
 584 802 584 802 584 784 c 256,254,255
 584 766 584 766 586 747 c 128,-1,256
 588 728 588 728 588 710 c 1,257,-1
 588 710 l 1,245,246
658 984 m 1,258,259
 658 1005 658 1005 661.5 1025.5 c 0,260,261
 664 1046 664 1046 668 1068 c 256,262,263
 672 1089 672 1089 675.5 1108 c 0,264,265
 678 1126 678 1126 682 1144 c 1,266,267
 700 1140 700 1140 719 1133.5 c 128,-1,268
 738 1127 738 1127 756 1120 c 256,269,270
 774 1113 774 1113 793 1104.5 c 128,-1,271
 812 1096 812 1096 830 1088 c 1,272,273
 809 1078 809 1078 786 1064 c 128,-1,274
 763 1050 763 1050 742 1040 c 0,275,276
 721 1026 721 1026 698.5 1012 c 128,-1,277
 676 998 676 998 658 984 c 1,278,-1
 658 984 l 1,258,259
962 1088 m 1,279,280
 980 1095 980 1095 996 1102.5 c 128,-1,281
 1012 1110 1012 1110 1026 1113 c 0,282,283
 1040 1120 1040 1120 1055.5 1125 c 128,-1,284
 1071 1130 1071 1130 1085 1138 c 1,285,286
 1089 1120 1089 1120 1092.5 1104 c 128,-1,287
 1096 1088 1096 1088 1099 1071 c 0,288,289
 1099 1053 1099 1053 1102.5 1035.5 c 128,-1,290
 1106 1018 1106 1018 1110 1001 c 1,291,292
 1096 1011 1096 1011 1080 1020 c 0,293,294
 1064 1030 1064 1030 1050 1040 c 0,295,296
 1029 1050 1029 1050 1008 1064 c 0,297,298
 986 1078 986 1078 962 1088 c 1,299,-1
 962 1088 l 1,279,280
1180 878 m 1,300,301
 1194 868 1194 868 1209.5 856 c 128,-1,302
 1225 844 1225 844 1239 833 c 0,303,304
 1253 819 1253 819 1265.5 806.5 c 128,-1,305
 1278 794 1278 794 1292 784 c 1,306,307
 1278 774 1278 774 1265.5 761.5 c 128,-1,308
 1253 749 1253 749 1239 735 c 0,309,310
 1225 725 1225 725 1209.5 712.5 c 128,-1,311
 1194 700 1194 700 1180 690 c 1,312,313
 1180 714 1180 714 1180 737 c 128,-1,314
 1180 760 1180 760 1180 784 c 256,315,316
 1180 808 1180 808 1180 831 c 128,-1,317
 1180 854 1180 854 1180 878 c 1,318,-1
 1180 878 l 1,300,301
882 1470 m 1,319,320
 910 1470 910 1470 934.5 1451 c 0,321,322
 960 1432 960 1432 984 1396 c 256,323,324
 1008 1361 1008 1361 1031 1310.5 c 128,-1,325
 1054 1260 1054 1260 1071 1197 c 1,326,327
 1050 1190 1050 1190 1029 1181 c 128,-1,328
 1008 1172 1008 1172 984 1162 c 0,329,330
 963 1155 963 1155 940 1144.5 c 128,-1,331
 917 1134 917 1134 896 1124 c 1,332,333
 872 1134 872 1134 845.5 1146 c 0,334,335
 818 1158 818 1158 794 1169 c 256,336,337
 770 1179 770 1179 745.5 1188 c 0,338,339
 720 1197 720 1197 696 1204 c 1,340,341
 714 1267 714 1267 737 1316 c 128,-1,342
 760 1365 760 1365 784 1400 c 256,343,344
 808 1435 808 1435 833 1452.5 c 128,-1,345
 858 1470 858 1470 882 1470 c 1,346,-1
 882 1470 l 1,319,320
308 1141 m 1,347,348
 318 1155 318 1155 334 1165.5 c 128,-1,349
 350 1176 350 1176 371 1183 c 0,350,351
 389 1187 389 1187 408 1188.5 c 128,-1,352
 427 1190 427 1190 448 1190 c 0,353,354
 466 1190 466 1190 487 1188 c 128,-1,355
 508 1186 508 1186 532 1183 c 0,356,357
 553 1179 553 1179 577.5 1174 c 128,-1,358
 602 1169 602 1169 626 1162 c 1,359,360
 619 1138 619 1138 614 1110 c 0,361,362
 610 1082 610 1082 606 1054 c 256,363,364
 602 1026 602 1026 598.5 996 c 0,365,366
 596 966 596 966 592 938 c 1,367,368
 574 924 574 924 556.5 910 c 0,369,370
 540 896 540 896 522 882 c 256,371,372
 504 868 504 868 488 854 c 128,-1,373
 472 840 472 840 458 826 c 1,374,375
 437 844 437 844 419.5 865 c 128,-1,376
 402 886 402 886 388 903 c 0,377,378
 356 941 356 941 337 976.5 c 128,-1,379
 318 1012 318 1012 308 1043 c 0,380,381
 298 1071 298 1071 298 1097.5 c 128,-1,382
 298 1124 298 1124 308 1141 c 1,383,-1
 308 1141 l 1,347,348
448 378 m 1,384,385
 427 378 427 378 407.5 380 c 128,-1,386
 388 382 388 382 371 385 c 0,387,388
 350 392 350 392 334 402.5 c 128,-1,389
 318 413 318 413 308 427 c 1,390,391
 298 451 298 451 299.5 482.5 c 128,-1,392
 301 514 301 514 322 556 c 0,393,394
 340 598 340 598 375 645.5 c 128,-1,395
 410 693 410 693 458 742 c 1,396,397
 472 728 472 728 488 714 c 128,-1,398
 504 700 504 700 522 686 c 256,399,400
 540 672 540 672 557 658 c 128,-1,401
 574 644 574 644 592 630 c 1,402,403
 596 602 596 602 599 572 c 128,-1,404
 602 542 602 542 606 514 c 256,405,406
 610 486 610 486 615 458 c 128,-1,407
 620 430 620 430 626 406 c 1,408,409
 602 399 602 399 577.5 393.5 c 128,-1,410
 553 388 553 388 532 385 c 0,411,412
 508 381 508 381 487 379.5 c 128,-1,413
 466 378 466 378 448 378 c 1,414,-1
 448 378 l 1,384,385
882 98 m 1,415,416
 858 98 858 98 833 115.5 c 128,-1,417
 808 133 808 133 784 168 c 256,418,419
 760 203 760 203 737 252 c 128,-1,420
 714 301 714 301 696 364 c 1,421,422
 720 371 720 371 745 379.5 c 128,-1,423
 770 388 770 388 794 399 c 256,424,425
 818 409 818 409 845 421.5 c 128,-1,426
 872 434 872 434 896 444 c 1,427,428
 917 434 917 434 939.5 423.5 c 128,-1,429
 962 413 962 413 984 406 c 0,430,431
 1008 396 1008 396 1029 387 c 128,-1,432
 1050 378 1050 378 1071 371 c 1,433,434
 1053 308 1053 308 1030.5 257 c 128,-1,435
 1008 206 1008 206 984 172 c 256,436,437
 960 137 960 137 935 117.5 c 128,-1,438
 910 98 910 98 882 98 c 1,439,-1
 882 98 l 1,415,416
1484 427 m 1,440,441
 1474 413 1474 413 1458 402.5 c 128,-1,442
 1442 392 1442 392 1424 385 c 1,443,444
 1403 381 1403 381 1384 379.5 c 0,445,446
 1366 378 1366 378 1348 378 c 0,447,448
 1324 378 1324 378 1301 380 c 128,-1,449
 1278 382 1278 382 1250 385 c 1,450,451
 1226 392 1226 392 1197.5 397 c 128,-1,452
 1169 402 1169 402 1141 413 c 1,453,454
 1148 434 1148 434 1151.5 458.5 c 0,455,456
 1154 484 1154 484 1158 508 c 0,457,458
 1165 532 1165 532 1167 558 c 0,459,460
 1168 584 1168 584 1172 609 c 1,461,462
 1193 627 1193 627 1216 642.5 c 0,463,464
 1238 658 1238 658 1256 676 c 0,465,466
 1277 694 1277 694 1296.5 709 c 128,-1,467
 1316 724 1316 724 1334 742 c 1,468,469
 1383 693 1383 693 1417.5 645.5 c 128,-1,470
 1452 598 1452 598 1470 556 c 0,471,472
 1491 514 1491 514 1494.5 483 c 128,-1,473
 1498 452 1498 452 1484 427 c 1,474,-1
 1484 427 l 1,440,441
EndSplineSet
EndChar

StartChar: uniE61A
Encoding: 58906 58906 30
Width: 1792
Flags: W
LayerCount: 2
Fore
SplineSet
329 1502 m 1,0,-1
 329 66 l 1,1,-1
 896 486 l 1,2,-1
 1463 66 l 1,3,-1
 1463 1502 l 1,4,-1
 329 1502 l 1,5,-1
 329 1502 l 1,0,-1
1404 186 m 1,6,-1
 896 560 l 1,7,-1
 388 186 l 1,8,-1
 388 1442 l 1,9,-1
 1404 1442 l 1,10,-1
 1404 186 l 1,11,-1
 1404 186 l 1,6,-1
598 1141 m 1,12,-1
 1194 1141 l 1,13,-1
 1194 1082 l 1,14,-1
 598 1082 l 1,15,-1
 598 1141 l 1,16,-1
 598 1141 l 1,12,-1
598 903 m 1,17,-1
 1194 903 l 1,18,-1
 1194 844 l 1,19,-1
 598 844 l 1,20,-1
 598 903 l 1,21,-1
 598 903 l 1,17,-1
EndSplineSet
EndChar

StartChar: uniE61B
Encoding: 58907 58907 31
Width: 1792
Flags: W
LayerCount: 2
Fore
SplineSet
1522 396 m 1,0,-1
 262 396 l 1,1,-1
 514 648 l 1,2,-1
 472 690 l 1,3,-1
 150 368 l 1,4,-1
 472 46 l 1,5,-1
 514 88 l 1,6,-1
 266 336 l 1,7,-1
 1582 336 l 1,8,-1
 1582 872 l 1,9,-1
 1522 872 l 1,10,-1
 1522 396 l 1,0,-1
270 1172 m 1,11,-1
 1530 1172 l 1,12,-1
 1278 920 l 1,13,-1
 1320 878 l 1,14,-1
 1642 1200 l 1,15,-1
 1320 1522 l 1,16,-1
 1278 1480 l 1,17,-1
 1526 1232 l 1,18,-1
 210 1232 l 1,19,-1
 210 693 l 1,20,-1
 270 693 l 1,21,-1
 270 1172 l 1,11,-1
EndSplineSet
EndChar

StartChar: uniE61C
Encoding: 58908 58908 32
Width: 1792
Flags: W
LayerCount: 2
Fore
SplineSet
1554 634 m 1,0,1
 1554 501 1554 501 1501.5 380 c 0,2,3
 1450 260 1450 260 1362 172 c 0,4,5
 1271 81 1271 81 1151.5 30 c 128,-1,6
 1032 -21 1032 -21 896 -21 c 256,7,8
 760 -21 760 -21 641 29.5 c 128,-1,9
 522 80 522 80 430 172 c 0,10,11
 342 260 342 260 290 380 c 128,-1,12
 238 500 238 500 238 634 c 0,13,14
 238 770 238 770 290.5 889 c 0,15,16
 342 1008 342 1008 430 1099 c 1,17,18
 521 1187 521 1187 640.5 1239.5 c 128,-1,19
 760 1292 760 1292 892 1292 c 1,20,-1
 892 994 l 1,21,-1
 1460 1323 l 1,22,-1
 892 1648 l 1,23,-1
 892 1351 l 1,24,25
 745 1351 745 1351 615.5 1295 c 128,-1,26
 486 1239 486 1239 388 1141 c 256,27,28
 290 1043 290 1043 234 913.5 c 128,-1,29
 178 784 178 784 178 634 c 0,30,31
 178 487 178 487 234 355.5 c 128,-1,32
 290 224 290 224 388 130 c 0,33,34
 486 32 486 32 617.5 -24 c 128,-1,35
 749 -80 749 -80 896 -80 c 256,36,37
 1043 -80 1043 -80 1174.5 -24 c 128,-1,38
 1306 32 1306 32 1404 130 c 0,39,40
 1502 224 1502 224 1558 355 c 128,-1,41
 1614 486 1614 486 1614 634 c 1,42,-1
 1554 634 l 1,43,-1
 1554 634 l 1,0,1
952 1547 m 1,44,-1
 1340 1323 l 1,45,-1
 952 1096 l 1,46,-1
 952 1547 l 1,47,-1
 952 1547 l 1,44,-1
EndSplineSet
EndChar

StartChar: uniE61D
Encoding: 58909 58909 33
Width: 1792
Flags: W
LayerCount: 2
Fore
SplineSet
1463 875 m 1,0,1
 1463 879 1463 879 1464.5 882.5 c 128,-1,2
 1466 886 1466 886 1466 889 c 0,3,4
 1466 983 1466 983 1429.5 1067.5 c 128,-1,5
 1393 1152 1393 1152 1330 1214 c 256,6,7
 1267 1277 1267 1277 1183 1314 c 128,-1,8
 1099 1351 1099 1351 1001 1351 c 0,9,10
 935 1351 935 1351 870 1331.5 c 0,11,12
 804 1312 804 1312 752 1278 c 256,13,14
 700 1243 700 1243 656 1193.5 c 128,-1,15
 612 1144 612 1144 584 1088 c 1,16,17
 560 1098 560 1098 534 1105.5 c 128,-1,18
 508 1113 508 1113 480 1113 c 0,19,20
 434 1113 434 1113 394 1097.5 c 128,-1,21
 354 1082 354 1082 322 1057 c 0,22,23
 290 1029 290 1029 269 992.5 c 128,-1,24
 248 956 248 956 242 914 c 1,25,26
 190 896 190 896 146 863 c 128,-1,27
 102 830 102 830 70 784 c 1,28,29
 35 742 35 742 17.5 688 c 128,-1,30
 0 634 0 634 0 574 c 0,31,32
 0 500 0 500 28 435.5 c 128,-1,33
 56 371 56 371 105 322 c 256,34,35
 154 273 154 273 219 245 c 128,-1,36
 284 217 284 217 357 217 c 2,37,-1
 1466 217 l 2,38,39
 1532 217 1532 217 1592 243.5 c 128,-1,40
 1652 270 1652 270 1698 315 c 0,41,42
 1740 357 1740 357 1766 418.5 c 128,-1,43
 1792 480 1792 480 1792 546 c 256,44,45
 1792 612 1792 612 1766 672 c 128,-1,46
 1740 732 1740 732 1694 777 c 0,47,48
 1652 823 1652 823 1592.5 849 c 128,-1,49
 1533 875 1533 875 1463 875 c 1,50,-1
 1463 875 l 1,0,1
1463 276 m 1,51,-1
 1452 276 l 1,52,-1
 357 276 l 2,53,54
 297 276 297 276 243 301 c 128,-1,55
 189 326 189 326 147 364 c 1,56,57
 109 406 109 406 84.5 460 c 128,-1,58
 60 514 60 514 60 574 c 0,59,60
 60 623 60 623 75.5 666.5 c 0,61,62
 92 710 92 710 116 749 c 0,63,64
 144 787 144 787 180.5 815.5 c 0,65,66
 216 844 216 844 262 858 c 2,67,-1
 294 868 l 1,68,-1
 301 903 l 2,69,70
 308 938 308 938 324 964 c 128,-1,71
 340 990 340 990 364 1012 c 0,72,73
 385 1033 385 1033 414.5 1043.5 c 128,-1,74
 444 1054 444 1054 480 1054 c 0,75,76
 501 1054 501 1054 520 1048.5 c 0,77,78
 538 1042 538 1042 556 1032 c 2,79,-1
 612 1008 l 1,80,-1
 637 1060 l 2,81,82
 665 1112 665 1112 701.5 1154.5 c 0,83,84
 738 1196 738 1196 788 1228 c 256,85,86
 837 1260 837 1260 891 1276 c 128,-1,87
 945 1292 945 1292 1001 1292 c 0,88,89
 1085 1292 1085 1292 1158.5 1260 c 128,-1,90
 1232 1228 1232 1228 1288 1172 c 0,91,92
 1340 1116 1340 1116 1372 1044.5 c 128,-1,93
 1404 973 1404 973 1404 889 c 0,94,95
 1404 885 1404 885 1404 885.5 c 1,96,-1
 1404 886 l 1,97,98
 1404 882 1404 882 1404 880 c 128,-1,99
 1404 878 1404 878 1404 875 c 2,100,-1
 1404 816 l 1,101,-1
 1463 816 l 2,102,103
 1519 816 1519 816 1568 793 c 128,-1,104
 1617 770 1617 770 1652 735 c 0,105,106
 1690 700 1690 700 1711 651 c 128,-1,107
 1732 602 1732 602 1732 546 c 256,108,109
 1732 490 1732 490 1711 441 c 128,-1,110
 1690 392 1690 392 1652 357 c 1,111,112
 1617 319 1617 319 1568 297.5 c 128,-1,113
 1519 276 1519 276 1463 276 c 1,114,-1
 1463 276 l 1,51,-1
896 486 m 1,115,116
 854 486 854 486 815.5 502 c 128,-1,117
 777 518 777 518 749 546 c 256,118,119
 721 574 721 574 703.5 612.5 c 0,120,121
 686 650 686 650 686 696 c 0,122,123
 686 738 686 738 703.5 777 c 128,-1,124
 721 816 721 816 749 844 c 256,125,126
 777 872 777 872 815.5 887.5 c 128,-1,127
 854 903 854 903 896 903 c 1,128,-1
 896 794 l 1,129,-1
 1120 924 l 1,130,-1
 896 1054 l 1,131,-1
 896 962 l 1,132,133
 840 962 840 962 791 941 c 128,-1,134
 742 920 742 920 707 886 c 0,135,136
 669 848 669 848 647.5 798.5 c 0,137,138
 626 748 626 748 626 696 c 0,139,140
 626 640 626 640 647 591 c 128,-1,141
 668 542 668 542 707 504 c 0,142,143
 742 469 742 469 791 448 c 128,-1,144
 840 427 840 427 896 427 c 256,145,146
 952 427 952 427 1001 448 c 128,-1,147
 1050 469 1050 469 1085 504 c 0,148,149
 1123 542 1123 542 1144.5 591 c 128,-1,150
 1166 640 1166 640 1166 696 c 1,151,-1
 1106 696 l 1,152,153
 1106 650 1106 650 1088.5 612 c 128,-1,154
 1071 574 1071 574 1043 546 c 256,155,156
 1015 518 1015 518 976.5 502 c 128,-1,157
 938 486 938 486 896 486 c 1,158,-1
 896 486 l 1,115,116
EndSplineSet
EndChar

StartChar: uniE61E
Encoding: 58910 58910 34
Width: 1792
Flags: W
LayerCount: 2
Fore
SplineSet
1575 1169 m 1,0,1
 1573.5 1170.5 l 0,2,-1
 1572 1172 l 1,3,-1
 304 1470 l 2,4,5
 294 1474 294 1474 283.5 1467 c 0,6,7
 274 1460 274 1460 270 1449 c 0,8,9
 266 1435 266 1435 273 1424.5 c 128,-1,10
 280 1414 280 1414 290 1410 c 2,11,-1
 1309 1172 l 1,12,-1
 234 1172 l 2,13,14
 216 1172 216 1172 201 1165 c 128,-1,15
 186 1158 186 1158 175 1148 c 256,16,17
 165 1138 165 1138 157.5 1122 c 128,-1,18
 150 1106 150 1106 150 1088 c 2,19,-1
 150 182 l 2,20,21
 150 164 150 164 157 148.5 c 0,22,23
 164 132 164 132 175 122 c 256,24,25
 185 112 185 112 201 105 c 0,26,27
 216 98 216 98 234 98 c 2,28,-1
 1558 98 l 2,29,30
 1576 98 1576 98 1591 105 c 128,-1,31
 1606 112 1606 112 1617 122 c 256,32,33
 1627 132 1627 132 1634.5 148 c 128,-1,34
 1642 164 1642 164 1642 182 c 2,35,-1
 1642 1088 l 2,36,37
 1642 1102 1642 1102 1636.5 1116 c 128,-1,38
 1631 1130 1631 1130 1624 1141 c 0,39,40
 1614 1151 1614 1151 1601.5 1160 c 128,-1,41
 1589 1169 1589 1169 1575 1169 c 1,42,-1
 1575 1169 l 1,0,1
1582 182 m 1,43,44
 1582 172 1582 172 1575 165 c 128,-1,45
 1568 158 1568 158 1558 158 c 2,46,-1
 234 158 l 2,47,48
 224 158 224 158 217 165 c 128,-1,49
 210 172 210 172 210 182 c 2,50,-1
 210 1088 l 2,51,52
 210 1098 210 1098 217 1105.5 c 128,-1,53
 224 1113 224 1113 234 1113 c 2,54,-1
 1558 1113 l 2,55,56
 1568 1113 1568 1113 1575 1106 c 0,57,58
 1582 1098 1582 1098 1582 1088 c 2,59,-1
 1582 182 l 1,60,-1
 1582 182 l 1,43,44
686 693 m 1,61,62
 668 693 668 693 654 680.5 c 128,-1,63
 640 668 640 668 640 651 c 0,64,65
 640 630 640 630 654 618 c 128,-1,66
 668 606 668 606 686 606 c 0,67,68
 707 606 707 606 719.5 618 c 128,-1,69
 732 630 732 630 732 651 c 0,70,71
 732 669 732 669 719.5 681 c 128,-1,72
 707 693 707 693 686 693 c 1,73,-1
 686 693 l 1,61,62
357 651 m 1,74,75
 357 669 357 669 344.5 681 c 128,-1,76
 332 693 332 693 315 693 c 0,77,78
 294 693 294 693 282 680.5 c 128,-1,79
 270 668 270 668 270 651 c 0,80,81
 270 630 270 630 282 618 c 128,-1,82
 294 606 294 606 315 606 c 0,83,84
 333 606 333 606 345 618 c 128,-1,85
 357 630 357 630 357 651 c 1,86,-1
 357 651 l 1,74,75
1060 693 m 1,87,88
 1042 693 1042 693 1028.5 680.5 c 128,-1,89
 1015 668 1015 668 1015 651 c 0,90,91
 1015 630 1015 630 1029 618 c 0,92,93
 1042 606 1042 606 1060 606 c 256,94,95
 1078 606 1078 606 1092 618 c 128,-1,96
 1106 630 1106 630 1106 651 c 0,97,98
 1106 669 1106 669 1092 681 c 128,-1,99
 1078 693 1078 693 1060 693 c 1,100,-1
 1060 693 l 1,87,88
522 609 m 1,101,102
 504 609 504 609 492 595 c 0,103,104
 480 582 480 582 480 564 c 0,105,106
 480 543 480 543 492 530.5 c 128,-1,107
 504 518 504 518 522 518 c 0,108,109
 543 518 543 518 555 530 c 128,-1,110
 567 542 567 542 567 564 c 0,111,112
 567 582 567 582 554.5 595.5 c 128,-1,113
 542 609 542 609 522 609 c 1,114,-1
 522 609 l 1,101,102
896 560 m 1,115,116
 896 578 896 578 884 592 c 128,-1,117
 872 606 872 606 850 606 c 0,118,119
 832 606 832 606 818.5 592 c 128,-1,120
 805 578 805 578 805 560 c 256,121,122
 805 542 805 542 819 528 c 0,123,124
 832 514 832 514 850 514 c 0,125,126
 871 514 871 514 883.5 528 c 128,-1,127
 896 542 896 542 896 560 c 1,128,-1
 896 560 l 1,115,116
522 784 m 1,129,130
 504 784 504 784 492 772 c 128,-1,131
 480 760 480 760 480 738 c 0,132,133
 480 720 480 720 492 706.5 c 128,-1,134
 504 693 504 693 522 693 c 0,135,136
 543 693 543 693 555 707 c 0,137,138
 567 720 567 720 567 738 c 0,139,140
 567 759 567 759 554.5 771.5 c 128,-1,141
 542 784 542 784 522 784 c 1,142,-1
 522 784 l 1,129,130
850 693 m 1,143,144
 871 693 871 693 883.5 707 c 0,145,146
 896 720 896 720 896 738 c 0,147,148
 896 759 896 759 884 771.5 c 128,-1,149
 872 784 872 784 850 784 c 0,150,151
 832 784 832 784 818.5 772 c 128,-1,152
 805 760 805 760 805 738 c 0,153,154
 805 720 805 720 819 706.5 c 0,155,156
 832 693 832 693 850 693 c 1,157,-1
 850 693 l 1,143,144
374 514 m 1,158,159
 353 514 353 514 341 502 c 128,-1,160
 329 490 329 490 329 469 c 0,161,162
 329 451 329 451 341.5 437.5 c 128,-1,163
 354 424 354 424 374 424 c 0,164,165
 392 424 392 424 406 438 c 128,-1,166
 420 452 420 452 420 469 c 0,167,168
 420 490 420 490 406 502 c 128,-1,169
 392 514 392 514 374 514 c 1,170,-1
 374 514 l 1,158,159
1001 514 m 1,171,172
 983 514 983 514 969.5 502 c 128,-1,173
 956 490 956 490 956 469 c 0,174,175
 956 451 956 451 970 437.5 c 128,-1,176
 984 424 984 424 1001 424 c 256,177,178
 1019 424 1019 424 1032.5 438 c 128,-1,179
 1046 452 1046 452 1046 469 c 0,180,181
 1046 490 1046 490 1032 502 c 128,-1,182
 1018 514 1018 514 1001 514 c 1,183,-1
 1001 514 l 1,171,172
374 875 m 1,184,185
 353 875 353 875 341 861 c 0,186,187
 329 848 329 848 329 830 c 0,188,189
 329 809 329 809 341.5 796.5 c 128,-1,190
 354 784 354 784 374 784 c 0,191,192
 392 784 392 784 406 796 c 128,-1,193
 420 808 420 808 420 830 c 0,194,195
 420 848 420 848 406 861.5 c 128,-1,196
 392 875 392 875 374 875 c 1,197,-1
 374 875 l 1,184,185
1001 784 m 1,198,199
 1019 784 1019 784 1032.5 796 c 128,-1,200
 1046 808 1046 808 1046 830 c 0,201,202
 1046 848 1046 848 1032 861.5 c 128,-1,203
 1018 875 1018 875 1001 875 c 256,204,205
 983 875 983 875 969.5 861 c 0,206,207
 956 848 956 848 956 830 c 0,208,209
 956 809 956 809 970 796.5 c 128,-1,210
 984 784 984 784 1001 784 c 1,211,-1
 1001 784 l 1,198,199
490 396 m 1,212,213
 472 396 472 396 458 383.5 c 128,-1,214
 444 371 444 371 444 350 c 0,215,216
 444 332 444 332 458 320 c 128,-1,217
 472 308 472 308 490 308 c 0,218,219
 511 308 511 308 523.5 320 c 128,-1,220
 536 332 536 332 536 350 c 0,221,222
 536 371 536 371 523.5 383.5 c 128,-1,223
 511 396 511 396 490 396 c 1,224,-1
 490 396 l 1,212,213
878 396 m 1,225,226
 860 396 860 396 848 383.5 c 128,-1,227
 836 371 836 371 836 350 c 0,228,229
 836 332 836 332 848.5 320 c 0,230,231
 860 308 860 308 878 308 c 0,232,233
 899 308 899 308 911.5 320 c 128,-1,234
 924 332 924 332 924 350 c 0,235,236
 924 371 924 371 912 383.5 c 128,-1,237
 900 396 900 396 878 396 c 1,238,-1
 878 396 l 1,225,226
494 903 m 1,239,240
 512 903 512 903 525.5 917 c 0,241,242
 539 930 539 930 539 948 c 256,243,244
 539 966 539 966 525 980 c 0,245,246
 512 994 512 994 494 994 c 256,247,248
 476 994 476 994 462 980 c 128,-1,249
 448 966 448 966 448 948 c 256,250,251
 448 930 448 930 462 916.5 c 128,-1,252
 476 903 476 903 494 903 c 1,253,-1
 494 903 l 1,239,240
878 994 m 1,254,255
 860 994 860 994 848 980 c 128,-1,256
 836 966 836 966 836 948 c 256,257,258
 836 930 836 930 848.5 916.5 c 0,259,260
 860 903 860 903 878 903 c 0,261,262
 899 903 899 903 911.5 917 c 0,263,264
 924 930 924 930 924 948 c 256,265,266
 924 966 924 966 912 980 c 128,-1,267
 900 994 900 994 878 994 c 1,268,-1
 878 994 l 1,254,255
686 514 m 1,269,270
 668 514 668 514 654 502 c 128,-1,271
 640 490 640 490 640 469 c 0,272,273
 640 451 640 451 654 437.5 c 128,-1,274
 668 424 668 424 686 424 c 0,275,276
 707 424 707 424 719.5 438 c 128,-1,277
 732 452 732 452 732 469 c 0,278,279
 732 490 732 490 719.5 502 c 128,-1,280
 707 514 707 514 686 514 c 1,281,-1
 686 514 l 1,269,270
686 336 m 1,282,283
 668 336 668 336 654 324 c 128,-1,284
 640 312 640 312 640 290 c 0,285,286
 640 272 640 272 654 258.5 c 128,-1,287
 668 245 668 245 686 245 c 0,288,289
 707 245 707 245 719.5 259 c 0,290,291
 732 272 732 272 732 290 c 0,292,293
 732 311 732 311 719.5 323.5 c 128,-1,294
 707 336 707 336 686 336 c 1,295,-1
 686 336 l 1,282,283
686 875 m 1,296,297
 668 875 668 875 654 861 c 0,298,299
 640 848 640 848 640 830 c 0,300,301
 640 809 640 809 654 796.5 c 128,-1,302
 668 784 668 784 686 784 c 0,303,304
 707 784 707 784 719.5 796 c 128,-1,305
 732 808 732 808 732 830 c 0,306,307
 732 848 732 848 719.5 861.5 c 128,-1,308
 707 875 707 875 686 875 c 1,309,-1
 686 875 l 1,296,297
686 1054 m 1,310,311
 668 1054 668 1054 654 1040 c 128,-1,312
 640 1026 640 1026 640 1008 c 256,313,314
 640 990 640 990 654 976 c 128,-1,315
 668 962 668 962 686 962 c 0,316,317
 707 962 707 962 719.5 976 c 128,-1,318
 732 990 732 990 732 1008 c 256,319,320
 732 1026 732 1026 719.5 1040 c 128,-1,321
 707 1054 707 1054 686 1054 c 1,322,-1
 686 1054 l 1,310,311
1372 994 m 1,323,324
 1354 994 1354 994 1338.5 987 c 128,-1,325
 1323 980 1323 980 1309 966 c 0,326,327
 1299 956 1299 956 1291.5 938 c 128,-1,328
 1284 920 1284 920 1284 903 c 256,329,330
 1284 885 1284 885 1291 869.5 c 128,-1,331
 1298 854 1298 854 1309 840 c 1,332,333
 1323 830 1323 830 1338.5 823 c 128,-1,334
 1354 816 1354 816 1372 816 c 0,335,336
 1393 816 1393 816 1408.5 823 c 128,-1,337
 1424 830 1424 830 1438 840 c 1,338,339
 1448 854 1448 854 1455.5 870 c 128,-1,340
 1463 886 1463 886 1463 903 c 256,341,342
 1463 921 1463 921 1456 938.5 c 0,343,344
 1448 956 1448 956 1438 966 c 0,345,346
 1424 980 1424 980 1408.5 987 c 128,-1,347
 1393 994 1393 994 1372 994 c 1,348,-1
 1372 994 l 1,323,324
1372 875 m 1,349,350
 1362 875 1362 875 1353 883.5 c 128,-1,351
 1344 892 1344 892 1344 903 c 0,352,353
 1344 917 1344 917 1353 925.5 c 128,-1,354
 1362 934 1362 934 1372 934 c 0,355,356
 1386 934 1386 934 1395 925.5 c 128,-1,357
 1404 917 1404 917 1404 903 c 0,358,359
 1404 893 1404 893 1395 884 c 128,-1,360
 1386 875 1386 875 1372 875 c 1,361,-1
 1372 875 l 1,349,350
1372 752 m 1,362,363
 1354 752 1354 752 1338.5 745 c 128,-1,364
 1323 738 1323 738 1309 728 c 0,365,366
 1299 718 1299 718 1291.5 700 c 128,-1,367
 1284 682 1284 682 1284 665 c 256,368,369
 1284 647 1284 647 1291 629.5 c 128,-1,370
 1298 612 1298 612 1309 602 c 0,371,372
 1323 588 1323 588 1338.5 581 c 128,-1,373
 1354 574 1354 574 1372 574 c 0,374,375
 1393 574 1393 574 1408.5 581 c 128,-1,376
 1424 588 1424 588 1438 602 c 0,377,378
 1448 612 1448 612 1455.5 630 c 128,-1,379
 1463 648 1463 648 1463 665 c 256,380,381
 1463 683 1463 683 1456 700.5 c 0,382,383
 1448 718 1448 718 1438 728 c 0,384,385
 1424 738 1424 738 1408.5 745 c 128,-1,386
 1393 752 1393 752 1372 752 c 1,387,-1
 1372 752 l 1,362,363
1372 634 m 1,388,389
 1362 634 1362 634 1353 642.5 c 128,-1,390
 1344 651 1344 651 1344 665 c 0,391,392
 1344 675 1344 675 1353 684 c 128,-1,393
 1362 693 1362 693 1372 693 c 0,394,395
 1386 693 1386 693 1395 684.5 c 128,-1,396
 1404 676 1404 676 1404 665 c 0,397,398
 1404 651 1404 651 1395 642.5 c 128,-1,399
 1386 634 1386 634 1372 634 c 1,400,-1
 1372 634 l 1,388,389
EndSplineSet
EndChar

StartChar: uniE61F
Encoding: 58911 58911 35
Width: 1792
Flags: W
LayerCount: 2
Fore
SplineSet
420 994 m 1,0,1
 392 994 392 994 374.5 976.5 c 0,2,3
 357 958 357 958 357 934 c 256,4,5
 357 910 357 910 374.5 892.5 c 128,-1,6
 392 875 392 875 420 875 c 0,7,8
 444 875 444 875 462 892.5 c 128,-1,9
 480 910 480 910 480 934 c 256,10,11
 480 958 480 958 462 976 c 128,-1,12
 444 994 444 994 420 994 c 1,13,-1
 420 994 l 1,0,1
598 994 m 1,14,15
 574 994 574 994 556.5 976.5 c 0,16,17
 539 958 539 958 539 934 c 256,18,19
 539 910 539 910 556.5 892.5 c 128,-1,20
 574 875 574 875 598 875 c 256,21,22
 622 875 622 875 640 892.5 c 128,-1,23
 658 910 658 910 658 934 c 256,24,25
 658 958 658 958 640.5 976 c 0,26,27
 622 994 622 994 598 994 c 1,28,-1
 598 994 l 1,14,15
1642 1232 m 1,29,-1
 1312 1232 l 1,30,-1
 1312 1530 l 1,31,-1
 480 1530 l 1,32,-1
 480 1232 l 1,33,-1
 150 1232 l 2,34,35
 136 1232 136 1232 127.5 1223 c 128,-1,36
 119 1214 119 1214 119 1200 c 2,37,-1
 119 308 l 2,38,39
 119 294 119 294 127.5 285 c 128,-1,40
 136 276 136 276 150 276 c 2,41,-1
 480 276 l 1,42,-1
 480 38 l 1,43,-1
 1312 38 l 1,44,-1
 1312 276 l 1,45,-1
 1642 276 l 2,46,47
 1656 276 1656 276 1664.5 285 c 128,-1,48
 1673 294 1673 294 1673 308 c 2,49,-1
 1673 1200 l 2,50,51
 1673 1214 1673 1214 1664.5 1223 c 128,-1,52
 1656 1232 1656 1232 1642 1232 c 1,53,-1
 1642 1232 l 1,29,-1
539 1470 m 1,54,-1
 1253 1470 l 1,55,-1
 1253 1232 l 1,56,-1
 539 1232 l 1,57,-1
 539 1470 l 1,58,-1
 539 1470 l 1,54,-1
1253 98 m 1,59,-1
 539 98 l 1,60,-1
 539 634 l 1,61,-1
 1253 634 l 1,62,-1
 1253 98 l 1,63,-1
 1253 98 l 1,59,-1
1614 336 m 1,64,-1
 1312 336 l 1,65,-1
 1312 693 l 1,66,-1
 480 693 l 1,67,-1
 480 336 l 1,68,-1
 178 336 l 1,69,-1
 178 1172 l 1,70,-1
 1614 1172 l 1,71,-1
 1614 336 l 1,72,-1
 1614 336 l 1,64,-1
EndSplineSet
EndChar

StartChar: uniE620
Encoding: 58912 58912 36
Width: 1792
Flags: W
LayerCount: 2
Fore
SplineSet
896 784 m 1,0,-1
 1732 308 l 1,1,-1
 1732 1260 l 1,2,-1
 896 784 l 1,3,-1
 896 784 l 1,0,-1
1673 410 m 1,4,-1
 1015 784 l 1,5,-1
 1673 1158 l 1,6,-1
 1673 410 l 1,7,-1
 1673 410 l 1,4,-1
60 784 m 1,8,-1
 896 308 l 1,9,-1
 896 1260 l 1,10,-1
 60 784 l 1,11,-1
 60 784 l 1,8,-1
836 410 m 1,12,-1
 182 784 l 1,13,-1
 836 1158 l 1,14,-1
 836 410 l 1,15,-1
 836 410 l 1,12,-1
EndSplineSet
EndChar

StartChar: uniE621
Encoding: 58913 58913 37
Width: 1792
Flags: W
LayerCount: 2
Fore
SplineSet
858 1530 m 1,0,-1
 917 1530 l 1,1,-1
 917 816 l 1,2,-1
 858 816 l 1,3,-1
 858 1530 l 1,4,-1
 858 1530 l 1,0,-1
1186 1410 m 1,5,-1
 1186 1344 l 1,6,7
 1266 1302 1266 1302 1335 1242.5 c 128,-1,8
 1404 1183 1404 1183 1449 1106 c 0,9,10
 1498 1029 1498 1029 1526 939.5 c 128,-1,11
 1554 850 1554 850 1554 752 c 0,12,13
 1554 619 1554 619 1501.5 498.5 c 0,14,15
 1450 378 1450 378 1362 290 c 0,16,17
 1271 199 1271 199 1151.5 148.5 c 128,-1,18
 1032 98 1032 98 896 98 c 256,19,20
 760 98 760 98 641 149 c 128,-1,21
 522 200 522 200 430 290 c 0,22,23
 342 378 342 378 290 499 c 128,-1,24
 238 620 238 620 238 752 c 0,25,26
 238 846 238 846 264 934 c 128,-1,27
 290 1022 290 1022 336 1096 c 0,28,29
 382 1173 382 1173 446.5 1232.5 c 128,-1,30
 511 1292 511 1292 588 1334 c 1,31,-1
 588 1400 l 1,32,33
 497 1358 497 1358 421.5 1291.5 c 128,-1,34
 346 1225 346 1225 294 1141 c 0,35,36
 238 1057 238 1057 208 959 c 0,37,38
 178 860 178 860 178 752 c 0,39,40
 178 605 178 605 234 474 c 0,41,42
 290 342 290 342 388 248 c 0,43,44
 486 150 486 150 617.5 94 c 128,-1,45
 749 38 749 38 896 38 c 256,46,47
 1043 38 1043 38 1174.5 94 c 128,-1,48
 1306 150 1306 150 1404 248 c 0,49,50
 1502 342 1502 342 1558 474 c 128,-1,51
 1614 606 1614 606 1614 752 c 0,52,53
 1614 864 1614 864 1582 964 c 128,-1,54
 1550 1064 1550 1064 1494 1152 c 0,55,56
 1438 1236 1438 1236 1359.5 1302 c 0,57,58
 1280 1368 1280 1368 1186 1410 c 1,59,-1
 1186 1410 l 1,5,-1
EndSplineSet
EndChar

StartChar: uniE622
Encoding: 58914 58914 38
Width: 1792
Flags: W
LayerCount: 2
Fore
SplineSet
1106 1278 m 1,0,-1
 1106 1424 l 1,1,-1
 686 1424 l 1,2,-1
 686 1278 l 1,3,-1
 178 1278 l 1,4,-1
 178 144 l 1,5,-1
 1614 144 l 1,6,-1
 1614 1278 l 1,7,-1
 1106 1278 l 1,8,-1
 1106 1278 l 1,0,-1
746 1365 m 1,9,-1
 1046 1365 l 1,10,-1
 1046 1278 l 1,11,-1
 746 1278 l 1,12,-1
 746 1365 l 1,13,-1
 746 1365 l 1,9,-1
686 1218 m 1,14,-1
 1554 1218 l 1,15,-1
 1554 738 l 1,16,-1
 1106 738 l 1,17,-1
 1106 858 l 1,18,-1
 686 858 l 1,19,-1
 686 738 l 1,20,-1
 238 738 l 1,21,-1
 238 1218 l 1,22,-1
 686 1218 l 1,23,-1
 686 1218 l 1,14,-1
1046 798 m 1,24,-1
 1046 620 l 1,25,-1
 746 620 l 1,26,-1
 746 798 l 1,27,-1
 1046 798 l 1,28,-1
 1046 798 l 1,24,-1
238 203 m 1,29,-1
 238 679 l 1,30,-1
 686 679 l 1,31,-1
 686 560 l 1,32,-1
 1106 560 l 1,33,-1
 1106 679 l 1,34,-1
 1554 679 l 1,35,-1
 1554 203 l 1,36,-1
 238 203 l 1,37,-1
 238 203 l 1,29,-1
EndSplineSet
EndChar

StartChar: uniE623
Encoding: 58915 58915 39
Width: 1792
Flags: W
LayerCount: 2
Fore
SplineSet
896 1530 m 1,0,1
 742 1530 742 1530 605.5 1472 c 0,2,3
 470 1414 470 1414 368 1312 c 256,4,5
 266 1210 266 1210 208 1074 c 128,-1,6
 150 938 150 938 150 784 c 256,7,8
 150 630 150 630 208 493.5 c 0,9,10
 266 358 266 358 368 256 c 256,11,12
 470 154 470 154 606 96 c 128,-1,13
 742 38 742 38 896 38 c 256,14,15
 1050 38 1050 38 1186.5 96 c 0,16,17
 1322 154 1322 154 1424 256 c 256,18,19
 1526 358 1526 358 1584 494 c 128,-1,20
 1642 630 1642 630 1642 784 c 256,21,22
 1642 938 1642 938 1584 1074.5 c 0,23,24
 1526 1210 1526 1210 1424 1312 c 256,25,26
 1322 1414 1322 1414 1186 1472 c 128,-1,27
 1050 1530 1050 1530 896 1530 c 1,28,-1
 896 1530 l 1,0,1
896 98 m 1,29,30
 752 98 752 98 628 152 c 128,-1,31
 504 206 504 206 410 298 c 1,32,33
 319 392 319 392 264.5 516 c 128,-1,34
 210 640 210 640 210 784 c 256,35,36
 210 928 210 928 264 1052 c 128,-1,37
 318 1176 318 1176 410 1270 c 1,38,39
 504 1361 504 1361 628 1415.5 c 128,-1,40
 752 1470 752 1470 896 1470 c 256,41,42
 1040 1470 1040 1470 1164 1416 c 128,-1,43
 1288 1362 1288 1362 1382 1270 c 1,44,45
 1473 1176 1473 1176 1527.5 1052 c 128,-1,46
 1582 928 1582 928 1582 784 c 256,47,48
 1582 640 1582 640 1528 516 c 128,-1,49
 1474 392 1474 392 1382 298 c 1,50,51
 1288 207 1288 207 1164 152.5 c 128,-1,52
 1040 98 1040 98 896 98 c 1,53,-1
 896 98 l 1,29,30
928 1232 m 1,54,-1
 864 1232 l 1,55,-1
 864 816 l 1,56,-1
 452 816 l 1,57,-1
 452 752 l 1,58,-1
 864 752 l 1,59,-1
 864 340 l 1,60,-1
 928 340 l 1,61,-1
 928 752 l 1,62,-1
 1344 752 l 1,63,-1
 1344 816 l 1,64,-1
 928 816 l 1,65,-1
 928 1232 l 1,54,-1
EndSplineSet
EndChar

StartChar: uniE624
Encoding: 58916 58916 40
Width: 1792
Flags: W
LayerCount: 2
Fore
SplineSet
420 1306 m 1,0,-1
 1316 784 l 1,1,-1
 420 262 l 1,2,-1
 420 1306 l 1,3,-1
 420 1306 l 1,0,-1
357 1410 m 1,4,-1
 357 158 l 1,5,-1
 1435 784 l 1,6,-1
 357 1410 l 1,7,-1
 357 1410 l 1,4,-1
EndSplineSet
EndChar

StartChar: uniE625
Encoding: 58917 58917 41
Width: 1792
Flags: W
LayerCount: 2
Fore
SplineSet
511 -24 m 1,0,-1
 438 326 l 1,1,-1
 84 402 l 1,2,-1
 154 542 l 1,3,-1
 480 560 l 1,4,5
 490 578 490 578 514.5 606 c 0,6,7
 538 634 538 634 556 651 c 2,8,-1
 850 948 l 1,9,-1
 234 1250 l 1,10,-1
 392 1404 l 1,11,-1
 1172 1267 l 1,12,-1
 1449 1544 l 2,13,14
 1459 1558 1459 1558 1475 1566.5 c 0,15,16
 1490 1575 1490 1575 1508 1582 c 0,17,18
 1529 1589 1529 1589 1550.5 1590.5 c 128,-1,19
 1572 1592 1572 1592 1596 1592 c 0,20,21
 1628 1592 1628 1592 1650.5 1589 c 0,22,23
 1672 1586 1672 1586 1676 1586 c 2,24,-1
 1690 1582 l 1,25,-1
 1698 1564 l 2,26,27
 1708 1532 1708 1532 1710 1499 c 128,-1,28
 1712 1466 1712 1466 1704 1435 c 0,29,30
 1700 1403 1700 1403 1688 1377 c 0,31,32
 1676 1352 1676 1352 1659 1334 c 2,33,-1
 1382 1054 l 1,34,-1
 1519 276 l 1,35,-1
 1362 122 l 1,36,-1
 1060 735 l 1,37,-1
 788 458 l 2,38,39
 764 437 764 437 727 402.5 c 128,-1,40
 690 368 690 368 672 354 c 1,41,-1
 648 49 l 1,42,-1
 511 -24 l 1,43,-1
 511 -24 l 1,0,-1
172 444 m 1,44,-1
 486 374 l 1,45,-1
 553 63 l 1,46,-1
 592 84 l 1,47,-1
 616 382 l 1,48,-1
 623 388 l 1,49,-1
 670.5 432 l 0,50,51
 718 476 718 476 746 500 c 2,52,-1
 1078 836 l 1,53,-1
 1379 224 l 1,54,-1
 1452 298 l 1,55,-1
 1316 1074 l 1,56,-1
 1617 1376 l 2,57,58
 1638 1394 1638 1394 1647 1437 c 128,-1,59
 1656 1480 1656 1480 1645 1530 c 1,60,61
 1635 1534 1635 1534 1622.5 1533.5 c 128,-1,62
 1610 1533 1610 1533 1596 1533 c 0,63,64
 1572 1533 1572 1533 1542 1527.5 c 128,-1,65
 1512 1522 1512 1522 1491 1502 c 2,66,-1
 1194 1204 l 1,67,-1
 413 1340 l 1,68,-1
 336 1267 l 1,69,-1
 952 962 l 1,70,-1
 598 609 l 2,71,72
 577 588 577 588 547.5 551 c 128,-1,73
 518 514 518 514 518 511 c 2,74,-1
 511 500 l 1,75,-1
 192 483 l 1,76,-1
 172 444 l 1,77,-1
 172 444 l 1,44,-1
EndSplineSet
EndChar

StartChar: uniE626
Encoding: 58918 58918 42
Width: 1792
Flags: W
LayerCount: 2
Fore
SplineSet
1494 1200 m 1,0,-1
 1494 1442 l 1,1,-1
 91 1442 l 1,2,-1
 91 368 l 1,3,-1
 298 368 l 1,4,-1
 298 126 l 1,5,-1
 1701 126 l 1,6,-1
 1701 1200 l 1,7,-1
 1494 1200 l 1,8,-1
 1494 1200 l 1,0,-1
150 427 m 1,9,-1
 150 1382 l 1,10,-1
 1435 1382 l 1,11,-1
 1435 1200 l 1,12,-1
 298 1200 l 1,13,-1
 298 427 l 1,14,-1
 150 427 l 1,15,-1
 150 427 l 1,9,-1
1642 186 m 1,16,-1
 357 186 l 1,17,-1
 357 1141 l 1,18,-1
 1642 1141 l 1,19,-1
 1642 186 l 1,20,-1
 1642 186 l 1,16,-1
EndSplineSet
EndChar

StartChar: uniE627
Encoding: 58919 58919 43
Width: 1792
Flags: W
LayerCount: 2
Fore
SplineSet
1292 1589 m 1,0,-1
 500 1589 l 2,1,2
 482 1589 482 1589 467 1583.5 c 128,-1,3
 452 1578 452 1578 441 1568 c 0,4,5
 431 1554 431 1554 425.5 1540 c 128,-1,6
 420 1526 420 1526 420 1508 c 2,7,-1
 420 60 l 2,8,9
 420 42 420 42 425 28 c 128,-1,10
 430 14 430 14 441 0 c 0,11,12
 451 -10 451 -10 467 -15.5 c 0,13,14
 482 -21 482 -21 500 -21 c 2,15,-1
 1292 -21 l 2,16,17
 1310 -21 1310 -21 1325 -15.5 c 128,-1,18
 1340 -10 1340 -10 1351 0 c 0,19,20
 1361 14 1361 14 1366.5 28 c 128,-1,21
 1372 42 1372 42 1372 60 c 2,22,-1
 1372 1508 l 2,23,24
 1372 1526 1372 1526 1367 1540 c 128,-1,25
 1362 1554 1362 1554 1351 1568 c 0,26,27
 1341 1578 1341 1578 1325 1583.5 c 0,28,29
 1310 1589 1310 1589 1292 1589 c 1,30,-1
 1292 1589 l 1,0,-1
1312 60 m 1,31,32
 1312 50 1312 50 1307 44 c 128,-1,33
 1302 38 1302 38 1292 38 c 2,34,-1
 500 38 l 2,35,36
 490 38 490 38 485 43.5 c 0,37,38
 480 50 480 50 480 60 c 2,39,-1
 480 336 l 1,40,-1
 1312 336 l 1,41,-1
 1312 60 l 1,42,-1
 1312 60 l 1,31,32
1312 396 m 1,43,-1
 480 396 l 1,44,-1
 480 1351 l 1,45,-1
 1312 1351 l 1,46,-1
 1312 396 l 1,47,-1
 1312 396 l 1,43,-1
1312 1410 m 1,48,-1
 480 1410 l 1,49,-1
 480 1508 l 2,50,51
 480 1518 480 1518 485 1524 c 128,-1,52
 490 1530 490 1530 500 1530 c 2,53,-1
 1292 1530 l 2,54,55
 1302 1530 1302 1530 1307 1524.5 c 0,56,57
 1312 1518 1312 1518 1312 1508 c 2,58,-1
 1312 1410 l 1,59,-1
 1312 1410 l 1,48,-1
805 217 m 1,60,-1
 987 217 l 1,61,-1
 987 158 l 1,62,-1
 805 158 l 1,63,-1
 805 217 l 1,64,-1
 805 217 l 1,60,-1
EndSplineSet
EndChar

StartChar: uniE628
Encoding: 58920 58920 44
Width: 1792
Flags: W
LayerCount: 2
Fore
SplineSet
1722 1354 m 1,0,-1
 1484 1592 l 1,1,-1
 1428 1536 l 1,2,-1
 1344 1617 l 2,3,4
 1337 1624 1337 1624 1324.5 1624 c 128,-1,5
 1312 1624 1312 1624 1302 1617 c 2,6,-1
 819 1134 l 2,7,8
 812 1124 812 1124 812 1111.5 c 128,-1,9
 812 1099 812 1099 819 1092 c 0,10,11
 823 1085 823 1085 829.5 1083.5 c 128,-1,12
 836 1082 836 1082 840 1082 c 0,13,14
 847 1082 847 1082 852.5 1083.5 c 128,-1,15
 858 1085 858 1085 861 1092 c 2,16,-1
 1323 1554 l 1,17,-1
 1386 1491 l 1,18,-1
 360 466 l 1,19,-1
 427 399 l 1,20,21
 406 409 406 409 383 414.5 c 128,-1,22
 360 420 360 420 336 420 c 0,23,24
 315 420 315 420 295.5 416.5 c 0,25,26
 276 412 276 412 256 402 c 0,27,28
 238 395 238 395 220.5 384.5 c 128,-1,29
 203 374 203 374 189 357 c 0,30,31
 185 353 185 353 181.5 349.5 c 128,-1,32
 178 346 178 346 175 343 c 2,33,-1
 173.5 341.5 l 0,34,-1
 172 340 l 2,35,36
 168 336 168 336 166 334 c 128,-1,37
 164 332 164 332 164 329 c 1,38,39
 160 329 160 329 160.5 327.5 c 128,-1,40
 161 326 161 326 161 322 c 0,41,42
 95 224 95 224 82.5 84 c 0,43,-1
 70 -56 l 257,44,45
 75 -56 l 0,46,47
 80 -56 80 -56 94 -56 c 0,48,49
 118 -56 118 -56 167.5 -52.5 c 0,50,51
 217 -48 217 -48 273 -38 c 256,52,53
 329 -28 329 -28 385 -3.5 c 128,-1,54
 441 21 441 21 483 63 c 0,55,56
 507 87 507 87 521.5 117 c 0,57,58
 536 146 536 146 542 178 c 0,59,60
 546 210 546 210 542.5 241.5 c 0,61,62
 540 273 540 273 522 301 c 1,63,-1
 598 228 l 1,64,-1
 1722 1354 l 1,65,-1
 1722 1354 l 1,0,-1
441 105 m 1,66,67
 417 81 417 81 383.5 63.5 c 128,-1,68
 350 46 350 46 315 35 c 0,69,70
 277 21 277 21 241.5 15.5 c 128,-1,71
 206 10 206 10 175 7 c 1,72,-1
 312 144 l 1,73,-1
 270 186 l 1,74,-1
 136 56 l 1,75,76
 143 84 143 84 148.5 117 c 128,-1,77
 154 150 154 150 161 178 c 0,78,79
 171 210 171 210 183.5 240 c 128,-1,80
 196 270 196 270 210 290 c 1,81,-1
 210 294 l 1,82,-1
 214 294 l 1,83,84
 214 298 214 298 215.5 299.5 c 0,85,-1
 217 301 l 2,86,87
 217 305 217 305 218.5 304.5 c 128,-1,88
 220 304 220 304 220 308 c 1,89,90
 224 308 224 308 226 311.5 c 128,-1,91
 228 315 228 315 231 315 c 0,92,93
 241 325 241 325 253.5 334 c 128,-1,94
 266 343 266 343 276 350 c 1,95,96
 290 354 290 354 306 357 c 128,-1,97
 322 360 322 360 336 360 c 256,98,99
 350 360 350 360 364 357 c 128,-1,100
 378 354 378 354 392 350 c 0,101,102
 406 343 406 343 418 334.5 c 128,-1,103
 430 326 430 326 441 315 c 0,104,105
 462 294 462 294 474 266 c 128,-1,106
 486 238 486 238 486 210 c 256,107,108
 486 182 486 182 474 154 c 128,-1,109
 462 126 462 126 441 105 c 1,110,-1
 441 105 l 1,66,67
1638 1354 m 1,111,-1
 1284 1001 l 1,112,-1
 1130 1155 l 1,113,-1
 1484 1508 l 1,114,-1
 1638 1354 l 1,115,-1
 1638 1354 l 1,111,-1
1088 1113 m 1,116,-1
 1242 959 l 1,117,-1
 598 312 l 1,118,-1
 444 466 l 1,119,-1
 1088 1113 l 1,120,-1
 1088 1113 l 1,116,-1
EndSplineSet
EndChar

StartChar: uniE629
Encoding: 58921 58921 45
Width: 1792
Flags: W
LayerCount: 2
Fore
SplineSet
693 574 m 1,0,-1
 959 38 l 1,1,-1
 1642 1530 l 1,2,-1
 150 816 l 1,3,-1
 693 574 l 1,4,-1
 693 574 l 1,0,-1
710 634 m 1,5,-1
 294 816 l 1,6,-1
 1435 1365 l 1,7,-1
 710 634 l 1,8,-1
 710 634 l 1,5,-1
959 175 m 1,9,-1
 752 592 l 1,10,-1
 1484 1330 l 1,11,-1
 959 175 l 1,12,-1
 959 175 l 1,9,-1
EndSplineSet
EndChar

StartChar: uniE62A
Encoding: 58922 58922 46
Width: 1792
Flags: W
LayerCount: 2
Fore
SplineSet
1568 1382 m 1,0,-1
 1568 1474 l 2,1,2
 1568 1506 1568 1506 1556 1532 c 128,-1,3
 1544 1558 1544 1558 1526 1578 c 1,4,5
 1505 1596 1505 1596 1478.5 1608 c 128,-1,6
 1452 1620 1452 1620 1421 1620 c 2,7,-1
 458 1620 l 2,8,9
 430 1620 430 1620 404 1608 c 128,-1,10
 378 1596 378 1596 357 1578 c 0,11,12
 336 1557 336 1557 325.5 1531 c 0,13,14
 315 1506 315 1506 315 1474 c 2,15,-1
 315 1382 l 1,16,-1
 287 1382 l 2,17,18
 263 1382 263 1382 240 1372 c 0,19,20
 218 1362 218 1362 200 1344 c 0,21,22
 182 1330 182 1330 173 1307 c 128,-1,23
 164 1284 164 1284 164 1260 c 2,24,-1
 164 1054 l 2,25,26
 164 1030 164 1030 173 1007 c 128,-1,27
 182 984 182 984 200 970 c 0,28,29
 218 952 218 952 240 941.5 c 128,-1,30
 262 931 262 931 287 931 c 2,31,-1
 847 934 l 2,32,33
 875 934 875 934 892.5 915 c 128,-1,34
 910 896 910 896 910 872 c 2,35,-1
 910 665 l 1,36,-1
 791 665 l 1,37,-1
 791 -52 l 1,38,-1
 1088 -52 l 1,39,-1
 1088 665 l 1,40,-1
 970 665 l 1,41,-1
 970 872 l 2,42,43
 970 896 970 896 961 919 c 128,-1,44
 952 942 952 942 934 956 c 0,45,46
 916 974 916 974 895.5 984 c 128,-1,47
 875 994 875 994 847 994 c 2,48,-1
 774 994 l 1,49,-1
 774 994 l 1,50,-1
 287 994 l 2,51,52
 263 994 263 994 243.5 1011.5 c 0,53,54
 224 1030 224 1030 224 1054 c 2,55,-1
 224 1260 l 2,56,57
 224 1284 224 1284 243 1303.5 c 128,-1,58
 262 1323 262 1323 287 1323 c 2,59,-1
 315 1323 l 1,60,-1
 315 1228 l 2,61,62
 315 1196 315 1196 325.5 1170 c 128,-1,63
 336 1144 336 1144 357 1127 c 0,64,65
 378 1106 378 1106 404 1094 c 128,-1,66
 430 1082 430 1082 458 1082 c 2,67,-1
 1421 1082 l 2,68,69
 1453 1082 1453 1082 1479 1094 c 128,-1,70
 1505 1106 1505 1106 1526 1127 c 0,71,72
 1544 1145 1544 1145 1556 1171 c 0,73,74
 1568 1196 1568 1196 1568 1228 c 2,75,-1
 1568 1323 l 1,76,-1
 1628 1323 l 1,77,-1
 1628 1382 l 1,78,-1
 1568 1382 l 1,79,-1
 1568 1382 l 1,0,-1
1029 7 m 1,80,-1
 850 7 l 1,81,-1
 850 606 l 1,82,-1
 1029 606 l 1,83,-1
 1029 7 l 1,84,-1
 1029 7 l 1,80,-1
1508 1228 m 1,85,86
 1508 1210 1508 1210 1501 1195 c 128,-1,87
 1494 1180 1494 1180 1484 1169 c 0,88,89
 1470 1155 1470 1155 1454 1148 c 128,-1,90
 1438 1141 1438 1141 1421 1141 c 2,91,-1
 458 1141 l 2,92,93
 440 1141 440 1141 425 1148 c 128,-1,94
 410 1155 410 1155 399 1169 c 0,95,96
 389 1179 389 1179 381.5 1195 c 0,97,98
 374 1210 374 1210 374 1228 c 2,99,-1
 374 1474 l 2,100,101
 374 1492 374 1492 381 1507 c 128,-1,102
 388 1522 388 1522 399 1536 c 0,103,104
 409 1546 409 1546 425 1553.5 c 0,105,106
 440 1561 440 1561 458 1561 c 2,107,-1
 1421 1561 l 2,108,109
 1439 1561 1439 1561 1454.5 1554 c 0,110,111
 1470 1546 1470 1546 1484 1536 c 1,112,113
 1494 1522 1494 1522 1501 1506.5 c 0,114,115
 1508 1492 1508 1492 1508 1474 c 2,116,-1
 1508 1228 l 1,117,-1
 1508 1228 l 1,85,86
EndSplineSet
EndChar

StartChar: uniE62B
Encoding: 58923 58923 47
Width: 1792
Flags: W
LayerCount: 2
Fore
SplineSet
896 1502 m 1,0,-1
 420 1502 l 2,1,2
 364 1502 364 1502 320 1484 c 128,-1,3
 276 1466 276 1466 245 1435 c 256,4,5
 213 1403 213 1403 195.5 1359.5 c 128,-1,6
 178 1316 178 1316 178 1260 c 2,7,-1
 178 270 l 2,8,9
 178 252 178 252 185 217 c 128,-1,10
 192 182 192 182 217 150 c 0,11,12
 241 115 241 115 290.5 90.5 c 128,-1,13
 340 66 340 66 424 66 c 2,14,-1
 1614 66 l 1,15,-1
 1614 1502 l 1,16,-1
 896 1502 l 1,17,-1
 896 1502 l 1,0,-1
836 1442 m 1,18,-1
 836 868 l 1,19,-1
 690 1004 l 1,20,-1
 528 864 l 1,21,-1
 528 1442 l 1,22,-1
 836 1442 l 1,23,-1
 836 1442 l 1,18,-1
420 1442 m 1,24,-1
 469 1442 l 1,25,-1
 469 738 l 1,26,-1
 690 924 l 1,27,-1
 896 735 l 1,28,-1
 896 1442 l 1,29,-1
 1554 1442 l 1,30,-1
 1554 455 l 1,31,-1
 420 455 l 2,32,33
 388 455 388 455 364 451.5 c 128,-1,34
 340 448 340 448 315 441 c 1,35,36
 294 431 294 431 275 420.5 c 128,-1,37
 256 410 256 410 238 392 c 1,38,-1
 238 1260 l 2,39,40
 238 1302 238 1302 252 1335 c 128,-1,41
 266 1368 266 1368 287 1393 c 1,42,43
 311 1414 311 1414 344.5 1428 c 128,-1,44
 378 1442 378 1442 420 1442 c 1,45,-1
 420 1442 l 1,24,-1
424 126 m 1,46,47
 372 126 372 126 338 136.5 c 0,48,49
 304 146 304 146 284 164 c 256,50,51
 263 182 263 182 252.5 205 c 128,-1,52
 242 228 242 228 242 248 c 0,53,54
 242 283 242 283 254 311.5 c 128,-1,55
 266 340 266 340 287 357 c 0,56,57
 311 375 311 375 344.5 385.5 c 128,-1,58
 378 396 378 396 420 396 c 2,59,-1
 1554 396 l 1,60,-1
 1554 126 l 1,61,-1
 424 126 l 1,62,-1
 424 126 l 1,46,47
EndSplineSet
EndChar

StartChar: uniE62C
Encoding: 58924 58924 48
Width: 1792
Flags: W
LayerCount: 2
Fore
SplineSet
1554 1446 m 1,0,1
 1544 1460 1544 1460 1526 1465 c 128,-1,2
 1508 1470 1508 1470 1491 1470 c 256,3,4
 1473 1470 1473 1470 1457.5 1465 c 128,-1,5
 1442 1460 1442 1460 1428 1446 c 2,6,-1
 1166 1183 l 1,7,-1
 1166 1232 l 1,8,-1
 210 1232 l 1,9,-1
 210 98 l 1,10,-1
 1344 98 l 1,11,-1
 1344 1054 l 1,12,-1
 1288 1054 l 1,13,-1
 1554 1320 l 2,14,15
 1568 1330 1568 1330 1575 1347.5 c 0,16,17
 1582 1364 1582 1364 1582 1382 c 256,18,19
 1582 1400 1582 1400 1575 1416 c 128,-1,20
 1568 1432 1568 1432 1554 1446 c 1,21,-1
 1554 1446 l 1,0,1
1284 158 m 1,22,-1
 270 158 l 1,23,-1
 270 1172 l 1,24,-1
 1155 1172 l 1,25,-1
 690 704 l 1,26,-1
 690 574 l 1,27,-1
 812 574 l 1,28,-1
 1284 1046 l 1,29,-1
 1284 158 l 1,30,-1
 1284 158 l 1,22,-1
1512 1362 m 1,31,-1
 788 634 l 1,32,-1
 749 634 l 1,33,-1
 749 679 l 1,34,-1
 1470 1404 l 2,35,36
 1477 1408 1477 1408 1482.5 1409 c 128,-1,37
 1488 1410 1488 1410 1491 1410 c 256,38,39
 1495 1410 1495 1410 1501.5 1408.5 c 0,40,41
 1508 1408 1508 1408 1512 1404 c 0,42,43
 1519 1397 1519 1397 1520.5 1391.5 c 128,-1,44
 1522 1386 1522 1386 1522 1382 c 256,45,46
 1522 1378 1522 1378 1520.5 1371.5 c 0,47,48
 1519 1366 1519 1366 1512 1362 c 1,49,-1
 1512 1362 l 1,31,-1
EndSplineSet
EndChar

StartChar: uniE62D
Encoding: 58925 58925 49
Width: 1792
Flags: W
LayerCount: 2
Fore
SplineSet
60 1260 m 1,0,-1
 60 308 l 1,1,-1
 896 784 l 1,2,-1
 60 1260 l 1,3,-1
 60 1260 l 1,0,-1
119 1158 m 1,4,-1
 777 784 l 1,5,-1
 119 410 l 1,6,-1
 119 1158 l 1,7,-1
 119 1158 l 1,4,-1
896 1260 m 1,8,-1
 896 308 l 1,9,-1
 1732 784 l 1,10,-1
 896 1260 l 1,11,-1
 896 1260 l 1,8,-1
956 1158 m 1,12,-1
 1610 784 l 1,13,-1
 956 410 l 1,14,-1
 956 1158 l 1,15,-1
 956 1158 l 1,12,-1
EndSplineSet
EndChar

StartChar: uniE62E
Encoding: 58926 58926 50
Width: 1792
Flags: W
LayerCount: 2
Fore
SplineSet
508 1530 m 1,0,-1
 508 693 l 1,1,-1
 150 693 l 1,2,3
 150 493.5 l 0,4,5
 150 294 150 294 150 206 c 0,6,7
 150 160 150 160 168 129 c 128,-1,8
 186 98 186 98 217 77 c 0,9,10
 245 56 245 56 278.5 47 c 128,-1,11
 312 38 312 38 343 38 c 256,12,13
 375 38 375 38 523.5 38 c 128,-1,14
 672 38 672 38 854 38 c 0,15,16
 1040 38 1040 38 1213 38 c 128,-1,17
 1386 38 1386 38 1463 38 c 0,18,19
 1498 38 1498 38 1529.5 52 c 0,20,21
 1562 66 1562 66 1586 94 c 1,22,23
 1614 118 1614 118 1628 150 c 128,-1,24
 1642 182 1642 182 1642 217 c 0,25,26
 1642 266 1642 266 1642 898 c 0,27,-1
 1642 1530 l 1,28,-1
 508 1530 l 1,29,-1
 508 1530 l 1,0,-1
343 98 m 1,30,31
 315 98 315 98 262.5 119 c 128,-1,32
 210 140 210 140 210 206 c 2,33,-1
 210 634 l 1,34,-1
 508 634 l 1,35,-1
 508 231 l 2,36,37
 508 217 508 217 499 194.5 c 128,-1,38
 490 172 490 172 472 150 c 256,39,40
 454 129 454 129 428 113.5 c 128,-1,41
 402 98 402 98 374 98 c 2,42,-1
 343 98 l 1,43,-1
 343 98 l 1,30,31
1582 217 m 1,44,45
 1582 196 1582 196 1571.5 173 c 0,46,47
 1562 150 1562 150 1544 136 c 1,48,49
 1530 118 1530 118 1507 108 c 128,-1,50
 1484 98 1484 98 1463 98 c 2,51,-1
 504 98 l 1,52,53
 522 112 522 112 532 129.5 c 0,54,55
 542 146 542 146 553 164 c 1,56,57
 560 185 560 185 563.5 201 c 128,-1,58
 567 217 567 217 567 231 c 2,59,-1
 567 1470 l 1,60,-1
 1582 1470 l 1,61,-1
 1582 217 l 1,62,-1
 1582 217 l 1,44,45
686 1351 m 1,63,-1
 1463 1351 l 1,64,-1
 1463 1292 l 1,65,-1
 686 1292 l 1,66,-1
 686 1351 l 1,67,-1
 686 1351 l 1,63,-1
686 546 m 1,68,-1
 1463 546 l 1,69,-1
 1463 486 l 1,70,-1
 686 486 l 1,71,-1
 686 546 l 1,72,-1
 686 546 l 1,68,-1
686 336 m 1,73,-1
 1463 336 l 1,74,-1
 1463 276 l 1,75,-1
 686 276 l 1,76,-1
 686 336 l 1,77,-1
 686 336 l 1,73,-1
1463 1141 m 1,78,-1
 686 1141 l 1,79,-1
 686 693 l 1,80,-1
 1463 693 l 1,81,-1
 1463 1141 l 1,82,-1
 1463 1141 l 1,78,-1
1404 752 m 1,83,-1
 746 752 l 1,84,-1
 746 1082 l 1,85,-1
 1404 1082 l 1,86,-1
 1404 752 l 1,87,-1
 1404 752 l 1,83,-1
EndSplineSet
EndChar

StartChar: uniE62F
Encoding: 58927 58927 51
Width: 1792
Flags: W
LayerCount: 2
Fore
SplineSet
150 1200 m 1,0,-1
 928 1200 l 1,1,-1
 928 1141 l 1,2,-1
 150 1141 l 1,3,-1
 150 1200 l 1,4,-1
 150 1200 l 1,0,-1
150 934 m 1,5,-1
 928 934 l 1,6,-1
 928 875 l 1,7,-1
 150 875 l 1,8,-1
 150 934 l 1,9,-1
 150 934 l 1,5,-1
150 665 m 1,10,-1
 928 665 l 1,11,-1
 928 606 l 1,12,-1
 150 606 l 1,13,-1
 150 665 l 1,14,-1
 150 665 l 1,10,-1
1225 1166 m 1,15,-1
 1642 1113 l 1,16,17
 1642 1225 1642 1225 1601.5 1295 c 0,18,19
 1560 1364 1560 1364 1494 1410 c 0,20,21
 1424 1456 1424 1456 1338.5 1482 c 0,22,23
 1254 1508 1254 1508 1166 1530 c 1,24,-1
 1166 396 l 1,25,26
 1138 396 1138 396 1094 396 c 128,-1,27
 1050 396 1050 396 980 396 c 0,28,29
 914 396 914 396 870 380 c 128,-1,30
 826 364 826 364 798 340 c 256,31,32
 770 316 770 316 758 282 c 128,-1,33
 746 248 746 248 746 217 c 0,34,35
 746 193 746 193 758 161.5 c 128,-1,36
 770 130 770 130 798 102 c 0,37,38
 822 74 822 74 869.5 56 c 128,-1,39
 917 38 917 38 987 38 c 0,40,41
 1085 38 1085 38 1134 73 c 128,-1,42
 1183 108 1183 108 1204 161 c 0,43,44
 1225 217 1225 217 1225 278.5 c 128,-1,45
 1225 340 1225 340 1225 396 c 2,46,-1
 1225 1166 l 1,47,-1
 1225 1166 l 1,15,-1
1578 1180 m 1,48,-1
 1225 1225 l 1,49,-1
 1225 1452 l 1,50,51
 1299 1431 1299 1431 1360 1410.5 c 0,52,53
 1420 1390 1420 1390 1466 1358 c 0,54,55
 1508 1326 1508 1326 1538 1284 c 128,-1,56
 1568 1242 1568 1242 1578 1180 c 1,57,-1
 1578 1180 l 1,48,-1
1120 140 m 1,58,59
 1110 130 1110 130 1097.5 121 c 0,60,61
 1086 112 1086 112 1068 108 c 0,62,63
 1050 101 1050 101 1029 99.5 c 128,-1,64
 1008 98 1008 98 987 98 c 0,65,66
 857 98 857 98 831 150.5 c 128,-1,67
 805 203 805 203 805 217 c 0,68,69
 805 245 805 245 817.5 267.5 c 128,-1,70
 830 290 830 290 850 304 c 0,71,72
 874 322 874 322 906 329 c 128,-1,73
 938 336 938 336 980 336 c 2,74,-1
 1166 336 l 1,75,-1
 1166 290 l 1,76,-1
 1166 290 l 1,77,78
 1166 266 1166 266 1162 245 c 128,-1,79
 1158 224 1158 224 1155 203 c 0,80,81
 1151 185 1151 185 1142.5 167.5 c 128,-1,82
 1134 150 1134 150 1120 140 c 1,83,-1
 1120 140 l 1,58,59
EndSplineSet
EndChar

StartChar: uniE630
Encoding: 58928 58928 52
Width: 1792
Flags: W
LayerCount: 2
Fore
SplineSet
1614 1600 m 1,0,-1
 626 1250 l 1,1,-1
 626 385 l 1,2,3
 608 406 608 406 587.5 423.5 c 0,4,5
 566 442 566 442 542 452 c 0,6,7
 518 466 518 466 490 471 c 128,-1,8
 462 476 462 476 434 476 c 0,9,10
 382 476 382 476 334.5 457 c 0,11,12
 288 438 288 438 256 402 c 0,13,14
 221 367 221 367 199.5 321.5 c 128,-1,15
 178 276 178 276 178 224 c 256,16,17
 178 172 178 172 199 124.5 c 0,18,19
 220 78 220 78 256 46 c 1,20,21
 288 11 288 11 335 -10.5 c 128,-1,22
 382 -32 382 -32 434 -32 c 256,23,24
 486 -32 486 -32 532 -12.5 c 128,-1,25
 578 7 578 7 612 42 c 0,26,27
 644 77 644 77 665 122.5 c 128,-1,28
 686 168 686 168 686 220 c 1,29,-1
 686 220 l 1,30,-1
 686 1208 l 1,31,-1
 1554 1516 l 1,32,-1
 1554 714 l 1,33,34
 1536 735 1536 735 1513.5 752.5 c 0,35,36
 1490 770 1490 770 1466 780 c 256,37,38
 1442 790 1442 790 1416 797.5 c 128,-1,39
 1390 805 1390 805 1358 805 c 0,40,41
 1306 805 1306 805 1260 785.5 c 128,-1,42
 1214 766 1214 766 1180 732 c 256,43,44
 1145 697 1145 697 1125.5 651.5 c 128,-1,45
 1106 606 1106 606 1106 553 c 256,46,47
 1106 501 1106 501 1125 453.5 c 128,-1,48
 1144 406 1144 406 1180 371 c 0,49,50
 1215 339 1215 339 1260.5 318.5 c 128,-1,51
 1306 298 1306 298 1358 298 c 256,52,53
 1410 298 1410 298 1457.5 319 c 0,54,55
 1504 340 1504 340 1536 371 c 0,56,57
 1571 406 1571 406 1592.5 453 c 128,-1,58
 1614 500 1614 500 1614 553 c 0,59,60
 1614 557 1614 557 1614 560.5 c 128,-1,61
 1614 564 1614 564 1614 567 c 1,62,-1
 1614 567 l 1,63,-1
 1614 1600 l 1,64,-1
 1614 1600 l 1,0,-1
434 28 m 1,65,66
 392 28 392 28 357 44 c 128,-1,67
 322 60 322 60 298 88 c 1,68,69
 270 112 270 112 254 147 c 128,-1,70
 238 182 238 182 238 224 c 0,71,72
 238 262 238 262 254 297 c 128,-1,73
 270 332 270 332 298 360 c 0,74,75
 322 388 322 388 357 402 c 128,-1,76
 392 416 392 416 434 416 c 0,77,78
 472 416 472 416 507 402 c 128,-1,79
 542 388 542 388 570 360 c 256,80,81
 598 332 598 332 612 297 c 128,-1,82
 626 262 626 262 626 224 c 0,83,84
 626 182 626 182 612 147 c 128,-1,85
 598 112 598 112 570 88 c 0,86,87
 542 60 542 60 507 44 c 128,-1,88
 472 28 472 28 434 28 c 1,89,-1
 434 28 l 1,65,66
1358 357 m 1,90,91
 1320 357 1320 357 1285 372.5 c 128,-1,92
 1250 388 1250 388 1222 413 c 0,93,94
 1194 441 1194 441 1180 476 c 128,-1,95
 1166 511 1166 511 1166 553 c 0,96,97
 1166 591 1166 591 1180 626.5 c 128,-1,98
 1194 662 1194 662 1222 690 c 0,99,100
 1250 714 1250 714 1285 730 c 128,-1,101
 1320 746 1320 746 1358 746 c 0,102,103
 1400 746 1400 746 1435 730 c 128,-1,104
 1470 714 1470 714 1494 690 c 0,105,106
 1522 662 1522 662 1538 627 c 128,-1,107
 1554 592 1554 592 1554 553 c 0,108,109
 1554 511 1554 511 1538 476 c 128,-1,110
 1522 441 1522 441 1494 413 c 0,111,112
 1470 389 1470 389 1435 373 c 128,-1,113
 1400 357 1400 357 1358 357 c 1,114,-1
 1358 357 l 1,90,91
EndSplineSet
EndChar

StartChar: uniE631
Encoding: 58929 58929 53
Width: 1792
Flags: W
LayerCount: 2
Fore
SplineSet
928 1200 m 1,0,-1
 928 1292 l 2,1,2
 928 1313 928 1313 961 1339 c 128,-1,3
 994 1365 994 1365 1029 1386 c 0,4,5
 1053 1400 1053 1400 1077.5 1416 c 128,-1,6
 1102 1432 1102 1432 1124 1449 c 1,7,8
 1142 1470 1142 1470 1154 1489 c 128,-1,9
 1166 1508 1166 1508 1166 1533 c 2,10,-1
 1166 1680 l 1,11,-1
 1106 1680 l 1,12,-1
 1106 1533 l 2,13,14
 1106 1509 1106 1509 1069 1484.5 c 128,-1,15
 1032 1460 1032 1460 998 1435 c 0,16,17
 974 1421 974 1421 951 1405.5 c 128,-1,18
 928 1390 928 1390 906 1372 c 0,19,20
 888 1354 888 1354 876 1335 c 128,-1,21
 864 1316 864 1316 864 1292 c 2,22,-1
 864 1200 l 1,23,24
 776 1193 776 1193 701 1158.5 c 128,-1,25
 626 1124 626 1124 570 1064 c 0,26,27
 514 1008 514 1008 481 931 c 128,-1,28
 448 854 448 854 448 766 c 2,29,-1
 448 322 l 2,30,31
 448 234 448 234 483 154 c 128,-1,32
 518 74 518 74 581 14 c 0,33,34
 641 -42 641 -42 723 -77 c 128,-1,35
 805 -112 805 -112 896 -112 c 256,36,37
 987 -112 987 -112 1069.5 -77 c 128,-1,38
 1152 -42 1152 -42 1211 14 c 0,39,40
 1274 74 1274 74 1309 154 c 128,-1,41
 1344 234 1344 234 1344 322 c 2,42,-1
 1344 766 l 2,43,44
 1344 854 1344 854 1311 931 c 128,-1,45
 1278 1008 1278 1008 1222 1064 c 0,46,47
 1166 1124 1166 1124 1090.5 1159 c 0,48,49
 1016 1194 1016 1194 928 1200 c 1,50,-1
 928 1200 l 1,0,-1
1284 766 m 1,51,-1
 1284 724 l 1,52,-1
 928 724 l 1,53,-1
 928 1141 l 1,54,55
 1002 1134 1002 1134 1066 1102.5 c 128,-1,56
 1130 1071 1130 1071 1180 1022 c 256,57,58
 1229 973 1229 973 1256.5 906.5 c 128,-1,59
 1284 840 1284 840 1284 766 c 1,60,-1
 1284 766 l 1,51,-1
508 766 m 1,61,62
 508 840 508 840 536 906.5 c 128,-1,63
 564 973 564 973 612 1022 c 256,64,65
 661 1071 661 1071 726 1102.5 c 0,66,67
 790 1134 790 1134 864 1141 c 1,68,-1
 864 724 l 1,69,-1
 508 724 l 1,70,-1
 508 766 l 1,71,-1
 508 766 l 1,61,62
896 -52 m 1,72,73
 816 -52 816 -52 746 -22.5 c 0,74,75
 676 8 676 8 623 60 c 0,76,77
 571 109 571 109 539.5 177 c 128,-1,78
 508 245 508 245 508 322 c 2,79,-1
 508 665 l 1,80,-1
 1284 665 l 1,81,-1
 1284 322 l 2,82,83
 1284 245 1284 245 1253 176.5 c 128,-1,84
 1222 108 1222 108 1169 60 c 0,85,86
 1117 8 1117 8 1046.5 -22 c 128,-1,87
 976 -52 976 -52 896 -52 c 1,88,-1
 896 -52 l 1,72,73
EndSplineSet
EndChar

StartChar: uniE632
Encoding: 58930 58930 54
Width: 1792
Flags: W
LayerCount: 2
Fore
SplineSet
178 962 m 1,0,1
 143 962 143 962 110 948 c 0,2,3
 76 934 76 934 52 910 c 256,4,5
 28 886 28 886 14 854 c 128,-1,6
 0 822 0 822 0 784 c 256,7,8
 0 746 0 746 14 714 c 128,-1,9
 28 682 28 682 52 658 c 256,10,11
 76 634 76 634 110 620 c 128,-1,12
 144 606 144 606 178 606 c 0,13,14
 216 606 216 606 250 620 c 128,-1,15
 284 634 284 634 304 658 c 0,16,17
 328 682 328 682 342.5 714 c 128,-1,18
 357 746 357 746 357 784 c 256,19,20
 357 822 357 822 343 854 c 0,21,22
 328 886 328 886 304 910 c 0,23,24
 283 934 283 934 250 948 c 0,25,26
 216 962 216 962 178 962 c 1,27,-1
 178 962 l 1,0,1
178 665 m 1,28,29
 154 665 154 665 133 673.5 c 128,-1,30
 112 682 112 682 94 700 c 0,31,32
 80 718 80 718 70 739 c 128,-1,33
 60 760 60 760 60 784 c 256,34,35
 60 808 60 808 70 829 c 128,-1,36
 80 850 80 850 94 868 c 0,37,38
 112 886 112 886 133 894.5 c 128,-1,39
 154 903 154 903 178 903 c 256,40,41
 202 903 202 903 225 894.5 c 128,-1,42
 248 886 248 886 262 868 c 0,43,44
 280 850 280 850 289 829 c 128,-1,45
 298 808 298 808 298 784 c 256,46,47
 298 760 298 760 289 739 c 128,-1,48
 280 718 280 718 262 700 c 0,49,50
 248 682 248 682 225.5 673.5 c 0,51,52
 202 665 202 665 178 665 c 1,53,-1
 178 665 l 1,28,29
1614 962 m 1,54,55
 1576 962 1576 962 1542 948 c 128,-1,56
 1508 934 1508 934 1488 910 c 0,57,58
 1464 886 1464 886 1449.5 854 c 128,-1,59
 1435 822 1435 822 1435 784 c 256,60,61
 1435 746 1435 746 1449 714 c 0,62,63
 1464 682 1464 682 1488 658 c 0,64,65
 1509 634 1509 634 1542 620 c 0,66,67
 1576 606 1576 606 1614 606 c 0,68,69
 1649 606 1649 606 1682 620 c 0,70,71
 1716 634 1716 634 1740 658 c 256,72,73
 1764 682 1764 682 1778 714 c 128,-1,74
 1792 746 1792 746 1792 784 c 256,75,76
 1792 822 1792 822 1778 854 c 128,-1,77
 1764 886 1764 886 1740 910 c 256,78,79
 1716 934 1716 934 1682 948 c 128,-1,80
 1648 962 1648 962 1614 962 c 1,81,-1
 1614 962 l 1,54,55
1614 665 m 1,82,83
 1590 665 1590 665 1567 673.5 c 128,-1,84
 1544 682 1544 682 1530 700 c 0,85,86
 1512 718 1512 718 1503 739 c 128,-1,87
 1494 760 1494 760 1494 784 c 256,88,89
 1494 808 1494 808 1503 829 c 128,-1,90
 1512 850 1512 850 1530 868 c 0,91,92
 1544 886 1544 886 1566.5 894.5 c 0,93,94
 1590 903 1590 903 1614 903 c 256,95,96
 1638 903 1638 903 1659 894.5 c 128,-1,97
 1680 886 1680 886 1698 868 c 0,98,99
 1712 850 1712 850 1722 829 c 128,-1,100
 1732 808 1732 808 1732 784 c 256,101,102
 1732 760 1732 760 1722 739 c 128,-1,103
 1712 718 1712 718 1698 700 c 0,104,105
 1680 682 1680 682 1659 673.5 c 128,-1,106
 1638 665 1638 665 1614 665 c 1,107,-1
 1614 665 l 1,82,83
896 962 m 1,108,109
 858 962 858 962 826 948 c 128,-1,110
 794 934 794 934 770 910 c 256,111,112
 746 886 746 886 732 854 c 128,-1,113
 718 822 718 822 718 784 c 256,114,115
 718 746 718 746 732 714 c 128,-1,116
 746 682 746 682 770 658 c 256,117,118
 794 634 794 634 826 620 c 128,-1,119
 858 606 858 606 896 606 c 256,120,121
 934 606 934 606 966 620 c 128,-1,122
 998 634 998 634 1022 658 c 256,123,124
 1046 682 1046 682 1060 714 c 128,-1,125
 1074 746 1074 746 1074 784 c 256,126,127
 1074 822 1074 822 1060 854 c 128,-1,128
 1046 886 1046 886 1022 910 c 256,129,130
 998 934 998 934 966 948 c 128,-1,131
 934 962 934 962 896 962 c 1,132,-1
 896 962 l 1,108,109
896 665 m 1,133,134
 872 665 872 665 851 673.5 c 128,-1,135
 830 682 830 682 812 700 c 256,136,137
 794 718 794 718 785.5 739 c 128,-1,138
 777 760 777 760 777 784 c 256,139,140
 777 808 777 808 785.5 829 c 128,-1,141
 794 850 794 850 812 868 c 256,142,143
 830 886 830 886 851 894.5 c 128,-1,144
 872 903 872 903 896 903 c 256,145,146
 920 903 920 903 941 894.5 c 128,-1,147
 962 886 962 886 980 868 c 256,148,149
 998 850 998 850 1006.5 829 c 128,-1,150
 1015 808 1015 808 1015 784 c 256,151,152
 1015 760 1015 760 1006.5 739 c 128,-1,153
 998 718 998 718 980 700 c 256,154,155
 962 682 962 682 941 673.5 c 128,-1,156
 920 665 920 665 896 665 c 1,157,-1
 896 665 l 1,133,134
EndSplineSet
EndChar

StartChar: uniE633
Encoding: 58931 58931 55
Width: 1792
Flags: W
LayerCount: 2
Fore
SplineSet
553 1396 m 1,0,1
 535 1361 535 1361 521.5 1322.5 c 128,-1,2
 508 1284 508 1284 500 1246 c 0,3,4
 490 1208 490 1208 485 1167.5 c 128,-1,5
 480 1127 480 1127 480 1085 c 0,6,7
 480 938 480 938 536 810 c 128,-1,8
 592 682 592 682 690 584 c 0,9,10
 784 490 784 490 913.5 434 c 128,-1,11
 1043 378 1043 378 1190 378 c 0,12,13
 1232 378 1232 378 1274 383 c 128,-1,14
 1316 388 1316 388 1358 396 c 0,15,16
 1400 406 1400 406 1438.5 422 c 0,17,18
 1478 438 1478 438 1516 455 c 1,19,20
 1470 375 1470 375 1405 308.5 c 128,-1,21
 1340 242 1340 242 1264 196 c 0,22,23
 1184 150 1184 150 1094 124 c 128,-1,24
 1004 98 1004 98 906 98 c 0,25,26
 762 98 762 98 635 154 c 128,-1,27
 508 210 508 210 413 304 c 256,28,29
 319 398 319 398 264.5 524.5 c 128,-1,30
 210 651 210 651 210 798 c 0,31,32
 210 892 210 892 234.5 980 c 0,33,34
 258 1068 258 1068 304 1144 c 0,35,36
 346 1221 346 1221 411 1286 c 0,37,38
 476 1350 476 1350 553 1396 c 1,39,-1
 553 1396 l 1,0,1
718 1530 m 1,40,41
 596 1498 596 1498 490.5 1428 c 0,42,43
 386 1358 386 1358 312 1264 c 0,44,45
 235 1166 235 1166 192.5 1047 c 128,-1,46
 150 928 150 928 150 798 c 0,47,48
 150 640 150 640 210 502 c 128,-1,49
 270 364 270 364 371 262 c 0,50,51
 473 157 473 157 611 97.5 c 0,52,53
 748 38 748 38 906 38 c 0,54,55
 1039 38 1039 38 1160 82 c 128,-1,56
 1281 126 1281 126 1379 206 c 0,57,58
 1477 283 1477 283 1545.5 390 c 128,-1,59
 1614 497 1614 497 1642 623 c 1,60,61
 1600 577 1600 577 1547 544 c 0,62,63
 1494 510 1494 510 1438 486 c 256,64,65
 1382 462 1382 462 1319 450 c 128,-1,66
 1256 438 1256 438 1190 438 c 0,67,68
 1054 438 1054 438 936.5 488.5 c 0,69,70
 820 538 820 538 732 626 c 256,71,72
 644 714 644 714 591.5 833 c 128,-1,73
 539 952 539 952 539 1085 c 0,74,75
 539 1151 539 1151 551.5 1210.5 c 128,-1,76
 564 1270 564 1270 588 1326 c 0,77,78
 609 1382 609 1382 642.5 1433 c 128,-1,79
 676 1484 676 1484 718 1530 c 1,80,-1
 718 1530 l 1,81,-1
 718 1530 l 1,40,41
EndSplineSet
EndChar

StartChar: uniE634
Encoding: 58932 58932 56
Width: 1792
Flags: W
LayerCount: 2
Fore
SplineSet
1673 396 m 1,0,-1
 1673 1470 l 1,1,-1
 119 1470 l 1,2,-1
 119 396 l 1,3,-1
 864 396 l 1,4,-1
 864 158 l 1,5,-1
 658 158 l 1,6,-1
 658 98 l 1,7,-1
 1134 98 l 1,8,-1
 1134 158 l 1,9,-1
 928 158 l 1,10,-1
 928 396 l 1,11,-1
 1673 396 l 1,12,-1
 1673 396 l 1,0,-1
178 1410 m 1,13,-1
 1614 1410 l 1,14,-1
 1614 455 l 1,15,-1
 178 455 l 1,16,-1
 178 1410 l 1,17,-1
 178 1410 l 1,13,-1
EndSplineSet
EndChar

StartChar: uniE635
Encoding: 58933 58933 57
Width: 1792
Flags: W
LayerCount: 2
Fore
SplineSet
896 427 m 1,0,1
 962 427 962 427 1023.5 453.5 c 128,-1,2
 1085 480 1085 480 1127 522 c 0,3,4
 1173 568 1173 568 1199 627 c 128,-1,5
 1225 686 1225 686 1225 756 c 2,6,-1
 1225 1351 l 2,7,8
 1225 1417 1225 1417 1198.5 1476.5 c 128,-1,9
 1172 1536 1172 1536 1127 1582 c 0,10,11
 1085 1628 1085 1628 1023.5 1652 c 128,-1,12
 962 1676 962 1676 896 1676 c 256,13,14
 830 1676 830 1676 770 1652 c 128,-1,15
 710 1628 710 1628 665 1582 c 256,16,17
 619 1536 619 1536 593 1477 c 128,-1,18
 567 1418 567 1418 567 1351 c 2,19,-1
 567 756 l 2,20,21
 567 686 567 686 593.5 626.5 c 0,22,23
 620 568 620 568 665 522 c 0,24,25
 711 480 711 480 770.5 453.5 c 128,-1,26
 830 427 830 427 896 427 c 1,27,-1
 896 427 l 1,0,1
626 1351 m 1,28,29
 626 1407 626 1407 649 1456 c 128,-1,30
 672 1505 672 1505 707 1540 c 256,31,32
 742 1575 742 1575 791 1596 c 128,-1,33
 840 1617 840 1617 896 1617 c 256,34,35
 952 1617 952 1617 1001 1596 c 128,-1,36
 1050 1575 1050 1575 1085 1540 c 0,37,38
 1123 1505 1123 1505 1144.5 1456 c 128,-1,39
 1166 1407 1166 1407 1166 1351 c 2,40,-1
 1166 756 l 2,41,42
 1166 700 1166 700 1145 651 c 128,-1,43
 1124 602 1124 602 1085 564 c 0,44,45
 1050 529 1050 529 1001 507.5 c 128,-1,46
 952 486 952 486 896 486 c 256,47,48
 840 486 840 486 791 507 c 128,-1,49
 742 528 742 528 707 564 c 0,50,51
 672 602 672 602 649 651 c 128,-1,52
 626 700 626 700 626 756 c 2,53,-1
 626 1351 l 1,54,-1
 626 1351 l 1,28,29
1344 1054 m 1,55,-1
 1344 756 l 2,56,57
 1344 662 1344 662 1309 581 c 128,-1,58
 1274 500 1274 500 1211 438 c 0,59,60
 1151 378 1151 378 1069 343 c 128,-1,61
 987 308 987 308 896 308 c 256,62,63
 805 308 805 308 722.5 343 c 128,-1,64
 640 378 640 378 581 438 c 0,65,66
 518 501 518 501 483 581.5 c 128,-1,67
 448 662 448 662 448 756 c 2,68,-1
 448 1054 l 1,69,-1
 388 1054 l 1,70,-1
 388 756 l 2,71,72
 388 654 388 654 427 563 c 128,-1,73
 466 472 466 472 528 406 c 0,74,75
 594 336 594 336 682 296 c 128,-1,76
 770 256 770 256 872 248 c 1,77,-1
 868 248 l 1,78,-1
 868 -49 l 1,79,-1
 598 -49 l 1,80,-1
 598 -108 l 1,81,-1
 1194 -108 l 1,82,-1
 1194 -49 l 1,83,-1
 928 -49 l 1,84,-1
 928 248 l 1,85,-1
 920 248 l 1,86,87
 1022 255 1022 255 1109.5 295.5 c 0,88,89
 1198 336 1198 336 1264 406 c 0,90,91
 1327 472 1327 472 1365.5 563 c 128,-1,92
 1404 654 1404 654 1404 756 c 2,93,-1
 1404 1054 l 1,94,-1
 1344 1054 l 1,95,-1
 1344 1054 l 1,55,-1
EndSplineSet
EndChar

StartChar: uniE636
Encoding: 58934 58934 58
Width: 1792
Flags: W
LayerCount: 2
Fore
SplineSet
178 1292 m 1,0,-1
 178 1054 l 1,1,-1
 1614 1054 l 1,2,-1
 1614 1292 l 1,3,-1
 178 1292 l 1,4,-1
 178 1292 l 1,0,-1
1554 1113 m 1,5,-1
 238 1113 l 1,6,-1
 238 1232 l 1,7,-1
 1554 1232 l 1,8,-1
 1554 1113 l 1,9,-1
 1554 1113 l 1,5,-1
178 665 m 1,10,-1
 1614 665 l 1,11,-1
 1614 903 l 1,12,-1
 178 903 l 1,13,-1
 178 665 l 1,14,-1
 178 665 l 1,10,-1
238 844 m 1,15,-1
 1554 844 l 1,16,-1
 1554 724 l 1,17,-1
 238 724 l 1,18,-1
 238 844 l 1,19,-1
 238 844 l 1,15,-1
178 276 m 1,20,-1
 1614 276 l 1,21,-1
 1614 514 l 1,22,-1
 178 514 l 1,23,-1
 178 276 l 1,24,-1
 178 276 l 1,20,-1
238 455 m 1,25,-1
 1554 455 l 1,26,-1
 1554 336 l 1,27,-1
 238 336 l 1,28,-1
 238 455 l 1,29,-1
 238 455 l 1,25,-1
EndSplineSet
EndChar

StartChar: uniE637
Encoding: 58935 58935 59
Width: 1792
Flags: W
LayerCount: 2
Fore
SplineSet
1292 1491 m 1,0,-1
 1253 1508 l 1,1,-1
 1225 1494 l 1,2,-1
 1225 1494 l 1,3,-1
 896 1330 l 1,4,-1
 539 1508 l 1,5,-1
 150 1312 l 1,6,-1
 150 60 l 1,7,-1
 539 256 l 1,8,-1
 896 74 l 1,9,-1
 1253 256 l 1,10,-1
 1642 60 l 1,11,-1
 1642 1312 l 1,12,-1
 1292 1491 l 1,13,-1
 1292 1491 l 1,0,-1
508 304 m 1,14,-1
 210 158 l 1,15,-1
 210 1278 l 1,16,-1
 508 1428 l 1,17,-1
 508 304 l 1,18,-1
 508 304 l 1,14,-1
864 158 m 1,19,-1
 567 304 l 1,20,-1
 567 1428 l 1,21,-1
 864 1278 l 1,22,-1
 864 158 l 1,23,-1
 864 158 l 1,19,-1
1225 304 m 1,24,-1
 928 158 l 1,25,-1
 928 1278 l 1,26,-1
 1225 1428 l 1,27,-1
 1225 304 l 1,28,-1
 1225 304 l 1,24,-1
1582 158 m 1,29,-1
 1284 304 l 1,30,-1
 1284 1428 l 1,31,-1
 1582 1278 l 1,32,-1
 1582 158 l 1,33,-1
 1582 158 l 1,29,-1
EndSplineSet
EndChar

StartChar: uniE638
Encoding: 58936 58936 60
Width: 1792
Flags: W
LayerCount: 2
Fore
SplineSet
896 1620 m 1,0,1
 1008 1620 1008 1620 1106 1578 c 128,-1,2
 1204 1536 1204 1536 1278 1463 c 0,3,4
 1348 1389 1348 1389 1391.5 1291.5 c 128,-1,5
 1435 1194 1435 1194 1435 1082 c 0,6,7
 1435 1047 1435 1047 1429.5 1011.5 c 128,-1,8
 1424 976 1424 976 1414 945 c 1,9,10
 1407 910 1407 910 1393 877 c 0,11,12
 1380 844 1380 844 1362 816 c 2,13,-1
 896 7 l 1,14,-1
 430 816 l 2,15,16
 412 844 412 844 398.5 877 c 128,-1,17
 385 910 385 910 378 945 c 1,18,19
 368 977 368 977 362.5 1011.5 c 128,-1,20
 357 1046 357 1046 357 1082 c 0,21,22
 357 1194 357 1194 400.5 1292 c 128,-1,23
 444 1390 444 1390 514 1463 c 0,24,25
 588 1537 588 1537 686 1578.5 c 128,-1,26
 784 1620 784 1620 896 1620 c 1,27,-1
 896 1620 l 1,0,1
896 875 m 1,28,29
 938 875 938 875 976.5 890.5 c 128,-1,30
 1015 906 1015 906 1043 934 c 256,31,32
 1071 962 1071 962 1088.5 1001 c 128,-1,33
 1106 1040 1106 1040 1106 1082 c 0,34,35
 1106 1128 1106 1128 1088.5 1164 c 128,-1,36
 1071 1200 1071 1200 1043 1228 c 0,37,38
 1015 1260 1015 1260 976.5 1276 c 128,-1,39
 938 1292 938 1292 896 1292 c 256,40,41
 854 1292 854 1292 815.5 1276 c 128,-1,42
 777 1260 777 1260 749 1228 c 0,43,44
 721 1200 721 1200 703.5 1163.5 c 0,45,46
 686 1128 686 1128 686 1082 c 0,47,48
 686 1040 686 1040 703.5 1001 c 128,-1,49
 721 962 721 962 749 934 c 256,50,51
 777 906 777 906 815.5 890.5 c 128,-1,52
 854 875 854 875 896 875 c 1,53,-1
 896 875 l 1,28,29
896 1680 m 1,54,55
 774 1680 774 1680 665 1633 c 128,-1,56
 556 1586 556 1586 472 1505 c 0,57,58
 392 1425 392 1425 345 1316.5 c 128,-1,59
 298 1208 298 1208 298 1082 c 0,60,61
 298 1044 298 1044 303 1003 c 128,-1,62
 308 962 308 962 318 924 c 0,63,64
 328 889 328 889 344 852.5 c 128,-1,65
 360 816 360 816 378 784 c 2,66,-1
 896 -112 l 1,67,-1
 1414 784 l 2,68,69
 1432 816 1432 816 1447.5 852.5 c 0,70,71
 1464 889 1464 889 1474 924 c 0,72,73
 1484 962 1484 962 1489 1002.5 c 0,74,75
 1494 1044 1494 1044 1494 1082 c 0,76,77
 1494 1208 1494 1208 1447 1316 c 128,-1,78
 1400 1424 1400 1424 1320 1505 c 0,79,80
 1236 1585 1236 1585 1127 1632.5 c 128,-1,81
 1018 1680 1018 1680 896 1680 c 1,82,-1
 896 1680 l 1,83,-1
 896 1680 l 1,54,55
896 934 m 1,84,85
 864 934 864 934 838 945 c 128,-1,86
 812 956 812 956 791 976 c 256,87,88
 770 997 770 997 758 1023.5 c 128,-1,89
 746 1050 746 1050 746 1082 c 256,90,91
 746 1114 746 1114 758 1141.5 c 0,92,93
 770 1168 770 1168 791 1186 c 0,94,95
 812 1207 812 1207 838 1219.5 c 128,-1,96
 864 1232 864 1232 896 1232 c 256,97,98
 928 1232 928 1232 954 1220 c 128,-1,99
 980 1208 980 1208 1001 1186 c 0,100,101
 1022 1168 1022 1168 1034 1140.5 c 0,102,103
 1046 1114 1046 1114 1046 1082 c 256,104,105
 1046 1050 1046 1050 1034 1024 c 128,-1,106
 1022 998 1022 998 1001 976 c 256,107,108
 980 955 980 955 954 944.5 c 128,-1,109
 928 934 928 934 896 934 c 1,110,-1
 896 934 l 1,111,-1
 896 934 l 1,84,85
EndSplineSet
EndChar

StartChar: uniE639
Encoding: 58937 58937 61
Width: 1792
Flags: W
LayerCount: 2
Fore
SplineSet
1582 1260 m 1,0,-1
 150 1260 l 1,1,-1
 150 308 l 1,2,-1
 1642 308 l 1,3,-1
 1642 1260 l 1,4,-1
 1582 1260 l 1,5,-1
 1582 1260 l 1,0,-1
1522 1200 m 1,6,-1
 945 626 l 2,7,8
 924 605 924 605 896 605.5 c 128,-1,9
 868 606 868 606 847 626 c 2,10,-1
 270 1200 l 1,11,-1
 1522 1200 l 1,12,-1
 1522 1200 l 1,6,-1
210 1180 m 1,13,-1
 598 791 l 1,14,-1
 210 402 l 1,15,-1
 210 1180 l 1,16,-1
 210 1180 l 1,13,-1
256 368 m 1,17,-1
 640 749 l 1,18,-1
 805 584 l 2,19,20
 823 563 823 563 847.5 554.5 c 128,-1,21
 872 546 872 546 896 546 c 256,22,23
 920 546 920 546 945 555 c 128,-1,24
 970 564 970 564 987 584 c 2,25,-1
 1152 749 l 1,26,-1
 1536 368 l 1,27,-1
 256 368 l 1,28,-1
 256 368 l 1,17,-1
1582 402 m 1,29,-1
 1194 791 l 1,30,-1
 1582 1180 l 1,31,-1
 1582 402 l 1,32,-1
 1582 402 l 1,29,-1
EndSplineSet
EndChar

StartChar: uniE63A
Encoding: 58938 58938 62
Width: 1792
Flags: W
LayerCount: 2
Fore
SplineSet
1638 934 m 1,0,-1
 987 1582 l 2,1,2
 969 1600 969 1600 944.5 1610 c 128,-1,3
 920 1620 920 1620 896 1620 c 256,4,5
 872 1620 872 1620 847 1610 c 128,-1,6
 822 1600 822 1600 805 1582 c 2,7,-1
 150 928 l 1,8,-1
 150 -52 l 1,9,-1
 1642 -52 l 1,10,-1
 1642 928 l 1,11,-1
 1638 934 l 1,12,-1
 1638 934 l 1,0,-1
245 938 m 1,13,-1
 847 1540 l 2,14,15
 868 1561 868 1561 896 1561 c 128,-1,16
 924 1561 924 1561 945 1540 c 2,17,-1
 1575 910 l 1,18,-1
 1144 480 l 1,19,-1
 987 640 l 2,20,21
 969 658 969 658 944.5 668.5 c 128,-1,22
 920 679 920 679 896 679 c 256,23,24
 872 679 872 679 847 668.5 c 128,-1,25
 822 658 822 658 805 640 c 2,26,-1
 644 480 l 1,27,-1
 214 906 l 1,28,-1
 245 938 l 1,29,-1
 245 938 l 1,13,-1
602 438 m 1,30,-1
 598 430 l 1,31,-1
 598 430 l 1,32,-1
 210 46 l 1,33,-1
 210 830 l 1,34,-1
 602 438 l 1,35,-1
 602 438 l 1,30,-1
256 7 m 1,36,-1
 290 38 l 1,37,-1
 290 38 l 1,38,-1
 847 598 l 2,39,40
 868 616 868 616 896 616 c 128,-1,41
 924 616 924 616 945 598 c 2,42,-1
 1536 7 l 1,43,-1
 256 7 l 1,44,-1
 256 7 l 1,36,-1
1582 808 m 1,45,-1
 1582 46 l 1,46,-1
 1186 438 l 1,47,-1
 1582 833 l 1,48,-1
 1582 808 l 1,49,-1
 1582 808 l 1,45,-1
EndSplineSet
EndChar

StartChar: uniE63B
Encoding: 58939 58939 63
Width: 1792
Flags: W
LayerCount: 2
Fore
SplineSet
1638 934 m 1,0,-1
 987 1582 l 2,1,2
 969 1600 969 1600 944.5 1610 c 128,-1,3
 920 1620 920 1620 896 1620 c 256,4,5
 872 1620 872 1620 847 1610 c 128,-1,6
 822 1600 822 1600 805 1582 c 2,7,-1
 662 1442 l 1,8,-1
 448 1442 l 1,9,-1
 448 1225 l 1,10,-1
 150 928 l 1,11,-1
 150 -52 l 1,12,-1
 1642 -52 l 1,13,-1
 1642 928 l 1,14,-1
 1638 934 l 1,15,-1
 1638 934 l 1,0,-1
1575 910 m 1,16,-1
 1344 679 l 1,17,-1
 1344 1141 l 1,18,-1
 1575 910 l 1,19,-1
 1575 910 l 1,16,-1
847 1540 m 1,20,21
 868 1561 868 1561 896 1561 c 128,-1,22
 924 1561 924 1561 945 1540 c 2,23,-1
 1043 1442 l 1,24,-1
 749 1442 l 1,25,-1
 847 1540 l 1,26,-1
 847 1540 l 1,20,21
1106 1382 m 1,27,-1
 1284 1200 l 1,28,-1
 1284 620 l 1,29,-1
 1144 480 l 1,30,-1
 987 640 l 2,31,32
 969 658 969 658 944.5 668.5 c 128,-1,33
 920 679 920 679 896 679 c 256,34,35
 872 679 872 679 847 668.5 c 128,-1,36
 822 658 822 658 805 640 c 2,37,-1
 644 480 l 1,38,-1
 508 616 l 1,39,-1
 508 1382 l 1,40,-1
 1106 1382 l 1,41,-1
 1106 1382 l 1,27,-1
245 938 m 1,42,-1
 448 1141 l 1,43,-1
 448 676 l 1,44,-1
 214 906 l 1,45,-1
 245 938 l 1,46,-1
 245 938 l 1,42,-1
210 780 m 1,47,-1
 210 830 l 1,48,-1
 602 438 l 1,49,-1
 598 430 l 1,50,-1
 598 430 l 1,51,-1
 210 46 l 1,52,-1
 210 780 l 1,53,-1
 210 780 l 1,47,-1
256 7 m 1,54,-1
 290 38 l 1,55,-1
 290 38 l 1,56,-1
 847 598 l 2,57,58
 868 616 868 616 896 616 c 128,-1,59
 924 616 924 616 945 598 c 2,60,-1
 1536 7 l 1,61,-1
 256 7 l 1,62,-1
 256 7 l 1,54,-1
1582 819 m 1,63,-1
 1582 46 l 1,64,-1
 1186 438 l 1,65,-1
 1582 833 l 1,66,-1
 1582 819 l 1,67,-1
 1582 819 l 1,63,-1
686 1200 m 1,68,-1
 1106 1200 l 1,69,-1
 1106 1141 l 1,70,-1
 686 1141 l 1,71,-1
 686 1200 l 1,72,-1
 686 1200 l 1,68,-1
686 844 m 1,73,-1
 1106 844 l 1,74,-1
 1106 784 l 1,75,-1
 686 784 l 1,76,-1
 686 844 l 1,77,-1
 686 844 l 1,73,-1
686 1022 m 1,78,-1
 987 1022 l 1,79,-1
 987 962 l 1,80,-1
 686 962 l 1,81,-1
 686 1022 l 1,82,-1
 686 1022 l 1,78,-1
EndSplineSet
EndChar

StartChar: uniE63C
Encoding: 58940 58940 64
Width: 1792
Flags: W
LayerCount: 2
Fore
SplineSet
1197 1530 m 1,0,-1
 1197 696 l 2,1,2
 1197 633 1197 633 1172.5 579 c 128,-1,3
 1148 525 1148 525 1106 483 c 0,4,5
 1068 445 1068 445 1013.5 420.5 c 128,-1,6
 959 396 959 396 896 396 c 256,7,8
 833 396 833 396 778.5 420 c 128,-1,9
 724 444 724 444 686 483 c 0,10,11
 644 525 644 525 619.5 579.5 c 128,-1,12
 595 634 595 634 595 696 c 2,13,-1
 595 1530 l 1,14,-1
 238 1530 l 1,15,-1
 238 693 l 2,16,17
 238 560 238 560 290.5 439 c 0,18,19
 342 318 342 318 430 231 c 0,20,21
 521 140 521 140 640.5 89 c 128,-1,22
 760 38 760 38 896 38 c 256,23,24
 1032 38 1032 38 1151 89 c 128,-1,25
 1270 140 1270 140 1362 231 c 0,26,27
 1450 319 1450 319 1502 439.5 c 128,-1,28
 1554 560 1554 560 1554 693 c 2,29,-1
 1554 1530 l 1,30,-1
 1197 1530 l 1,31,-1
 1197 1530 l 1,0,-1
1494 1470 m 1,32,-1
 1494 1292 l 1,33,-1
 1256 1292 l 1,34,-1
 1256 1470 l 1,35,-1
 1494 1470 l 1,36,-1
 1494 1470 l 1,32,-1
536 1470 m 1,37,-1
 536 1292 l 1,38,-1
 298 1292 l 1,39,-1
 298 1470 l 1,40,-1
 536 1470 l 1,41,-1
 536 1470 l 1,37,-1
896 98 m 1,42,43
 774 98 774 98 665 145 c 128,-1,44
 556 192 556 192 472 273 c 0,45,46
 392 353 392 353 345 461.5 c 128,-1,47
 298 570 298 570 298 693 c 2,48,-1
 298 1232 l 1,49,-1
 536 1232 l 1,50,-1
 536 696 l 2,51,52
 536 619 536 619 565.5 554.5 c 128,-1,53
 595 490 595 490 644 441 c 0,54,55
 690 392 690 392 756 364 c 128,-1,56
 822 336 822 336 896 336 c 256,57,58
 970 336 970 336 1036 364 c 128,-1,59
 1102 392 1102 392 1148 441 c 0,60,61
 1197 490 1197 490 1226.5 555 c 128,-1,62
 1256 620 1256 620 1256 696 c 2,63,-1
 1256 1232 l 1,64,-1
 1494 1232 l 1,65,-1
 1494 693 l 2,66,67
 1494 571 1494 571 1447 462.5 c 128,-1,68
 1400 354 1400 354 1320 273 c 0,69,70
 1236 193 1236 193 1127 145.5 c 128,-1,71
 1018 98 1018 98 896 98 c 1,72,-1
 896 98 l 1,42,43
EndSplineSet
EndChar

StartChar: uniE63D
Encoding: 58941 58941 65
Width: 1792
Flags: W
LayerCount: 2
Fore
SplineSet
1144 1074 m 1,0,-1
 626 560 l 1,1,-1
 668 518 l 1,2,-1
 1186 1032 l 1,3,-1
 1144 1074 l 1,0,-1
388 455 m 1,4,5
 322 455 322 455 261 481.5 c 128,-1,6
 200 508 200 508 158 553 c 1,7,8
 112 595 112 595 86 656.5 c 128,-1,9
 60 718 60 718 60 784 c 256,10,11
 60 850 60 850 86 911.5 c 128,-1,12
 112 973 112 973 158 1015 c 1,13,14
 200 1061 200 1061 261 1087 c 128,-1,15
 322 1113 322 1113 388 1113 c 0,16,17
 420 1113 420 1113 451.5 1106 c 0,18,19
 483 1098 483 1098 511 1088 c 0,20,21
 543 1074 543 1074 567.5 1058.5 c 128,-1,22
 592 1043 592 1043 616 1022 c 1,23,-1
 616 1022 l 1,24,-1
 616 1018 l 1,25,-1
 735 903 l 1,26,-1
 626 903 l 1,27,-1
 626 844 l 1,28,-1
 836 844 l 1,29,-1
 836 1054 l 1,30,-1
 777 1054 l 1,31,-1
 777 945 l 1,32,-1
 662 1060 l 1,33,-1
 658 1060 l 1,34,35
 634 1088 634 1088 602 1107.5 c 128,-1,36
 570 1127 570 1127 539 1141 c 0,37,38
 504 1155 504 1155 465.5 1163.5 c 0,39,40
 426 1172 426 1172 388 1172 c 0,41,42
 308 1172 308 1172 238 1141 c 128,-1,43
 168 1110 168 1110 116 1057 c 256,44,45
 64 1005 64 1005 32 934.5 c 128,-1,46
 0 864 0 864 0 784 c 256,47,48
 0 704 0 704 31.5 634 c 0,49,50
 64 564 64 564 116 511 c 256,51,52
 168 459 168 459 238 427.5 c 128,-1,53
 308 396 308 396 388 396 c 0,54,55
 430 396 430 396 469 404.5 c 128,-1,56
 508 413 508 413 542 427 c 0,57,58
 580 445 580 445 612 467.5 c 128,-1,59
 644 490 644 490 668 518 c 1,60,-1
 626 560 l 1,61,62
 605 536 605 536 577.5 516.5 c 128,-1,63
 550 497 550 497 522 483 c 0,64,65
 490 469 490 469 457 462 c 128,-1,66
 424 455 424 455 388 455 c 1,67,-1
 388 455 l 1,4,5
1404 1172 m 1,68,69
 1366 1172 1366 1172 1330.5 1165 c 0,70,71
 1296 1158 1296 1158 1264 1144 c 0,72,73
 1232 1134 1232 1134 1202 1115 c 128,-1,74
 1172 1096 1172 1096 1144 1074 c 1,75,-1
 1190 1032 l 1,76,77
 1211 1050 1211 1050 1235.5 1066 c 128,-1,78
 1260 1082 1260 1082 1288 1092 c 0,79,80
 1312 1102 1312 1102 1342 1107.5 c 128,-1,81
 1372 1113 1372 1113 1404 1113 c 0,82,83
 1470 1113 1470 1113 1531 1086.5 c 128,-1,84
 1592 1060 1592 1060 1634 1015 c 1,85,86
 1680 973 1680 973 1706 911.5 c 128,-1,87
 1732 850 1732 850 1732 784 c 256,88,89
 1732 718 1732 718 1706 656.5 c 128,-1,90
 1680 595 1680 595 1634 553 c 1,91,92
 1592 507 1592 507 1531 481 c 128,-1,93
 1470 455 1470 455 1404 455 c 0,94,95
 1372 455 1372 455 1340.5 462 c 0,96,97
 1309 470 1309 470 1281 480 c 256,98,99
 1253 490 1253 490 1226.5 507.5 c 128,-1,100
 1200 525 1200 525 1180 546 c 1,101,-1
 1180 546 l 1,102,-1
 980 742 l 1,103,-1
 938 700 l 1,104,-1
 1134 504 l 1,105,-1
 1138 504 l 1,106,107
 1162 480 1162 480 1192 459 c 128,-1,108
 1222 438 1222 438 1256 424 c 256,109,110
 1291 410 1291 410 1328 403 c 0,111,112
 1366 396 1366 396 1404 396 c 0,113,114
 1484 396 1484 396 1554 427 c 128,-1,115
 1624 458 1624 458 1676 511 c 256,116,117
 1728 563 1728 563 1760 633.5 c 128,-1,118
 1792 704 1792 704 1792 784 c 256,119,120
 1792 864 1792 864 1760.5 934 c 0,121,122
 1728 1004 1728 1004 1676 1057 c 256,123,124
 1624 1109 1624 1109 1554 1140.5 c 128,-1,125
 1484 1172 1484 1172 1404 1172 c 1,126,-1
 1404 1172 l 1,68,69
EndSplineSet
EndChar

StartChar: uniE63E
Encoding: 58942 58942 66
Width: 1792
Flags: W
LayerCount: 2
Fore
SplineSet
896 1323 m 1,0,1
 774 1323 774 1323 662 1284.5 c 128,-1,2
 550 1246 550 1246 444 1176 c 1,3,4
 336 1110 336 1110 227.5 1010 c 128,-1,5
 119 910 119 910 0 784 c 1,6,7
 102 679 102 679 198 581 c 0,8,9
 294 484 294 484 399 410 c 256,10,11
 504 336 504 336 625 290.5 c 128,-1,12
 746 245 746 245 896 245 c 256,13,14
 1046 245 1046 245 1176 299.5 c 128,-1,15
 1306 354 1306 354 1418 434 c 256,16,17
 1530 514 1530 514 1622.5 607 c 128,-1,18
 1715 700 1715 700 1792 777 c 1,19,20
 1715 871 1715 871 1620.5 967.5 c 128,-1,21
 1526 1064 1526 1064 1414 1141 c 0,22,23
 1302 1221 1302 1221 1172.5 1272 c 128,-1,24
 1043 1323 1043 1323 896 1323 c 1,25,-1
 896 1323 l 1,0,1
896 308 m 1,26,27
 763 308 763 308 654.5 345 c 128,-1,28
 546 382 546 382 448 448 c 256,29,30
 350 514 350 514 262.5 600 c 128,-1,31
 175 686 175 686 84 784 c 1,32,33
 192 900 192 900 292 987 c 128,-1,34
 392 1074 392 1074 490 1138 c 0,35,36
 588 1198 588 1198 688 1229 c 128,-1,37
 788 1260 788 1260 896 1260 c 0,38,39
 1026 1260 1026 1260 1141 1218 c 128,-1,40
 1256 1176 1256 1176 1358 1110 c 0,41,42
 1460 1040 1460 1040 1547 954 c 128,-1,43
 1634 868 1634 868 1712 780 c 1,44,45
 1638 703 1638 703 1550.5 619.5 c 0,46,47
 1464 536 1464 536 1362 466 c 256,48,49
 1260 396 1260 396 1144.5 352 c 128,-1,50
 1029 308 1029 308 896 308 c 1,51,-1
 896 308 l 1,26,27
896 1141 m 1,52,53
 822 1141 822 1141 757.5 1113 c 128,-1,54
 693 1085 693 1085 644 1036 c 256,55,56
 595 987 595 987 567 922.5 c 128,-1,57
 539 858 539 858 539 784 c 256,58,59
 539 710 539 710 567 645.5 c 128,-1,60
 595 581 595 581 644 532 c 256,61,62
 693 483 693 483 757.5 455 c 128,-1,63
 822 427 822 427 896 427 c 256,64,65
 970 427 970 427 1034.5 455 c 128,-1,66
 1099 483 1099 483 1148 532 c 256,67,68
 1197 581 1197 581 1225 645.5 c 128,-1,69
 1253 710 1253 710 1253 784 c 256,70,71
 1253 858 1253 858 1225 922.5 c 128,-1,72
 1197 987 1197 987 1148 1036 c 256,73,74
 1099 1085 1099 1085 1034.5 1113 c 128,-1,75
 970 1141 970 1141 896 1141 c 1,76,-1
 896 1141 l 1,52,53
896 486 m 1,77,78
 833 486 833 486 778.5 509 c 128,-1,79
 724 532 724 532 686 574 c 1,80,81
 644 612 644 612 621 666.5 c 128,-1,82
 598 721 598 721 598 784 c 256,83,84
 598 847 598 847 621 901.5 c 128,-1,85
 644 956 644 956 686 994 c 1,86,87
 724 1036 724 1036 778.5 1059 c 128,-1,88
 833 1082 833 1082 896 1082 c 256,89,90
 959 1082 959 1082 1013.5 1059 c 128,-1,91
 1068 1036 1068 1036 1106 994 c 1,92,93
 1148 956 1148 956 1171 901.5 c 128,-1,94
 1194 847 1194 847 1194 784 c 256,95,96
 1194 721 1194 721 1171 666.5 c 128,-1,97
 1148 612 1148 612 1106 574 c 1,98,99
 1068 532 1068 532 1013.5 509 c 128,-1,100
 959 486 959 486 896 486 c 1,101,-1
 896 486 l 1,77,78
896 994 m 1,102,103
 854 994 854 994 815.5 976.5 c 128,-1,104
 777 959 777 959 749 931 c 256,105,106
 721 903 721 903 703.5 864.5 c 128,-1,107
 686 826 686 826 686 784 c 256,108,109
 686 742 686 742 703.5 703.5 c 128,-1,110
 721 665 721 665 749 637 c 256,111,112
 777 609 777 609 815.5 591.5 c 128,-1,113
 854 574 854 574 896 574 c 256,114,115
 938 574 938 574 976.5 591.5 c 128,-1,116
 1015 609 1015 609 1043 637 c 256,117,118
 1071 665 1071 665 1088.5 703.5 c 128,-1,119
 1106 742 1106 742 1106 784 c 256,120,121
 1106 826 1106 826 1088.5 864.5 c 128,-1,122
 1071 903 1071 903 1043 931 c 256,123,124
 1015 959 1015 959 976.5 976.5 c 128,-1,125
 938 994 938 994 896 994 c 1,126,-1
 896 994 l 1,102,103
896 634 m 1,127,128
 864 634 864 634 838 646 c 128,-1,129
 812 658 812 658 791 679 c 256,130,131
 770 700 770 700 758 726 c 128,-1,132
 746 752 746 752 746 784 c 256,133,134
 746 816 746 816 758 842 c 128,-1,135
 770 868 770 868 791 889 c 256,136,137
 812 910 812 910 838 922 c 128,-1,138
 864 934 864 934 896 934 c 256,139,140
 928 934 928 934 954 922 c 128,-1,141
 980 910 980 910 1001 889 c 256,142,143
 1022 868 1022 868 1034 842 c 128,-1,144
 1046 816 1046 816 1046 784 c 256,145,146
 1046 752 1046 752 1034 726 c 128,-1,147
 1022 700 1022 700 1001 679 c 256,148,149
 980 658 980 658 954 646 c 128,-1,150
 928 634 928 634 896 634 c 1,151,-1
 896 634 l 1,127,128
EndSplineSet
EndChar

StartChar: uniE63F
Encoding: 58943 58943 67
Width: 1792
Flags: W
LayerCount: 2
Fore
SplineSet
1284 816 m 1,0,-1
 1284 1172 l 2,1,2
 1284 1252 1284 1252 1253 1322.5 c 0,3,4
 1222 1394 1222 1394 1169 1446 c 256,5,6
 1117 1498 1117 1498 1046.5 1529.5 c 128,-1,7
 976 1561 976 1561 896 1561 c 256,8,9
 816 1561 816 1561 746 1529.5 c 128,-1,10
 676 1498 676 1498 623 1446 c 256,11,12
 571 1394 571 1394 539.5 1323.5 c 0,13,14
 508 1252 508 1252 508 1172 c 2,15,-1
 508 816 l 1,16,-1
 298 816 l 1,17,-1
 298 7 l 1,18,-1
 1494 7 l 1,19,-1
 1494 816 l 1,20,-1
 1284 816 l 1,21,-1
 1284 816 l 1,0,-1
567 1172 m 1,22,23
 567 1238 567 1238 593.5 1298 c 128,-1,24
 620 1358 620 1358 665 1404 c 0,25,26
 707 1450 707 1450 768.5 1476 c 128,-1,27
 830 1502 830 1502 896 1502 c 256,28,29
 962 1502 962 1502 1023.5 1475.5 c 0,30,31
 1085 1450 1085 1450 1127 1404 c 0,32,33
 1173 1358 1173 1358 1199 1298.5 c 0,34,35
 1225 1238 1225 1238 1225 1172 c 2,36,-1
 1225 816 l 1,37,-1
 567 816 l 1,38,-1
 567 1172 l 1,39,-1
 567 1172 l 1,22,23
1435 66 m 1,40,-1
 357 66 l 1,41,-1
 357 752 l 1,42,-1
 1435 752 l 1,43,-1
 1435 66 l 1,44,-1
 1435 66 l 1,40,-1
EndSplineSet
EndChar

StartChar: uniE640
Encoding: 58944 58944 68
Width: 1792
Flags: W
LayerCount: 2
Fore
SplineSet
480 1680 m 1,0,-1
 480 1502 l 1,1,-1
 686 1141 l 1,2,-1
 686 -112 l 1,3,-1
 1106 -112 l 1,4,-1
 1106 1141 l 1,5,-1
 1312 1502 l 1,6,-1
 1312 1680 l 1,7,-1
 480 1680 l 1,8,-1
 480 1680 l 1,0,-1
539 1620 m 1,9,-1
 1253 1620 l 1,10,-1
 1253 1516 l 1,11,-1
 1246 1502 l 1,12,-1
 546 1502 l 1,13,-1
 539 1516 l 1,14,-1
 539 1620 l 1,15,-1
 539 1620 l 1,9,-1
746 -52 m 1,16,-1
 746 66 l 1,17,-1
 1046 66 l 1,18,-1
 1046 -52 l 1,19,-1
 746 -52 l 1,20,-1
 746 -52 l 1,16,-1
1054 1172 m 1,21,-1
 1046 1158 l 1,22,-1
 1046 126 l 1,23,-1
 746 126 l 1,24,-1
 746 1158 l 1,25,-1
 581 1442 l 1,26,-1
 1211 1442 l 1,27,-1
 1054 1172 l 1,28,-1
 1054 1172 l 1,21,-1
896 844 m 1,29,30
 878 844 878 844 861 837 c 128,-1,31
 844 830 844 830 833 819 c 0,32,33
 819 805 819 805 812 789.5 c 128,-1,34
 805 774 805 774 805 752 c 2,35,-1
 805 634 l 2,36,37
 805 616 805 616 812 600 c 128,-1,38
 819 584 819 584 833 570 c 0,39,40
 843 560 843 560 860.5 553 c 128,-1,41
 878 546 878 546 896 546 c 256,42,43
 914 546 914 546 931 553 c 128,-1,44
 948 560 948 560 959 570 c 0,45,46
 973 584 973 584 980 600 c 128,-1,47
 987 616 987 616 987 634 c 2,48,-1
 987 752 l 2,49,50
 987 773 987 773 980 789 c 128,-1,51
 973 805 973 805 959 819 c 0,52,53
 949 829 949 829 931.5 836.5 c 128,-1,54
 914 844 914 844 896 844 c 1,55,-1
 896 844 l 1,29,30
928 634 m 1,56,57
 928 624 928 624 919 615 c 128,-1,58
 910 606 910 606 896 606 c 256,59,60
 882 606 882 606 873 614.5 c 0,61,62
 864 624 864 624 864 634 c 2,63,-1
 864 752 l 2,64,65
 864 766 864 766 873 775 c 128,-1,66
 882 784 882 784 896 784 c 256,67,68
 910 784 910 784 919 775 c 128,-1,69
 928 766 928 766 928 752 c 2,70,-1
 928 634 l 1,71,-1
 928 634 l 1,56,57
EndSplineSet
EndChar

StartChar: uniE641
Encoding: 58945 58945 69
Width: 1792
Flags: W
LayerCount: 2
Fore
SplineSet
984 514 m 1,0,1
 956 514 956 514 928 519.5 c 0,2,3
 900 526 900 526 875 536 c 256,4,5
 851 546 851 546 826.5 562 c 128,-1,6
 802 578 802 578 780 598 c 1,7,-1
 822 640 l 1,8,9
 857 608 857 608 897.5 591 c 128,-1,10
 938 574 938 574 984 574 c 0,11,12
 1026 574 1026 574 1068 591.5 c 0,13,14
 1110 608 1110 608 1141 640 c 2,15,-1
 1516 1018 l 2,16,17
 1551 1050 1551 1050 1566.5 1092 c 128,-1,18
 1582 1134 1582 1134 1582 1176 c 256,19,20
 1582 1218 1582 1218 1566 1260 c 128,-1,21
 1550 1302 1550 1302 1516 1334 c 2,22,-1
 1446 1404 l 2,23,24
 1414 1439 1414 1439 1372 1454.5 c 128,-1,25
 1330 1470 1330 1470 1288 1470 c 256,26,27
 1246 1470 1246 1470 1204 1454 c 128,-1,28
 1162 1438 1162 1438 1130 1404 c 2,29,-1
 864 1141 l 1,30,-1
 822 1183 l 1,31,-1
 1088 1446 l 2,32,33
 1126 1488 1126 1488 1179 1509 c 128,-1,34
 1232 1530 1232 1530 1288 1530 c 256,35,36
 1344 1530 1344 1530 1396.5 1509 c 0,37,38
 1450 1488 1450 1488 1488 1446 c 2,39,-1
 1558 1376 l 2,40,41
 1600 1338 1600 1338 1621 1285 c 128,-1,42
 1642 1232 1642 1232 1642 1176 c 256,43,44
 1642 1120 1642 1120 1621 1067.5 c 0,45,46
 1600 1014 1600 1014 1558 976 c 2,47,-1
 1183 598 l 2,48,49
 1162 577 1162 577 1137.5 561.5 c 0,50,51
 1112 546 1112 546 1088 536 c 256,52,53
 1064 526 1064 526 1036 520 c 128,-1,54
 1008 514 1008 514 984 514 c 1,55,-1
 984 514 l 1,0,1
504 38 m 1,56,57
 476 38 476 38 448 43.5 c 0,58,59
 420 50 420 50 396 60 c 256,60,61
 372 70 372 70 347 86 c 128,-1,62
 322 102 322 102 304 122 c 2,63,-1
 234 192 l 2,64,65
 192 230 192 230 171 283 c 128,-1,66
 150 336 150 336 150 392 c 256,67,68
 150 448 150 448 171 500.5 c 128,-1,69
 192 553 192 553 234 595 c 2,70,-1
 609 970 l 2,71,72
 651 1012 651 1012 703.5 1033 c 128,-1,73
 756 1054 756 1054 808 1054 c 0,74,75
 864 1054 864 1054 917 1033 c 128,-1,76
 970 1012 970 1012 1012 970 c 2,77,-1
 1082 900 l 1,78,-1
 1040 858 l 1,79,-1
 970 928 l 2,80,81
 935 960 935 960 894.5 977 c 128,-1,82
 854 994 854 994 808 994 c 0,83,84
 766 994 766 994 724 976.5 c 0,85,86
 682 960 682 960 651 928 c 2,87,-1
 276 550 l 2,88,89
 241 518 241 518 225.5 476 c 128,-1,90
 210 434 210 434 210 392 c 256,91,92
 210 350 210 350 226 308 c 128,-1,93
 242 266 242 266 276 234 c 2,94,-1
 346 164 l 2,95,96
 360 146 360 146 379.5 134 c 0,97,98
 398 122 398 122 416 116 c 0,99,100
 437 106 437 106 460 102 c 128,-1,101
 483 98 483 98 504 98 c 256,102,103
 525 98 525 98 547.5 101.5 c 0,104,105
 570 106 570 106 592 116 c 0,106,107
 610 123 610 123 629 135 c 0,108,109
 648 146 648 146 662 164 c 2,110,-1
 914 413 l 1,111,-1
 956 371 l 1,112,-1
 704 122 l 2,113,114
 686 101 686 101 661.5 85.5 c 0,115,116
 636 70 636 70 612 60 c 256,117,118
 588 50 588 50 560 44 c 128,-1,119
 532 38 532 38 504 38 c 1,120,-1
 504 38 l 1,56,57
EndSplineSet
EndChar

StartChar: uniE642
Encoding: 58946 58946 70
Width: 1792
Flags: W
LayerCount: 2
Fore
SplineSet
1225 1393 m 1,0,1
 1299 1393 1299 1393 1363.5 1365 c 128,-1,2
 1428 1337 1428 1337 1477 1288 c 256,3,4
 1526 1239 1526 1239 1554 1174.5 c 128,-1,5
 1582 1110 1582 1110 1582 1036 c 0,6,7
 1582 998 1582 998 1575 963 c 128,-1,8
 1568 928 1568 928 1554 892 c 0,9,10
 1540 860 1540 860 1519 832.5 c 0,11,12
 1498 804 1498 804 1474 780 c 2,13,-1
 896 200 l 1,14,-1
 308 791 l 2,15,16
 287 812 287 812 267.5 840 c 128,-1,17
 248 868 248 868 234 900 c 0,18,19
 224 932 224 932 217 966.5 c 128,-1,20
 210 1001 210 1001 210 1036 c 0,21,22
 210 1110 210 1110 238 1174.5 c 128,-1,23
 266 1239 266 1239 315 1288 c 256,24,25
 364 1337 364 1337 429 1365 c 128,-1,26
 494 1393 494 1393 567 1393 c 0,27,28
 623 1393 623 1393 673.5 1377.5 c 128,-1,29
 724 1362 724 1362 766 1334 c 0,30,31
 808 1302 808 1302 841.5 1262 c 128,-1,32
 875 1222 875 1222 896 1172 c 1,33,34
 917 1221 917 1221 950.5 1261.5 c 128,-1,35
 984 1302 984 1302 1026 1334 c 0,36,37
 1068 1362 1068 1362 1118.5 1377.5 c 128,-1,38
 1169 1393 1169 1393 1225 1393 c 1,39,-1
 1225 1393 l 1,0,1
1225 1452 m 1,40,41
 1176 1452 1176 1452 1129 1442 c 128,-1,42
 1082 1432 1082 1432 1040 1410 c 256,43,44
 998 1389 998 1389 961 1359.5 c 128,-1,45
 924 1330 924 1330 896 1292 c 1,46,47
 868 1330 868 1330 831 1360 c 128,-1,48
 794 1390 794 1390 752 1410 c 256,49,50
 710 1431 710 1431 663 1441.5 c 128,-1,51
 616 1452 616 1452 567 1452 c 0,52,53
 479 1452 479 1452 404 1419 c 128,-1,54
 329 1386 329 1386 273 1330 c 0,55,56
 213 1274 213 1274 181.5 1199 c 128,-1,57
 150 1124 150 1124 150 1036 c 0,58,59
 150 998 150 998 157 957.5 c 128,-1,60
 164 917 164 917 178 882 c 0,61,62
 196 844 196 844 217 810.5 c 128,-1,63
 238 777 238 777 266 749 c 2,64,-1
 896 116 l 1,65,-1
 1516 738 l 2,66,67
 1548 766 1548 766 1570 801 c 128,-1,68
 1592 836 1592 836 1610 872 c 1,69,70
 1624 910 1624 910 1633 952 c 128,-1,71
 1642 994 1642 994 1642 1036 c 0,72,73
 1642 1124 1642 1124 1610 1199 c 128,-1,74
 1578 1274 1578 1274 1519 1330 c 0,75,76
 1463 1386 1463 1386 1387.5 1419 c 128,-1,77
 1312 1452 1312 1452 1225 1452 c 1,78,-1
 1225 1452 l 1,79,-1
 1225 1452 l 1,40,41
EndSplineSet
EndChar

StartChar: uniE643
Encoding: 58947 58947 71
Width: 1792
Flags: W
LayerCount: 2
Fore
SplineSet
1494 1054 m 1,0,1
 1494 1176 1494 1176 1447 1284.5 c 128,-1,2
 1400 1393 1400 1393 1320 1477 c 1,3,4
 1236 1557 1236 1557 1127 1604.5 c 128,-1,5
 1018 1652 1018 1652 896 1652 c 256,6,7
 774 1652 774 1652 665 1605 c 128,-1,8
 556 1558 556 1558 472 1477 c 1,9,10
 392 1393 392 1393 345 1284.5 c 128,-1,11
 298 1176 298 1176 298 1054 c 0,12,13
 298 980 298 980 315 912 c 128,-1,14
 332 844 332 844 364 784 c 256,15,16
 396 724 396 724 439.5 672 c 0,17,18
 484 620 484 620 536 578 c 1,19,-1
 536 578 l 1,20,21
 540 578 540 578 541 576 c 128,-1,22
 542 574 542 574 542 570 c 1,23,-1
 544 570 l 0,24,-1
 546 570 l 1,25,26
 564 556 564 556 583 533.5 c 128,-1,27
 602 511 602 511 620 483 c 1,28,29
 634 451 634 451 646 414.5 c 128,-1,30
 658 378 658 378 658 336 c 2,31,-1
 658 -84 l 1,32,-1
 1134 -84 l 1,33,-1
 1134 336 l 2,34,35
 1134 382 1134 382 1146 420 c 128,-1,36
 1158 458 1158 458 1176 490 c 0,37,38
 1194 518 1194 518 1215 541 c 128,-1,39
 1236 564 1236 564 1253 578 c 1,40,-1
 1253 578 l 1,41,42
 1309 616 1309 616 1352.5 668.5 c 0,43,44
 1396 720 1396 720 1428 780 c 0,45,46
 1460 843 1460 843 1477 911.5 c 128,-1,47
 1494 980 1494 980 1494 1054 c 1,48,-1
 1494 1054 l 1,0,1
718 -21 m 1,49,-1
 718 158 l 1,50,-1
 1074 158 l 1,51,-1
 1074 -21 l 1,52,-1
 718 -21 l 1,53,-1
 718 -21 l 1,49,-1
896 994 m 1,54,55
 872 994 872 994 854 1011.5 c 0,56,57
 836 1030 836 1030 836 1054 c 256,58,59
 836 1078 836 1078 854 1095.5 c 128,-1,60
 872 1113 872 1113 896 1113 c 256,61,62
 920 1113 920 1113 938 1095.5 c 128,-1,63
 956 1078 956 1078 956 1054 c 256,64,65
 956 1030 956 1030 938 1012 c 128,-1,66
 920 994 920 994 896 994 c 1,67,-1
 896 994 l 1,54,55
1218 623 m 1,68,-1
 1218 623 l 1,69,-1
 1214 623 l 0,70,71
 1190 605 1190 605 1165.5 577.5 c 128,-1,72
 1141 550 1141 550 1120 514 c 0,73,74
 1099 476 1099 476 1086.5 432 c 128,-1,75
 1074 388 1074 388 1074 336 c 2,76,-1
 1074 217 l 1,77,-1
 928 217 l 1,78,-1
 928 938 l 1,79,80
 946 942 946 942 961 954 c 128,-1,81
 976 966 976 966 990 980 c 0,82,83
 1000 994 1000 994 1007.5 1013 c 128,-1,84
 1015 1032 1015 1032 1015 1054 c 0,85,86
 1015 1078 1015 1078 1006.5 1099 c 128,-1,87
 998 1120 998 1120 980 1138 c 256,88,89
 962 1156 962 1156 941 1164 c 128,-1,90
 920 1172 920 1172 896 1172 c 256,91,92
 872 1172 872 1172 851 1163.5 c 0,93,94
 830 1156 830 1156 812 1138 c 256,95,96
 794 1120 794 1120 785.5 1099 c 128,-1,97
 777 1078 777 1078 777 1054 c 0,98,99
 777 1033 777 1033 784 1013.5 c 0,100,101
 792 994 792 994 802 980 c 0,102,103
 816 966 816 966 831.5 954 c 0,104,105
 846 942 846 942 864 938 c 1,106,-1
 864 217 l 1,107,-1
 718 217 l 1,108,-1
 718 336 l 2,109,110
 718 385 718 385 705.5 428.5 c 128,-1,111
 693 472 693 472 672 508 c 0,112,113
 654 543 654 543 630 570.5 c 128,-1,114
 606 598 606 598 581 616 c 1,115,-1
 581 618 l 0,116,-1
 581 620 l 1,117,118
 577 620 577 620 577.5 621.5 c 128,-1,119
 578 623 578 623 574 623 c 1,120,-1
 574 624.5 l 0,121,122
 574 626 574 626 570 626 c 0,123,124
 521 664 521 664 481 712 c 128,-1,125
 441 760 441 760 413 816 c 0,126,127
 389 868 389 868 373 929 c 128,-1,128
 357 990 357 990 357 1054 c 0,129,130
 357 1166 357 1166 400.5 1264 c 128,-1,131
 444 1362 444 1362 514 1432 c 0,132,133
 588 1506 588 1506 686 1547.5 c 128,-1,134
 784 1589 784 1589 896 1589 c 256,135,136
 1008 1589 1008 1589 1106 1547 c 0,137,138
 1204 1506 1204 1506 1278 1432 c 0,139,140
 1348 1362 1348 1362 1391.5 1264 c 128,-1,141
 1435 1166 1435 1166 1435 1054 c 0,142,143
 1435 991 1435 991 1419.5 929.5 c 128,-1,144
 1404 868 1404 868 1376 812 c 0,145,146
 1352 760 1352 760 1311 711 c 128,-1,147
 1270 662 1270 662 1218 623 c 1,148,-1
 1218 623 l 1,68,-1
EndSplineSet
EndChar

StartChar: uniE644
Encoding: 58948 58948 72
Width: 1792
Flags: W
LayerCount: 2
Fore
SplineSet
896 1530 m 1,0,1
 742 1530 742 1530 605.5 1472 c 0,2,3
 470 1414 470 1414 368 1312 c 256,4,5
 266 1210 266 1210 208 1074 c 128,-1,6
 150 938 150 938 150 784 c 256,7,8
 150 630 150 630 208 493.5 c 0,9,10
 266 358 266 358 368 256 c 256,11,12
 470 154 470 154 606 96 c 128,-1,13
 742 38 742 38 896 38 c 256,14,15
 1050 38 1050 38 1186.5 96 c 0,16,17
 1322 154 1322 154 1424 256 c 256,18,19
 1526 358 1526 358 1584 494 c 128,-1,20
 1642 630 1642 630 1642 784 c 256,21,22
 1642 938 1642 938 1584 1074.5 c 0,23,24
 1526 1210 1526 1210 1424 1312 c 256,25,26
 1322 1414 1322 1414 1186 1472 c 128,-1,27
 1050 1530 1050 1530 896 1530 c 1,28,-1
 896 1530 l 1,0,1
896 98 m 1,29,30
 752 98 752 98 628 152 c 128,-1,31
 504 206 504 206 410 298 c 1,32,33
 319 392 319 392 264.5 516 c 128,-1,34
 210 640 210 640 210 784 c 256,35,36
 210 928 210 928 264 1052 c 128,-1,37
 318 1176 318 1176 410 1270 c 1,38,39
 504 1361 504 1361 628 1415.5 c 128,-1,40
 752 1470 752 1470 896 1470 c 256,41,42
 1040 1470 1040 1470 1164 1416 c 128,-1,43
 1288 1362 1288 1362 1382 1270 c 1,44,45
 1473 1176 1473 1176 1527.5 1052 c 128,-1,46
 1582 928 1582 928 1582 784 c 256,47,48
 1582 640 1582 640 1528 516 c 128,-1,49
 1474 392 1474 392 1382 298 c 1,50,51
 1288 207 1288 207 1164 152.5 c 128,-1,52
 1040 98 1040 98 896 98 c 1,53,-1
 896 98 l 1,29,30
511 816 m 1,54,-1
 1284 816 l 1,55,-1
 1284 752 l 1,56,-1
 511 752 l 1,57,-1
 511 816 l 1,58,-1
 511 816 l 1,54,-1
EndSplineSet
EndChar

StartChar: uniE645
Encoding: 58949 58949 73
Width: 1792
Flags: W
LayerCount: 2
Fore
SplineSet
388 455 m 1,0,1
 350 455 350 455 318.5 441 c 0,2,3
 286 426 286 426 262 402 c 256,4,5
 238 378 238 378 224 346.5 c 0,6,7
 210 314 210 314 210 276 c 256,8,9
 210 238 210 238 224 206.5 c 0,10,11
 238 174 238 174 262 150 c 256,12,13
 286 126 286 126 318 112 c 128,-1,14
 350 98 350 98 388 98 c 256,15,16
 426 98 426 98 458 112 c 128,-1,17
 490 126 490 126 514 150 c 256,18,19
 538 174 538 174 552.5 206 c 128,-1,20
 567 238 567 238 567 276 c 256,21,22
 567 314 567 314 553 346 c 0,23,24
 538 378 538 378 514 402 c 256,25,26
 490 426 490 426 458.5 440.5 c 0,27,28
 426 455 426 455 388 455 c 1,29,-1
 388 455 l 1,0,1
388 158 m 1,30,31
 364 158 364 158 343 166.5 c 0,32,33
 322 174 322 174 304 192 c 256,34,35
 286 210 286 210 278 231 c 128,-1,36
 270 252 270 252 270 276 c 256,37,38
 270 300 270 300 278.5 321.5 c 0,39,40
 286 342 286 342 304 360 c 256,41,42
 322 378 322 378 343 387 c 128,-1,43
 364 396 364 396 388 396 c 256,44,45
 412 396 412 396 433.5 387 c 0,46,47
 454 378 454 378 472 360 c 256,48,49
 490 342 490 342 499 321.5 c 0,50,51
 508 300 508 300 508 276 c 256,52,53
 508 252 508 252 499 231 c 128,-1,54
 490 210 490 210 472 192 c 256,55,56
 454 174 454 174 433.5 166 c 0,57,58
 412 158 412 158 388 158 c 1,59,-1
 388 158 l 1,30,31
388 1470 m 1,60,61
 350 1470 350 1470 318.5 1456 c 0,62,63
 286 1442 286 1442 262 1418 c 256,64,65
 238 1394 238 1394 224 1362 c 128,-1,66
 210 1330 210 1330 210 1292 c 256,67,68
 210 1254 210 1254 224 1222 c 128,-1,69
 238 1190 238 1190 262 1166 c 256,70,71
 286 1142 286 1142 318 1127.5 c 128,-1,72
 350 1113 350 1113 388 1113 c 256,73,74
 426 1113 426 1113 458 1127 c 0,75,76
 490 1142 490 1142 514 1166 c 256,77,78
 538 1190 538 1190 552.5 1221.5 c 0,79,80
 567 1254 567 1254 567 1292 c 256,81,82
 567 1330 567 1330 553 1361.5 c 0,83,84
 538 1394 538 1394 514 1418 c 256,85,86
 490 1442 490 1442 458.5 1456 c 0,87,88
 426 1470 426 1470 388 1470 c 1,89,-1
 388 1470 l 1,60,61
388 1172 m 1,90,91
 364 1172 364 1172 343 1181 c 128,-1,92
 322 1190 322 1190 304 1208 c 256,93,94
 286 1226 286 1226 278 1246.5 c 0,95,96
 270 1268 270 1268 270 1292 c 256,97,98
 270 1316 270 1316 278.5 1337 c 0,99,100
 286 1358 286 1358 304 1376 c 256,101,102
 322 1394 322 1394 343 1402 c 128,-1,103
 364 1410 364 1410 388 1410 c 256,104,105
 412 1410 412 1410 433.5 1401.5 c 0,106,107
 454 1394 454 1394 472 1376 c 256,108,109
 490 1358 490 1358 499 1337 c 128,-1,110
 508 1316 508 1316 508 1292 c 256,111,112
 508 1268 508 1268 499 1246.5 c 0,113,114
 490 1226 490 1226 472 1208 c 256,115,116
 454 1190 454 1190 433.5 1181 c 0,117,118
 412 1172 412 1172 388 1172 c 1,119,-1
 388 1172 l 1,90,91
388 966 m 1,120,121
 350 966 350 966 318.5 950 c 0,122,123
 286 934 286 934 262 914 c 0,124,125
 238 890 238 890 224 856 c 128,-1,126
 210 822 210 822 210 784 c 0,127,128
 210 749 210 749 224 715.5 c 128,-1,129
 238 682 238 682 262 658 c 256,130,131
 286 634 286 634 318 620 c 128,-1,132
 350 606 350 606 388 606 c 256,133,134
 426 606 426 606 458 620 c 128,-1,135
 490 634 490 634 514 658 c 256,136,137
 538 682 538 682 552.5 715.5 c 128,-1,138
 567 749 567 749 567 784 c 0,139,140
 567 822 567 822 553 855.5 c 0,141,142
 538 890 538 890 514 914 c 0,143,144
 490 935 490 935 458.5 950.5 c 0,145,146
 426 966 426 966 388 966 c 1,147,-1
 388 966 l 1,120,121
388 665 m 1,148,149
 364 665 364 665 343 675.5 c 128,-1,150
 322 686 322 686 304 700 c 0,151,152
 286 718 286 718 278 739 c 128,-1,153
 270 760 270 760 270 784 c 256,154,155
 270 808 270 808 278.5 831 c 0,156,157
 286 854 286 854 304 868 c 0,158,159
 322 886 322 886 343 894.5 c 128,-1,160
 364 903 364 903 388 903 c 256,161,162
 412 903 412 903 433.5 894.5 c 0,163,164
 454 886 454 886 472 868 c 0,165,166
 490 854 490 854 499 831 c 128,-1,167
 508 808 508 808 508 784 c 256,168,169
 508 760 508 760 499 739 c 128,-1,170
 490 718 490 718 472 700 c 0,171,172
 454 686 454 686 433.5 675.5 c 0,173,174
 412 665 412 665 388 665 c 1,175,-1
 388 665 l 1,148,149
896 455 m 1,176,177
 858 455 858 455 826 441 c 0,178,179
 794 426 794 426 770 402 c 256,180,181
 746 378 746 378 732 346.5 c 0,182,183
 718 314 718 314 718 276 c 256,184,185
 718 238 718 238 732 206.5 c 0,186,187
 746 174 746 174 770 150 c 256,188,189
 794 126 794 126 826 112 c 128,-1,190
 858 98 858 98 896 98 c 256,191,192
 934 98 934 98 966 112 c 128,-1,193
 998 126 998 126 1022 150 c 256,194,195
 1046 174 1046 174 1060 206 c 128,-1,196
 1074 238 1074 238 1074 276 c 256,197,198
 1074 314 1074 314 1060 346 c 128,-1,199
 1046 378 1046 378 1022 402 c 256,200,201
 998 426 998 426 966 440.5 c 128,-1,202
 934 455 934 455 896 455 c 1,203,-1
 896 455 l 1,176,177
896 158 m 1,204,205
 872 158 872 158 851 166.5 c 0,206,207
 830 174 830 174 812 192 c 256,208,209
 794 210 794 210 785.5 231 c 128,-1,210
 777 252 777 252 777 276 c 256,211,212
 777 300 777 300 785.5 321.5 c 0,213,214
 794 342 794 342 812 360 c 256,215,216
 830 378 830 378 851 387 c 128,-1,217
 872 396 872 396 896 396 c 256,218,219
 920 396 920 396 941 387 c 128,-1,220
 962 378 962 378 980 360 c 256,221,222
 998 342 998 342 1006.5 321.5 c 0,223,224
 1015 300 1015 300 1015 276 c 256,225,226
 1015 252 1015 252 1006.5 231 c 128,-1,227
 998 210 998 210 980 192 c 256,228,229
 962 174 962 174 941 166 c 128,-1,230
 920 158 920 158 896 158 c 1,231,-1
 896 158 l 1,204,205
896 1470 m 1,232,233
 858 1470 858 1470 826 1456 c 128,-1,234
 794 1442 794 1442 770 1418 c 256,235,236
 746 1394 746 1394 732 1362 c 128,-1,237
 718 1330 718 1330 718 1292 c 256,238,239
 718 1254 718 1254 732 1222 c 128,-1,240
 746 1190 746 1190 770 1166 c 256,241,242
 794 1142 794 1142 826 1127.5 c 128,-1,243
 858 1113 858 1113 896 1113 c 256,244,245
 934 1113 934 1113 966 1127 c 0,246,247
 998 1142 998 1142 1022 1166 c 256,248,249
 1046 1190 1046 1190 1060 1221.5 c 0,250,251
 1074 1254 1074 1254 1074 1292 c 256,252,253
 1074 1330 1074 1330 1060 1361.5 c 0,254,255
 1046 1394 1046 1394 1022 1418 c 256,256,257
 998 1442 998 1442 966 1456 c 128,-1,258
 934 1470 934 1470 896 1470 c 1,259,-1
 896 1470 l 1,232,233
896 1172 m 1,260,261
 872 1172 872 1172 851 1181 c 128,-1,262
 830 1190 830 1190 812 1208 c 256,263,264
 794 1226 794 1226 785.5 1246.5 c 0,265,266
 777 1268 777 1268 777 1292 c 256,267,268
 777 1316 777 1316 785.5 1337 c 128,-1,269
 794 1358 794 1358 812 1376 c 256,270,271
 830 1394 830 1394 851 1402 c 128,-1,272
 872 1410 872 1410 896 1410 c 256,273,274
 920 1410 920 1410 941 1401.5 c 0,275,276
 962 1394 962 1394 980 1376 c 256,277,278
 998 1358 998 1358 1006.5 1337 c 128,-1,279
 1015 1316 1015 1316 1015 1292 c 256,280,281
 1015 1268 1015 1268 1006.5 1246.5 c 0,282,283
 998 1226 998 1226 980 1208 c 256,284,285
 962 1190 962 1190 941 1181 c 128,-1,286
 920 1172 920 1172 896 1172 c 1,287,-1
 896 1172 l 1,260,261
896 966 m 1,288,289
 858 966 858 966 826 950 c 128,-1,290
 794 934 794 934 770 914 c 0,291,292
 746 890 746 890 732 856 c 128,-1,293
 718 822 718 822 718 784 c 0,294,295
 718 749 718 749 732 715.5 c 128,-1,296
 746 682 746 682 770 658 c 256,297,298
 794 634 794 634 826 620 c 128,-1,299
 858 606 858 606 896 606 c 256,300,301
 934 606 934 606 966 620 c 128,-1,302
 998 634 998 634 1022 658 c 256,303,304
 1046 682 1046 682 1060 715.5 c 128,-1,305
 1074 749 1074 749 1074 784 c 0,306,307
 1074 822 1074 822 1060 855.5 c 0,308,309
 1046 890 1046 890 1022 914 c 0,310,311
 998 935 998 935 966 950.5 c 128,-1,312
 934 966 934 966 896 966 c 1,313,-1
 896 966 l 1,288,289
896 665 m 1,314,315
 872 665 872 665 851 675.5 c 128,-1,316
 830 686 830 686 812 700 c 0,317,318
 794 718 794 718 785.5 739 c 128,-1,319
 777 760 777 760 777 784 c 256,320,321
 777 808 777 808 785.5 831 c 128,-1,322
 794 854 794 854 812 868 c 0,323,324
 830 886 830 886 851 894.5 c 128,-1,325
 872 903 872 903 896 903 c 256,326,327
 920 903 920 903 941 894.5 c 128,-1,328
 962 886 962 886 980 868 c 0,329,330
 998 854 998 854 1006.5 831 c 128,-1,331
 1015 808 1015 808 1015 784 c 256,332,333
 1015 760 1015 760 1006.5 739 c 128,-1,334
 998 718 998 718 980 700 c 0,335,336
 962 686 962 686 941 675.5 c 128,-1,337
 920 665 920 665 896 665 c 1,338,-1
 896 665 l 1,314,315
1404 455 m 1,339,340
 1366 455 1366 455 1334 441 c 0,341,342
 1302 426 1302 426 1278 402 c 256,343,344
 1254 378 1254 378 1239.5 346.5 c 0,345,346
 1225 314 1225 314 1225 276 c 256,347,348
 1225 238 1225 238 1239 206.5 c 0,349,350
 1254 174 1254 174 1278 150 c 256,351,352
 1302 126 1302 126 1333.5 112 c 0,353,354
 1366 98 1366 98 1404 98 c 256,355,356
 1442 98 1442 98 1473.5 112 c 0,357,358
 1506 126 1506 126 1530 150 c 256,359,360
 1554 174 1554 174 1568 206 c 128,-1,361
 1582 238 1582 238 1582 276 c 256,362,363
 1582 314 1582 314 1568 346 c 128,-1,364
 1554 378 1554 378 1530 402 c 256,365,366
 1506 426 1506 426 1474 440.5 c 128,-1,367
 1442 455 1442 455 1404 455 c 1,368,-1
 1404 455 l 1,339,340
1404 158 m 1,369,370
 1380 158 1380 158 1358.5 166.5 c 0,371,372
 1338 174 1338 174 1320 192 c 256,373,374
 1302 210 1302 210 1293 231 c 128,-1,375
 1284 252 1284 252 1284 276 c 256,376,377
 1284 300 1284 300 1293 321.5 c 0,378,379
 1302 342 1302 342 1320 360 c 256,380,381
 1338 378 1338 378 1358.5 387 c 0,382,383
 1380 396 1380 396 1404 396 c 256,384,385
 1428 396 1428 396 1449 387 c 128,-1,386
 1470 378 1470 378 1488 360 c 256,387,388
 1506 342 1506 342 1514 321.5 c 0,389,390
 1522 300 1522 300 1522 276 c 256,391,392
 1522 252 1522 252 1513.5 231 c 0,393,394
 1506 210 1506 210 1488 192 c 256,395,396
 1470 174 1470 174 1449 166 c 128,-1,397
 1428 158 1428 158 1404 158 c 1,398,-1
 1404 158 l 1,369,370
1404 1113 m 1,399,400
 1442 1113 1442 1113 1473.5 1127 c 0,401,402
 1506 1142 1506 1142 1530 1166 c 256,403,404
 1554 1190 1554 1190 1568 1221.5 c 0,405,406
 1582 1254 1582 1254 1582 1292 c 256,407,408
 1582 1330 1582 1330 1568 1361.5 c 0,409,410
 1554 1394 1554 1394 1530 1418 c 256,411,412
 1506 1442 1506 1442 1474 1456 c 128,-1,413
 1442 1470 1442 1470 1404 1470 c 256,414,415
 1366 1470 1366 1470 1334 1456 c 128,-1,416
 1302 1442 1302 1442 1278 1418 c 256,417,418
 1254 1394 1254 1394 1239.5 1362 c 128,-1,419
 1225 1330 1225 1330 1225 1292 c 256,420,421
 1225 1254 1225 1254 1239 1222 c 0,422,423
 1254 1190 1254 1190 1278 1166 c 256,424,425
 1302 1142 1302 1142 1333.5 1127.5 c 0,426,427
 1366 1113 1366 1113 1404 1113 c 1,428,-1
 1404 1113 l 1,399,400
1404 1410 m 1,429,430
 1428 1410 1428 1410 1449 1401.5 c 0,431,432
 1470 1394 1470 1394 1488 1376 c 256,433,434
 1506 1358 1506 1358 1514 1337 c 128,-1,435
 1522 1316 1522 1316 1522 1292 c 256,436,437
 1522 1268 1522 1268 1513.5 1246.5 c 0,438,439
 1506 1226 1506 1226 1488 1208 c 256,440,441
 1470 1190 1470 1190 1449 1181 c 128,-1,442
 1428 1172 1428 1172 1404 1172 c 256,443,444
 1380 1172 1380 1172 1358.5 1181 c 0,445,446
 1338 1190 1338 1190 1320 1208 c 256,447,448
 1302 1226 1302 1226 1293 1246.5 c 0,449,450
 1284 1268 1284 1268 1284 1292 c 256,451,452
 1284 1316 1284 1316 1293 1337 c 128,-1,453
 1302 1358 1302 1358 1320 1376 c 256,454,455
 1338 1394 1338 1394 1358.5 1402 c 0,456,457
 1380 1410 1380 1410 1404 1410 c 1,458,-1
 1404 1410 l 1,429,430
1404 966 m 1,459,460
 1366 966 1366 966 1334 950 c 128,-1,461
 1302 934 1302 934 1278 914 c 0,462,463
 1254 890 1254 890 1239.5 856 c 128,-1,464
 1225 822 1225 822 1225 784 c 0,465,466
 1225 749 1225 749 1239 715.5 c 0,467,468
 1254 682 1254 682 1278 658 c 256,469,470
 1302 634 1302 634 1333.5 620 c 0,471,472
 1366 606 1366 606 1404 606 c 256,473,474
 1442 606 1442 606 1473.5 620 c 0,475,476
 1506 634 1506 634 1530 658 c 256,477,478
 1554 682 1554 682 1568 715.5 c 128,-1,479
 1582 749 1582 749 1582 784 c 0,480,481
 1582 822 1582 822 1568 855.5 c 0,482,483
 1554 890 1554 890 1530 914 c 0,484,485
 1506 935 1506 935 1474 950.5 c 128,-1,486
 1442 966 1442 966 1404 966 c 1,487,-1
 1404 966 l 1,459,460
1404 665 m 1,488,489
 1380 665 1380 665 1358.5 675.5 c 0,490,491
 1338 686 1338 686 1320 700 c 0,492,493
 1302 718 1302 718 1293 739 c 128,-1,494
 1284 760 1284 760 1284 784 c 256,495,496
 1284 808 1284 808 1293 831 c 128,-1,497
 1302 854 1302 854 1320 868 c 0,498,499
 1338 886 1338 886 1358.5 894.5 c 0,500,501
 1380 903 1380 903 1404 903 c 256,502,503
 1428 903 1428 903 1449 894.5 c 128,-1,504
 1470 886 1470 886 1488 868 c 0,505,506
 1506 854 1506 854 1514 831 c 128,-1,507
 1522 808 1522 808 1522 784 c 256,508,509
 1522 760 1522 760 1513.5 739 c 0,510,511
 1506 718 1506 718 1488 700 c 0,512,513
 1470 686 1470 686 1449 675.5 c 128,-1,514
 1428 665 1428 665 1404 665 c 1,515,-1
 1404 665 l 1,488,489
EndSplineSet
EndChar

StartChar: uniE646
Encoding: 58950 58950 74
Width: 1792
Flags: W
LayerCount: 2
Fore
SplineSet
1116 844 m 1,0,-1
 1074 886 l 1,1,-1
 896 707 l 1,2,-1
 718 886 l 1,3,-1
 676 844 l 1,4,-1
 854 665 l 1,5,-1
 672 486 l 1,6,-1
 718 444 l 1,7,-1
 896 623 l 1,8,-1
 1074 444 l 1,9,-1
 1120 486 l 1,10,-1
 938 665 l 1,11,-1
 1116 844 l 1,0,-1
1642 1292 m 1,12,-1
 150 1292 l 1,13,-1
 150 1232 l 1,14,-1
 192 1232 l 1,15,-1
 210 1113 l 2,16,17
 210 1095 210 1095 215 1077.5 c 128,-1,18
 220 1060 220 1060 228 1046 c 0,19,20
 238 1032 238 1032 250 1022 c 128,-1,21
 262 1012 262 1012 276 1004 c 1,22,-1
 382 392 l 2,23,24
 389 368 389 368 397.5 347 c 128,-1,25
 406 326 406 326 420 312 c 0,26,27
 434 294 434 294 453 285 c 128,-1,28
 472 276 472 276 497 276 c 2,29,-1
 1295 276 l 2,30,31
 1319 276 1319 276 1338.5 285 c 128,-1,32
 1358 294 1358 294 1372 308 c 0,33,34
 1386 326 1386 326 1395 347 c 128,-1,35
 1404 368 1404 368 1410 392 c 2,36,-1
 1516 1004 l 1,37,38
 1530 1011 1530 1011 1542 1021.5 c 128,-1,39
 1554 1032 1554 1032 1564 1046 c 0,40,41
 1571 1060 1571 1060 1576.5 1078 c 128,-1,42
 1582 1096 1582 1096 1582 1113 c 2,43,-1
 1600 1232 l 1,44,-1
 1642 1232 l 1,45,-1
 1642 1292 l 1,46,-1
 1642 1292 l 1,12,-1
1351 402 m 1,47,48
 1347 381 1347 381 1335 358.5 c 128,-1,49
 1323 336 1323 336 1295 336 c 2,50,-1
 497 336 l 2,51,52
 465 336 465 336 454.5 362 c 128,-1,53
 444 388 444 388 441 399 c 2,54,-1
 340 994 l 1,55,-1
 1452 994 l 1,56,-1
 1351 402 l 1,57,-1
 1351 402 l 1,47,48
1522 1120 m 1,58,-1
 1522 1116 l 1,59,-1
 1522 1113 l 2,60,61
 1522 1089 1522 1089 1505 1071.5 c 128,-1,62
 1488 1054 1488 1054 1463 1054 c 2,63,-1
 329 1054 l 2,64,65
 305 1054 305 1054 287.5 1071 c 128,-1,66
 270 1088 270 1088 270 1113 c 2,67,-1
 270 1116 l 1,68,-1
 270 1120 l 1,69,-1
 252 1232 l 1,70,-1
 1540 1232 l 1,71,-1
 1522 1120 l 1,72,-1
 1522 1120 l 1,58,-1
EndSplineSet
EndChar

StartChar: uniE647
Encoding: 58951 58951 75
Width: 1792
Flags: W
LayerCount: 2
Fore
SplineSet
900 1057 m 1,0,1
 918 1057 918 1057 935 1064 c 0,2,3
 952 1072 952 1072 962 1082 c 0,4,5
 976 1092 976 1092 983 1109.5 c 0,6,7
 990 1126 990 1126 990 1144 c 256,8,9
 990 1162 990 1162 983 1179.5 c 0,10,11
 976 1198 976 1198 962 1208 c 1,12,13
 952 1222 952 1222 934.5 1229 c 0,14,15
 918 1236 918 1236 900 1236 c 256,16,17
 882 1236 882 1236 864.5 1229 c 0,18,19
 846 1222 846 1222 836 1208 c 1,20,21
 822 1198 822 1198 815 1180 c 128,-1,22
 808 1162 808 1162 808 1144 c 256,23,24
 808 1126 808 1126 815 1109 c 128,-1,25
 822 1092 822 1092 836 1082 c 0,26,27
 846 1072 846 1072 864 1064.5 c 128,-1,28
 882 1057 882 1057 900 1057 c 1,29,-1
 900 1057 l 1,0,1
959 934 m 1,30,-1
 959 994 l 1,31,-1
 780 994 l 1,32,-1
 780 934 l 1,33,-1
 840 934 l 1,34,-1
 840 427 l 1,35,-1
 780 427 l 1,36,-1
 780 368 l 1,37,-1
 1022 368 l 1,38,-1
 1022 427 l 1,39,-1
 959 427 l 1,40,-1
 959 934 l 1,30,-1
896 1530 m 1,41,42
 742 1530 742 1530 605.5 1472 c 0,43,44
 470 1414 470 1414 368 1312 c 256,45,46
 266 1210 266 1210 208 1074 c 128,-1,47
 150 938 150 938 150 784 c 256,48,49
 150 630 150 630 208 493.5 c 0,50,51
 266 358 266 358 368 256 c 256,52,53
 470 154 470 154 606 96 c 128,-1,54
 742 38 742 38 896 38 c 256,55,56
 1050 38 1050 38 1186.5 96 c 0,57,58
 1322 154 1322 154 1424 256 c 256,59,60
 1526 358 1526 358 1584 494 c 128,-1,61
 1642 630 1642 630 1642 784 c 256,62,63
 1642 938 1642 938 1584 1074.5 c 0,64,65
 1526 1210 1526 1210 1424 1312 c 256,66,67
 1322 1414 1322 1414 1186 1472 c 128,-1,68
 1050 1530 1050 1530 896 1530 c 1,69,-1
 896 1530 l 1,41,42
896 98 m 1,70,71
 752 98 752 98 628 152 c 128,-1,72
 504 206 504 206 410 298 c 1,73,74
 319 392 319 392 264.5 516 c 128,-1,75
 210 640 210 640 210 784 c 256,76,77
 210 928 210 928 264 1052 c 128,-1,78
 318 1176 318 1176 410 1270 c 1,79,80
 504 1361 504 1361 628 1415.5 c 128,-1,81
 752 1470 752 1470 896 1470 c 256,82,83
 1040 1470 1040 1470 1164 1416 c 128,-1,84
 1288 1362 1288 1362 1382 1270 c 1,85,86
 1473 1176 1473 1176 1527.5 1052 c 128,-1,87
 1582 928 1582 928 1582 784 c 256,88,89
 1582 640 1582 640 1528 516 c 128,-1,90
 1474 392 1474 392 1382 298 c 1,91,92
 1288 207 1288 207 1164 152.5 c 128,-1,93
 1040 98 1040 98 896 98 c 1,94,-1
 896 98 l 1,70,71
EndSplineSet
EndChar

StartChar: uniE648
Encoding: 58952 58952 76
Width: 1792
Flags: W
LayerCount: 2
Fore
SplineSet
896 1530 m 1,0,-1
 598 1232 l 1,1,-1
 598 1351 l 1,2,-1
 357 1351 l 1,3,-1
 357 994 l 1,4,-1
 147 784 l 1,5,-1
 189 742 l 1,6,-1
 896 1446 l 1,7,-1
 1603 742 l 1,8,-1
 1645 784 l 1,9,-1
 896 1530 l 1,10,-1
 896 1530 l 1,0,-1
420 1292 m 1,11,-1
 539 1292 l 1,12,-1
 539 1172 l 1,13,-1
 420 1054 l 1,14,-1
 420 1292 l 1,15,-1
 420 1292 l 1,11,-1
357 752 m 1,16,-1
 357 38 l 1,17,-1
 777 38 l 1,18,-1
 777 455 l 1,19,-1
 1015 455 l 1,20,-1
 1015 38 l 1,21,-1
 1435 38 l 1,22,-1
 1435 752 l 1,23,-1
 896 1292 l 1,24,-1
 357 752 l 1,25,-1
 357 752 l 1,16,-1
1372 98 m 1,26,-1
 1074 98 l 1,27,-1
 1074 514 l 1,28,-1
 718 514 l 1,29,-1
 718 98 l 1,30,-1
 420 98 l 1,31,-1
 420 728 l 1,32,-1
 896 1208 l 1,33,-1
 1372 728 l 1,34,-1
 1372 98 l 1,35,-1
 1372 98 l 1,26,-1
EndSplineSet
EndChar

StartChar: uniE649
Encoding: 58953 58953 77
Width: 1792
Flags: W
LayerCount: 2
Fore
SplineSet
896 1502 m 1,0,1
 749 1502 749 1502 617.5 1446 c 128,-1,2
 486 1390 486 1390 388 1292 c 256,3,4
 290 1194 290 1194 234 1062.5 c 128,-1,5
 178 931 178 931 178 784 c 256,6,7
 178 637 178 637 234 505.5 c 128,-1,8
 290 374 290 374 388 276 c 256,9,10
 486 178 486 178 617.5 122 c 128,-1,11
 749 66 749 66 896 66 c 256,12,13
 1043 66 1043 66 1174.5 122 c 128,-1,14
 1306 178 1306 178 1404 276 c 256,15,16
 1502 374 1502 374 1558 505.5 c 128,-1,17
 1614 637 1614 637 1614 784 c 256,18,19
 1614 931 1614 931 1558 1062.5 c 128,-1,20
 1502 1194 1502 1194 1404 1292 c 256,21,22
 1306 1390 1306 1390 1174.5 1446 c 128,-1,23
 1043 1502 1043 1502 896 1502 c 1,24,-1
 896 1502 l 1,0,1
896 455 m 1,25,26
 830 455 830 455 768.5 481.5 c 128,-1,27
 707 508 707 508 665 553 c 1,28,29
 619 595 619 595 593 656.5 c 128,-1,30
 567 718 567 718 567 784 c 256,31,32
 567 850 567 850 593.5 911.5 c 128,-1,33
 620 973 620 973 665 1015 c 1,34,35
 707 1061 707 1061 768.5 1087 c 128,-1,36
 830 1113 830 1113 896 1113 c 1,37,-1
 896 1113 l 1,38,39
 962 1113 962 1113 1023.5 1086.5 c 128,-1,40
 1085 1060 1085 1060 1127 1015 c 1,41,42
 1173 973 1173 973 1199 911.5 c 128,-1,43
 1225 850 1225 850 1225 784 c 256,44,45
 1225 718 1225 718 1198.5 656.5 c 128,-1,46
 1172 595 1172 595 1127 553 c 1,47,48
 1085 507 1085 507 1023.5 481 c 128,-1,49
 962 455 962 455 896 455 c 1,50,-1
 896 455 l 1,25,26
1253 934 m 1,51,-1
 1480 1085 l 1,52,53
 1498 1050 1498 1050 1512 1015 c 128,-1,54
 1526 980 1526 980 1533 942 c 0,55,56
 1543 904 1543 904 1548.5 865 c 128,-1,57
 1554 826 1554 826 1554 784 c 0,58,59
 1554 746 1554 746 1549 705.5 c 128,-1,60
 1544 665 1544 665 1533 630 c 1,61,62
 1526 592 1526 592 1512 557 c 128,-1,63
 1498 522 1498 522 1480 486 c 1,64,-1
 1256 637 l 1,65,66
 1263 655 1263 655 1268.5 672.5 c 128,-1,67
 1274 690 1274 690 1278 707 c 0,68,69
 1282 728 1282 728 1283 745.5 c 128,-1,70
 1284 763 1284 763 1284 784 c 256,71,72
 1284 805 1284 805 1282.5 824.5 c 0,73,74
 1282 844 1282 844 1278 861 c 256,75,76
 1274 879 1274 879 1267 898 c 0,77,78
 1260 916 1260 916 1253 934 c 1,79,-1
 1253 934 l 1,51,-1
1449 1138 m 1,80,-1
 1225 987 l 1,81,82
 1215 1008 1215 1008 1200.5 1025.5 c 0,83,84
 1186 1042 1186 1042 1169 1060 c 0,85,86
 1151 1074 1151 1074 1133.5 1088 c 128,-1,87
 1116 1102 1116 1102 1096 1116 c 1,88,-1
 1246 1340 l 1,89,90
 1278 1319 1278 1319 1306 1296.5 c 128,-1,91
 1334 1274 1334 1274 1358 1250 c 0,92,93
 1386 1226 1386 1226 1409 1196 c 128,-1,94
 1432 1166 1432 1166 1449 1138 c 1,95,-1
 1449 1138 l 1,80,-1
1194 1368 m 1,96,-1
 1043 1144 l 1,97,98
 1025 1151 1025 1151 1007.5 1156.5 c 128,-1,99
 990 1162 990 1162 973 1166 c 0,100,101
 952 1170 952 1170 934.5 1171 c 128,-1,102
 917 1172 917 1172 896 1172 c 1,103,-1
 896 1172 l 1,104,105
 875 1172 875 1172 857.5 1170.5 c 0,106,107
 840 1170 840 1170 819 1166 c 0,108,109
 801 1162 801 1162 783.5 1157 c 128,-1,110
 766 1152 766 1152 749 1144 c 1,111,-1
 598 1368 l 1,112,113
 633 1386 633 1386 668.5 1400 c 128,-1,114
 704 1414 704 1414 742 1421 c 1,115,116
 777 1431 777 1431 817.5 1436.5 c 128,-1,117
 858 1442 858 1442 896 1442 c 256,118,119
 934 1442 934 1442 974.5 1437 c 128,-1,120
 1015 1432 1015 1432 1050 1421 c 1,121,122
 1088 1414 1088 1414 1123 1400 c 128,-1,123
 1158 1386 1158 1386 1194 1368 c 1,124,-1
 1194 1368 l 1,96,-1
546 1340 m 1,125,-1
 696 1116 l 1,126,127
 675 1102 675 1102 657.5 1088 c 128,-1,128
 640 1074 640 1074 623 1060 c 0,129,130
 605 1042 605 1042 591.5 1025 c 128,-1,131
 578 1008 578 1008 567 987 c 1,132,-1
 343 1138 l 1,133,134
 361 1166 361 1166 383.5 1195.5 c 0,135,136
 406 1226 406 1226 434 1250 c 0,137,138
 458 1274 458 1274 486 1297 c 128,-1,139
 514 1320 514 1320 546 1340 c 1,140,-1
 546 1340 l 1,125,-1
312 1085 m 1,141,-1
 539 934 l 1,142,143
 532 916 532 916 525 897 c 128,-1,144
 518 878 518 878 514 861 c 256,145,146
 510 843 510 843 509 824 c 128,-1,147
 508 805 508 805 508 784 c 256,148,149
 508 763 508 763 509.5 745.5 c 0,150,151
 510 728 510 728 514 710 c 0,152,153
 518 689 518 689 523 671.5 c 128,-1,154
 528 654 528 654 536 637 c 1,155,-1
 312 486 l 1,156,157
 294 521 294 521 280 556.5 c 128,-1,158
 266 592 266 592 259 630 c 1,159,160
 249 665 249 665 243.5 705.5 c 128,-1,161
 238 746 238 746 238 784 c 0,162,163
 238 826 238 826 243 864.5 c 0,164,165
 248 904 248 904 259 942 c 0,166,167
 266 980 266 980 280 1015 c 128,-1,168
 294 1050 294 1050 312 1085 c 1,169,-1
 312 1085 l 1,141,-1
340 434 m 1,170,-1
 564 584 l 1,171,172
 574 563 574 563 590 545.5 c 128,-1,173
 606 528 606 528 620 511 c 0,174,175
 638 493 638 493 657 479.5 c 128,-1,176
 676 466 676 466 693 452 c 1,177,-1
 546 231 l 1,178,179
 514 249 514 249 484.5 271.5 c 0,180,181
 454 294 454 294 430 322 c 0,182,183
 406 346 406 346 383 374 c 128,-1,184
 360 402 360 402 340 434 c 1,185,-1
 340 434 l 1,170,-1
595 200 m 1,186,-1
 749 427 l 1,187,188
 763 420 763 420 782.5 413 c 128,-1,189
 802 406 802 406 819 402 c 256,190,191
 837 398 837 398 856 397 c 128,-1,192
 875 396 875 396 896 396 c 1,193,-1
 896 396 l 1,194,-1
 896 396 l 1,195,196
 917 396 917 396 936.5 397.5 c 0,197,198
 956 398 956 398 973 402 c 256,199,200
 991 406 991 406 1010 413 c 0,201,202
 1028 420 1028 420 1046 427 c 1,203,-1
 1197 200 l 1,204,205
 1162 182 1162 182 1125 168 c 128,-1,206
 1088 154 1088 154 1054 147 c 0,207,208
 1016 137 1016 137 977 131.5 c 128,-1,209
 938 126 938 126 896 126 c 256,210,211
 854 126 854 126 815.5 131 c 0,212,213
 776 136 776 136 738 147 c 0,214,215
 703 154 703 154 666.5 168 c 128,-1,216
 630 182 630 182 595 200 c 1,217,-1
 595 200 l 1,186,-1
1246 231 m 1,218,-1
 1099 452 l 1,219,220
 1117 466 1117 466 1136 480 c 0,221,222
 1154 494 1154 494 1172 511 c 0,223,224
 1186 529 1186 529 1202 546.5 c 128,-1,225
 1218 564 1218 564 1228 584 c 1,226,-1
 1452 434 l 1,227,228
 1431 402 1431 402 1408.5 374 c 128,-1,229
 1386 346 1386 346 1362 322 c 0,230,231
 1338 294 1338 294 1308 271 c 128,-1,232
 1278 248 1278 248 1246 231 c 1,233,-1
 1246 231 l 1,218,-1
EndSplineSet
EndChar

StartChar: uniE64A
Encoding: 58954 58954 78
Width: 1792
Flags: W
LayerCount: 2
Fore
SplineSet
896 1530 m 1,0,1
 742 1530 742 1530 605.5 1472 c 0,2,3
 470 1414 470 1414 368 1312 c 256,4,5
 266 1210 266 1210 208 1074 c 128,-1,6
 150 938 150 938 150 784 c 256,7,8
 150 630 150 630 208 493.5 c 0,9,10
 266 358 266 358 368 256 c 256,11,12
 470 154 470 154 606 96 c 128,-1,13
 742 38 742 38 896 38 c 256,14,15
 1050 38 1050 38 1186.5 96 c 0,16,17
 1322 154 1322 154 1424 256 c 256,18,19
 1526 358 1526 358 1584 494 c 128,-1,20
 1642 630 1642 630 1642 784 c 256,21,22
 1642 938 1642 938 1584 1074.5 c 0,23,24
 1526 1210 1526 1210 1424 1312 c 256,25,26
 1322 1414 1322 1414 1186 1472 c 128,-1,27
 1050 1530 1050 1530 896 1530 c 1,28,-1
 896 1530 l 1,0,1
896 98 m 1,29,30
 752 98 752 98 628 152 c 128,-1,31
 504 206 504 206 410 298 c 1,32,33
 319 392 319 392 264.5 516 c 128,-1,34
 210 640 210 640 210 784 c 256,35,36
 210 928 210 928 264 1052 c 128,-1,37
 318 1176 318 1176 410 1270 c 1,38,39
 504 1361 504 1361 628 1415.5 c 128,-1,40
 752 1470 752 1470 896 1470 c 256,41,42
 1040 1470 1040 1470 1164 1416 c 128,-1,43
 1288 1362 1288 1362 1382 1270 c 1,44,45
 1473 1176 1473 1176 1527.5 1052 c 128,-1,46
 1582 928 1582 928 1582 784 c 256,47,48
 1582 640 1582 640 1528 516 c 128,-1,49
 1474 392 1474 392 1382 298 c 1,50,51
 1288 207 1288 207 1164 152.5 c 128,-1,52
 1040 98 1040 98 896 98 c 1,53,-1
 896 98 l 1,29,30
892 1176 m 1,54,55
 836 1176 836 1176 792.5 1158.5 c 0,56,57
 750 1142 750 1142 718 1110 c 0,58,59
 690 1078 690 1078 674 1034 c 128,-1,60
 658 990 658 990 654 934 c 1,61,-1
 721 934 l 1,62,63
 721 972 721 972 731.5 1007.5 c 0,64,65
 742 1044 742 1044 763 1068 c 256,66,67
 784 1092 784 1092 815.5 1106 c 128,-1,68
 847 1120 847 1120 889 1120 c 0,69,70
 921 1120 921 1120 948.5 1109.5 c 0,71,72
 976 1100 976 1100 994 1082 c 0,73,74
 1015 1061 1015 1061 1027.5 1036.5 c 128,-1,75
 1040 1012 1040 1012 1040 980 c 0,76,77
 1040 959 1040 959 1034.5 939.5 c 128,-1,78
 1029 920 1029 920 1022 906 c 0,79,80
 1012 888 1012 888 999.5 873 c 128,-1,81
 987 858 987 858 973 844 c 0,82,83
 941 816 941 816 922 795 c 128,-1,84
 903 774 903 774 889 749 c 0,85,86
 879 728 879 728 873.5 700 c 128,-1,87
 868 672 868 672 864 634 c 1,88,-1
 934 634 l 1,89,90
 934 669 934 669 936 688 c 0,91,92
 938 706 938 706 945 724 c 0,93,94
 952 738 952 738 968 756 c 128,-1,95
 984 774 984 774 1015 805 c 0,96,97
 1036 823 1036 823 1052 842 c 128,-1,98
 1068 861 1068 861 1082 882 c 0,99,100
 1092 903 1092 903 1099 927.5 c 128,-1,101
 1106 952 1106 952 1106 984 c 0,102,103
 1106 1030 1106 1030 1088.5 1064.5 c 0,104,105
 1071 1100 1071 1100 1043 1124 c 256,106,107
 1015 1148 1015 1148 976.5 1162 c 128,-1,108
 938 1176 938 1176 892 1176 c 1,109,-1
 892 1176 l 1,54,55
896 514 m 1,110,111
 872 514 872 514 854 497 c 128,-1,112
 836 480 836 480 836 455 c 256,113,114
 836 431 836 431 854 413.5 c 128,-1,115
 872 396 872 396 896 396 c 256,116,117
 920 396 920 396 938 413 c 128,-1,118
 956 430 956 430 956 455 c 256,119,120
 956 479 956 479 938 496.5 c 128,-1,121
 920 514 920 514 896 514 c 1,122,-1
 896 514 l 1,110,111
EndSplineSet
EndChar

StartChar: uniE64B
Encoding: 58955 58955 79
Width: 1792
Flags: W
LayerCount: 2
Fore
SplineSet
1582 875 m 1,0,-1
 1582 158 l 1,1,-1
 1284 158 l 1,2,-1
 1284 1470 l 1,3,-1
 1225 1470 l 1,4,-1
 1225 158 l 1,5,-1
 928 158 l 1,6,-1
 928 1054 l 1,7,-1
 864 1054 l 1,8,-1
 864 158 l 1,9,-1
 567 158 l 1,10,-1
 567 514 l 1,11,-1
 508 514 l 1,12,-1
 508 158 l 1,13,-1
 210 158 l 1,14,-1
 210 693 l 1,15,-1
 150 693 l 1,16,-1
 150 158 l 1,17,-1
 150 158 l 1,18,-1
 150 98 l 1,19,-1
 1642 98 l 1,20,-1
 1642 875 l 1,21,-1
 1582 875 l 1,0,-1
EndSplineSet
EndChar

StartChar: uniE64C
Encoding: 58956 58956 80
Width: 1792
Flags: W
LayerCount: 2
Fore
SplineSet
178 1502 m 1,0,-1
 178 66 l 1,1,-1
 1614 66 l 1,2,-1
 1614 1502 l 1,3,-1
 178 1502 l 1,4,-1
 178 1502 l 1,0,-1
1554 1442 m 1,5,-1
 1554 1183 l 1,6,-1
 1158 616 l 1,7,-1
 889 830 l 1,8,-1
 592 410 l 1,9,-1
 413 528 l 1,10,-1
 238 326 l 1,11,-1
 238 1442 l 1,12,-1
 1554 1442 l 1,13,-1
 1554 1442 l 1,5,-1
238 126 m 1,14,-1
 238 234 l 1,15,-1
 424 448 l 1,16,-1
 606 329 l 1,17,-1
 903 742 l 1,18,-1
 1172 528 l 1,19,-1
 1554 1078 l 1,20,-1
 1554 126 l 1,21,-1
 238 126 l 1,22,-1
 238 126 l 1,14,-1
EndSplineSet
EndChar

StartChar: uniE64D
Encoding: 58957 58957 81
Width: 1792
Flags: W
LayerCount: 2
Fore
SplineSet
1568 1620 m 1,0,1
 1536 1620 1536 1620 1510 1608 c 128,-1,2
 1484 1596 1484 1596 1463 1575 c 0,3,4
 1442 1557 1442 1557 1430 1529.5 c 128,-1,5
 1418 1502 1418 1502 1418 1470 c 0,6,7
 1418 1452 1418 1452 1423 1433 c 128,-1,8
 1428 1414 1428 1414 1438 1400 c 1,9,10
 1445 1382 1445 1382 1457.5 1370 c 128,-1,11
 1470 1358 1470 1358 1484 1348 c 1,12,-1
 1204 602 l 1,13,14
 1197 602 1197 602 1191.5 604 c 128,-1,15
 1186 606 1186 606 1180 606 c 0,16,17
 1152 606 1152 606 1129 597 c 128,-1,18
 1106 588 1106 588 1085 570 c 1,19,-1
 802 805 l 1,20,21
 812 819 812 819 817 836.5 c 128,-1,22
 822 854 822 854 822 875 c 0,23,24
 822 903 822 903 810 931 c 128,-1,25
 798 959 798 959 777 980 c 256,26,27
 756 1001 756 1001 730 1011.5 c 128,-1,28
 704 1022 704 1022 672 1022 c 256,29,30
 640 1022 640 1022 614 1011.5 c 128,-1,31
 588 1001 588 1001 567 980 c 256,32,33
 546 959 546 959 534 931 c 128,-1,34
 522 903 522 903 522 875 c 0,35,36
 522 857 522 857 525 841.5 c 128,-1,37
 528 826 528 826 536 812 c 256,38,39
 543 798 543 798 551.5 786 c 128,-1,40
 560 774 560 774 574 763 c 1,41,-1
 273 238 l 1,42,43
 263 242 263 242 250.5 243.5 c 128,-1,44
 238 245 238 245 224 245 c 0,45,46
 192 245 192 245 166 234.5 c 128,-1,47
 140 224 140 224 119 203 c 256,48,49
 98 182 98 182 86 156 c 128,-1,50
 74 130 74 130 74 98 c 256,51,52
 74 66 74 66 86 38 c 128,-1,53
 98 10 98 10 119 -7 c 0,54,55
 140 -28 140 -28 166 -40 c 128,-1,56
 192 -52 192 -52 224 -52 c 256,57,58
 256 -52 256 -52 282 -40 c 128,-1,59
 308 -28 308 -28 329 -7 c 0,60,61
 350 11 350 11 362 38.5 c 128,-1,62
 374 66 374 66 374 98 c 0,63,64
 374 116 374 116 371 130 c 128,-1,65
 368 144 368 144 360 158 c 256,66,67
 353 172 353 172 344.5 184 c 128,-1,68
 336 196 336 196 326 206 c 1,69,-1
 626 732 l 1,70,71
 636 728 636 728 647 726 c 128,-1,72
 658 724 658 724 672 724 c 0,73,74
 700 724 700 724 723 733 c 128,-1,75
 746 742 746 742 766 760 c 1,76,-1
 1046 525 l 1,77,78
 1039 507 1039 507 1034 491.5 c 128,-1,79
 1029 476 1029 476 1029 455 c 0,80,81
 1029 423 1029 423 1041.5 397 c 128,-1,82
 1054 371 1054 371 1074 350 c 256,83,84
 1095 329 1095 329 1121.5 318.5 c 128,-1,85
 1148 308 1148 308 1180 308 c 256,86,87
 1212 308 1212 308 1238 318.5 c 128,-1,88
 1264 329 1264 329 1284 350 c 256,89,90
 1305 371 1305 371 1317.5 397.5 c 128,-1,91
 1330 424 1330 424 1330 455 c 0,92,93
 1330 476 1330 476 1325 493.5 c 0,94,95
 1320 510 1320 510 1309 528 c 0,96,97
 1302 546 1302 546 1288 558 c 128,-1,98
 1274 570 1274 570 1260 581 c 1,99,-1
 1540 1323 l 1,100,101
 1547 1323 1547 1323 1554 1323 c 128,-1,102
 1561 1323 1561 1323 1568 1323 c 0,103,104
 1600 1323 1600 1323 1626 1333.5 c 128,-1,105
 1652 1344 1652 1344 1673 1365 c 256,106,107
 1694 1386 1694 1386 1706 1412 c 128,-1,108
 1718 1438 1718 1438 1718 1470 c 256,109,110
 1718 1502 1718 1502 1706 1530 c 128,-1,111
 1694 1558 1694 1558 1673 1575 c 0,112,113
 1652 1596 1652 1596 1626 1608 c 128,-1,114
 1600 1620 1600 1620 1568 1620 c 1,115,-1
 1568 1620 l 1,0,1
224 7 m 1,116,117
 206 7 206 7 189 14 c 128,-1,118
 172 21 172 21 161 35 c 0,119,120
 151 45 151 45 142 62.5 c 128,-1,121
 133 80 133 80 133 98 c 256,122,123
 133 116 133 116 141.5 131.5 c 128,-1,124
 150 147 150 147 161 161 c 0,125,126
 171 171 171 171 188.5 178.5 c 128,-1,127
 206 186 206 186 224 186 c 256,128,129
 242 186 242 186 259 179 c 128,-1,130
 276 172 276 172 287 161 c 0,131,132
 301 147 301 147 308 131.5 c 128,-1,133
 315 116 315 116 315 98 c 256,134,135
 315 80 315 80 308 63 c 128,-1,136
 301 46 301 46 287 35 c 1,137,138
 277 21 277 21 259.5 14 c 128,-1,139
 242 7 242 7 224 7 c 1,140,-1
 224 7 l 1,116,117
672 784 m 1,141,142
 654 784 654 784 637 791 c 128,-1,143
 620 798 620 798 609 812 c 1,144,145
 595 822 595 822 588 838 c 128,-1,146
 581 854 581 854 581 875 c 0,147,148
 581 893 581 893 588 908.5 c 128,-1,149
 595 924 595 924 609 938 c 0,150,151
 619 948 619 948 636.5 955 c 128,-1,152
 654 962 654 962 672 962 c 256,153,154
 690 962 690 962 707 955 c 128,-1,155
 724 948 724 948 735 938 c 0,156,157
 745 924 745 924 754 908 c 128,-1,158
 763 892 763 892 763 875 c 0,159,160
 763 854 763 854 754.5 838 c 128,-1,161
 746 822 746 822 735 812 c 0,162,163
 725 798 725 798 707.5 791 c 128,-1,164
 690 784 690 784 672 784 c 1,165,-1
 672 784 l 1,141,142
1180 368 m 1,166,167
 1162 368 1162 368 1144.5 375 c 0,168,169
 1126 382 1126 382 1116 392 c 0,170,171
 1102 406 1102 406 1095 422 c 128,-1,172
 1088 438 1088 438 1088 455 c 256,173,174
 1088 473 1088 473 1095 490.5 c 128,-1,175
 1102 508 1102 508 1116 518 c 1,176,177
 1126 532 1126 532 1144 539 c 128,-1,178
 1162 546 1162 546 1180 546 c 256,179,180
 1198 546 1198 546 1215 539 c 128,-1,181
 1232 532 1232 532 1242 518 c 1,182,183
 1256 508 1256 508 1263 490 c 128,-1,184
 1270 472 1270 472 1270 455 c 256,185,186
 1270 437 1270 437 1263 421.5 c 128,-1,187
 1256 406 1256 406 1242 392 c 0,188,189
 1232 382 1232 382 1214.5 375 c 0,190,191
 1198 368 1198 368 1180 368 c 1,192,-1
 1180 368 l 1,166,167
1568 1382 m 1,193,194
 1550 1382 1550 1382 1533 1389 c 128,-1,195
 1516 1396 1516 1396 1505 1407 c 0,196,197
 1491 1421 1491 1421 1484 1436.5 c 128,-1,198
 1477 1452 1477 1452 1477 1470 c 256,199,200
 1477 1488 1477 1488 1484 1505 c 128,-1,201
 1491 1522 1491 1522 1505 1533 c 1,202,203
 1515 1547 1515 1547 1532.5 1554 c 128,-1,204
 1550 1561 1550 1561 1568 1561 c 256,205,206
 1586 1561 1586 1561 1603 1554 c 128,-1,207
 1620 1547 1620 1547 1631 1533 c 0,208,209
 1641 1523 1641 1523 1650 1505.5 c 128,-1,210
 1659 1488 1659 1488 1659 1470 c 256,211,212
 1659 1452 1659 1452 1650.5 1436.5 c 128,-1,213
 1642 1421 1642 1421 1631 1407 c 0,214,215
 1621 1397 1621 1397 1603.5 1389.5 c 128,-1,216
 1586 1382 1586 1382 1568 1382 c 1,217,-1
 1568 1382 l 1,193,194
EndSplineSet
EndChar

